<svg xmlns="http://www.w3.org/2000/svg" viewBox="0 0 142.17 76.06" fill="#ffffff">
<g id="abe492e0-a174-4fba-8a4e-42e93139ff05" data-name="Capa 2">
<g id="f35e2c66-51ca-4053-82e5-2cdbd7830960" data-name="Capa 1">
<path d="M0,37.73h38.2c-1.44,1.48-2.77,2.82-4.06,4.2a2,2,0,0,1-2,.7c-6.08-1-12.17-1.82-18.26-2.71a5.52,5.52,0,0,0-.75,0c.22,1.21.35,2.36.65,3.47A24.94,24.94,0,0,0,35.3,61.82c1.06.12,1.35.52,1.14,1.62-.64-.06-1.3-.1-1.95-.19a26.42,26.42,0,0,1-22.4-20.42,14,14,0,0,1-.39-2.49c0-.62-.29-.81-.88-.89-3.53-.48-7-1-10.58-1.53A1.13,1.13,0,0,1,0,37.84Z"/><path d="M38.44.05V37.4a3.9,3.9,0,0,1-.52-.37c-1.33-1.28-2.68-2.55-4-3.88A1.58,1.58,0,0,1,33.59,32c.88-6.15,1.79-12.3,2.71-18.55a10.32,10.32,0,0,0-1.37,0c-8.56,1.34-15.07,5.66-19.21,13.33a21.08,21.08,0,0,0-2.43,7.75c-.14,1.25-.18,1.28-1.7,1.2.15-1.06.22-2.12.46-3.14A25.87,25.87,0,0,1,27.5,14a24.28,24.28,0,0,1,8.16-2.06c.74-.06,1-.36,1.08-1.06.49-3.62,1-7.23,1.57-10.84Z"/><path d="M39,37.33c1.63-1.65,3.08-3.15,4.58-4.61.18-.16.61-.13.91-.09l17.7,2.6c.35.05.69.07,1.13.12a16.65,16.65,0,0,0-1.44-6.29A24.57,24.57,0,0,0,45.47,14.3a18.7,18.7,0,0,0-3.89-.81c-1.13-.1-1.25-.63-1.09-1.71a38.07,38.07,0,0,1,4.48.78c10.55,3.07,17.29,9.81,19.64,20.68a.29.29,0,0,1,0,.09c.18.76.13,1.77.6,2.22s1.47.34,2.24.45l8.08,1.2s.1.07.18.13Z"/><path d="M38.79,38.37c1.45,1.52,2.92,3,4.34,4.56a1.39,1.39,0,0,1,.17,1c-.52,3.71-1.08,7.43-1.61,11.14q-1.26,8.7-2.49,17.4c-.18,1.21-.39,2.41-.67,3.61V38.59Z"/><path d="M43.66,60.58h1l.58,1.16.2.45h0l.2-.45.56-1.16h1v2.78h-.91v-.82a1.85,1.85,0,0,1,0-.23l0-.27c0-.09,0-.17,0-.26s0-.16,0-.23h0l-.31.65-.51.94h-.37l-.51-.94-.3-.65h0c0,.07,0,.14,0,.23s0,.17,0,.26l0,.27a1.85,1.85,0,0,1,0,.23v.82h-.9Z"/><path d="M47.92,62.76a.58.58,0,0,1,.37-.53A3.11,3.11,0,0,1,49.47,62c0-.15-.15-.23-.4-.23a1.25,1.25,0,0,0-.32,0,3.05,3.05,0,0,0-.4.13L48,61.45a3.67,3.67,0,0,1,.61-.21,3.41,3.41,0,0,1,.65-.07,1.41,1.41,0,0,1,.87.24.89.89,0,0,1,.31.76v1.19h-.79l-.07-.2h0a1.22,1.22,0,0,1-.36.18,1.16,1.16,0,0,1-.42.08,1,1,0,0,1-.36-.06.69.69,0,0,1-.27-.14A.56.56,0,0,1,48,63,.57.57,0,0,1,47.92,62.76Zm.94-.06c0,.1.08.15.26.15a.42.42,0,0,0,.2,0,.72.72,0,0,0,.15-.11v-.29a1.41,1.41,0,0,0-.48.12C48.9,62.58,48.86,62.64,48.86,62.7Z"/><path d="M51.11,61.22h.79l.07.37h0a1,1,0,0,1,.38-.32,1.12,1.12,0,0,1,.43-.1H53l.14,0-.16.64-.15,0h-.17a.79.79,0,0,0-.32.08.67.67,0,0,0-.27.28v1.19h-1Z"/><path d="M54,61a.67.67,0,0,1-.39-.11.3.3,0,0,1-.16-.26.33.33,0,0,1,.16-.27.75.75,0,0,1,.39-.1.82.82,0,0,1,.4.1.32.32,0,0,1,.15.27.29.29,0,0,1-.15.26A.72.72,0,0,1,54,61Zm-.49.26h1v2.14h-1Z"/><path d="M55.14,61.22h.8l.06.26h0a2.36,2.36,0,0,1,.39-.22,1.29,1.29,0,0,1,.51-.09.86.86,0,0,1,.68.24.93.93,0,0,1,.21.64v1.31h-1V62.14a.4.4,0,0,0-.07-.27.29.29,0,0,0-.22-.07.53.53,0,0,0-.23,0l-.2.12v1.4h-1Z"/><path d="M58.31,62.29a.94.94,0,0,1,.12-.47,1.28,1.28,0,0,1,.31-.35,1.25,1.25,0,0,1,.43-.22,1.79,1.79,0,0,1,1.06,0,1.15,1.15,0,0,1,.39.23.86.86,0,0,1,.23.33,1.06,1.06,0,0,1,.08.4.88.88,0,0,1,0,.17.74.74,0,0,0,0,.12H59.26a.43.43,0,0,0,.24.28,1.08,1.08,0,0,0,.42.08,1.36,1.36,0,0,0,.29,0,2,2,0,0,0,.29-.1l.32.44a2.05,2.05,0,0,1-.51.18,2.67,2.67,0,0,1-.53.07,2.14,2.14,0,0,1-.58-.08,1.31,1.31,0,0,1-.46-.22,1,1,0,0,1-.32-.35A1.06,1.06,0,0,1,58.31,62.29Zm1.78-.24a.38.38,0,0,0-.08-.23.43.43,0,0,0-.31-.09.51.51,0,0,0-.28.07.36.36,0,0,0-.17.25Z"/><path d="M64.5,62.77h-1l-.18.59h-1l1.13-2.78h1.19l1.13,2.78h-1Zm-.18-.57L64.26,62c-.05-.13-.09-.28-.14-.44s-.09-.3-.13-.44h0c0,.14-.08.29-.13.45a4.38,4.38,0,0,1-.13.43l-.06.19Z"/><path d="M66.2,62.66a1.52,1.52,0,0,0,.7.22.43.43,0,0,0,.22,0,.1.1,0,0,0,.06-.09.09.09,0,0,0,0-.08L67,62.61l-.17,0-.21-.06-.25-.09a1.71,1.71,0,0,1-.23-.13A.73.73,0,0,1,66,62.1a.46.46,0,0,1-.06-.23.47.47,0,0,1,.08-.29.61.61,0,0,1,.23-.22,1.18,1.18,0,0,1,.36-.14,2.16,2.16,0,0,1,.46,0,1.8,1.8,0,0,1,.6.09,3.21,3.21,0,0,1,.45.19l-.44.44a1.3,1.3,0,0,0-.3-.13,1,1,0,0,0-.28,0c-.17,0-.25,0-.25.12a.08.08,0,0,0,0,.07L67,62l.17,0,.21.05a2.5,2.5,0,0,1,.25.09.9.9,0,0,1,.24.12.58.58,0,0,1,.17.18.52.52,0,0,1,.07.25A.6.6,0,0,1,68,63a.74.74,0,0,1-.24.22,1,1,0,0,1-.38.15,2.09,2.09,0,0,1-.53.06,2,2,0,0,1-.57-.09,1.83,1.83,0,0,1-.53-.21Z"/><path d="M68.78,62.66a1.52,1.52,0,0,0,.7.22.43.43,0,0,0,.22,0,.1.1,0,0,0,.06-.09.09.09,0,0,0,0-.08l-.12-.06-.18,0-.2-.06L69,62.41a1.71,1.71,0,0,1-.23-.13.73.73,0,0,1-.17-.18.46.46,0,0,1-.06-.23.47.47,0,0,1,.08-.29.61.61,0,0,1,.23-.22,1.18,1.18,0,0,1,.36-.14,2.16,2.16,0,0,1,.46,0,1.76,1.76,0,0,1,.6.09,3.21,3.21,0,0,1,.45.19l-.44.44a1.3,1.3,0,0,0-.3-.13,1,1,0,0,0-.28,0c-.17,0-.25,0-.25.12a.08.08,0,0,0,0,.07l.12.06.17,0,.21.05a2.5,2.5,0,0,1,.25.09.9.9,0,0,1,.24.12.58.58,0,0,1,.17.18.43.43,0,0,1,.07.25.6.6,0,0,1-.08.29.74.74,0,0,1-.24.22,1,1,0,0,1-.38.15,2.06,2.06,0,0,1-.52.06,2,2,0,0,1-.58-.09,1.83,1.83,0,0,1-.53-.21Z"/><path d="M71.13,61.22h1v1.23a.43.43,0,0,0,.06.27.29.29,0,0,0,.22.07.53.53,0,0,0,.23,0,.6.6,0,0,0,.18-.15V61.22h1v2.14H73l-.07-.28h0a1.39,1.39,0,0,1-.38.25,1.21,1.21,0,0,1-.5.09,1.19,1.19,0,0,1-.4-.07.73.73,0,0,1-.27-.17.61.61,0,0,1-.16-.28,1,1,0,0,1-.06-.36Z"/><path d="M74.46,61.22h.8l.06.37h0a1,1,0,0,1,.38-.32,1.12,1.12,0,0,1,.43-.1h.21l.14,0-.16.64-.15,0H76a.79.79,0,0,0-.32.08.67.67,0,0,0-.27.28v1.19h-1Z"/><path d="M76.58,62.76a.58.58,0,0,1,.37-.53A3.16,3.16,0,0,1,78.13,62c0-.15-.15-.23-.4-.23a1.25,1.25,0,0,0-.32,0,3.05,3.05,0,0,0-.4.13l-.34-.48a3.67,3.67,0,0,1,.61-.21,3.41,3.41,0,0,1,.65-.07,1.41,1.41,0,0,1,.87.24.89.89,0,0,1,.32.76v1.19h-.8l-.07-.2h0a1.22,1.22,0,0,1-.36.18,1.16,1.16,0,0,1-.42.08,1,1,0,0,1-.36-.06.69.69,0,0,1-.27-.14.56.56,0,0,1-.17-.21A.57.57,0,0,1,76.58,62.76Zm.94-.06c0,.1.08.15.26.15a.4.4,0,0,0,.2,0,.72.72,0,0,0,.15-.11v-.29a1.48,1.48,0,0,0-.48.12C77.56,62.58,77.52,62.64,77.52,62.7Z"/><path d="M79.77,61.22h.8l.06.26h0a2.36,2.36,0,0,1,.39-.22,1.33,1.33,0,0,1,.51-.09.86.86,0,0,1,.68.24.93.93,0,0,1,.21.64v1.31h-1V62.14c0-.14,0-.23-.07-.27a.29.29,0,0,0-.22-.07.56.56,0,0,0-.23,0l-.2.12v1.4h-1Z"/><path d="M82.94,62.29a.85.85,0,0,1,.13-.47,1,1,0,0,1,.33-.35,1.56,1.56,0,0,1,.49-.22,2.25,2.25,0,0,1,.58-.08,1.41,1.41,0,0,1,.47.07,1.09,1.09,0,0,1,.36.17l-.44.46-.18-.09-.15,0a.58.58,0,0,0-.43.15.49.49,0,0,0-.15.38.5.5,0,0,0,.15.39.55.55,0,0,0,.39.14.66.66,0,0,0,.25,0l.21-.09.39.46a1.57,1.57,0,0,1-.48.2,1.87,1.87,0,0,1-1,0,1.35,1.35,0,0,1-.45-.22,1,1,0,0,1-.31-.35A1.06,1.06,0,0,1,82.94,62.29Z"/><path d="M85.46,62.29a.94.94,0,0,1,.12-.47,1.28,1.28,0,0,1,.31-.35,1.3,1.3,0,0,1,.44-.22,1.69,1.69,0,0,1,.5-.08,1.77,1.77,0,0,1,.55.08,1.06,1.06,0,0,1,.39.23.86.86,0,0,1,.23.33,1.06,1.06,0,0,1,.08.4.88.88,0,0,1,0,.17.37.37,0,0,1,0,.12H86.41a.44.44,0,0,0,.25.28,1,1,0,0,0,.41.08,1.36,1.36,0,0,0,.29,0,2.11,2.11,0,0,0,.3-.1l.32.44a2.13,2.13,0,0,1-.52.18,2.58,2.58,0,0,1-.52.07,2.08,2.08,0,0,1-.58-.08,1.36,1.36,0,0,1-.47-.22,1,1,0,0,1-.43-.83Zm1.79-.24a.33.33,0,0,0-.09-.23.38.38,0,0,0-.3-.09.54.54,0,0,0-.29.07.39.39,0,0,0-.17.25Z"/><path d="M89.89,60.58h1v2.78h-1Z"/><path d="M91.62,61.22h.8l.07.26h0a2.36,2.36,0,0,1,.39-.22,1.36,1.36,0,0,1,.51-.09.86.86,0,0,1,.68.24.93.93,0,0,1,.21.64v1.31h-1V62.14c0-.14,0-.23-.07-.27A.28.28,0,0,0,93,61.8a.48.48,0,0,0-.22,0L92.6,62v1.4h-1Z"/><path d="M95.07,61.8h-.38v-.55l.43,0,.12-.55h.81v.55h.65v.58h-.65v.73a.28.28,0,0,0,.1.25.48.48,0,0,0,.24.06h.14l.11,0,.15.53-.27,0a2.25,2.25,0,0,1-.4,0,1.62,1.62,0,0,1-.48-.07.88.88,0,0,1-.32-.17.67.67,0,0,1-.19-.28,1,1,0,0,1-.06-.36Z"/><path d="M97,62.29a.94.94,0,0,1,.12-.47,1.14,1.14,0,0,1,.31-.35,1.25,1.25,0,0,1,.43-.22,1.79,1.79,0,0,1,1.06,0,1.26,1.26,0,0,1,.39.23.86.86,0,0,1,.23.33,1.05,1.05,0,0,1,.07.4.91.91,0,0,1,0,.17l0,.12H98a.43.43,0,0,0,.24.28,1.08,1.08,0,0,0,.42.08,1.43,1.43,0,0,0,.29,0,2,2,0,0,0,.29-.1l.32.44a2.05,2.05,0,0,1-.51.18,2.67,2.67,0,0,1-.53.07,2.14,2.14,0,0,1-.58-.08,1.31,1.31,0,0,1-.46-.22,1,1,0,0,1-.32-.35A1.06,1.06,0,0,1,97,62.29Zm1.78-.24a.38.38,0,0,0-.08-.23.43.43,0,0,0-.31-.09.57.57,0,0,0-.29.07.38.38,0,0,0-.16.25Z"/><path d="M100.17,61.22h.8l.07.37h0a1.14,1.14,0,0,1,.38-.32,1.17,1.17,0,0,1,.43-.1h.21l.15,0-.16.64-.15,0h-.17a.84.84,0,0,0-.33.08.67.67,0,0,0-.27.28v1.19h-1Z"/><path d="M102.56,61.22h.8l.07.26h0a2.36,2.36,0,0,1,.39-.22,1.36,1.36,0,0,1,.51-.09.86.86,0,0,1,.68.24.93.93,0,0,1,.21.64v1.31h-1V62.14c0-.14,0-.23-.07-.27a.28.28,0,0,0-.22-.07.48.48,0,0,0-.22,0,1.57,1.57,0,0,0-.21.12v1.4h-1Z"/><path d="M105.79,62.76a.58.58,0,0,1,.36-.53,3.23,3.23,0,0,1,1.19-.25c0-.15-.15-.23-.4-.23a1.25,1.25,0,0,0-.32,0,3.05,3.05,0,0,0-.4.13l-.34-.48a3.67,3.67,0,0,1,.61-.21,3.41,3.41,0,0,1,.65-.07,1.41,1.41,0,0,1,.87.24.89.89,0,0,1,.31.76v1.19h-.8l-.06-.2h0a1.22,1.22,0,0,1-.36.18,1.16,1.16,0,0,1-.42.08,1,1,0,0,1-.36-.06.82.82,0,0,1-.28-.14.54.54,0,0,1-.16-.21A.57.57,0,0,1,105.79,62.76Zm.94-.06c0,.1.08.15.26.15a.36.36,0,0,0,.19,0,.57.57,0,0,0,.16-.11v-.29a1.41,1.41,0,0,0-.48.12C106.77,62.58,106.73,62.64,106.73,62.7Z"/><path d="M109.1,61.8h-.38v-.55l.44,0,.11-.55h.81v.55h.65v.58h-.65v.73a.28.28,0,0,0,.11.25.43.43,0,0,0,.24.06h.13l.12,0,.14.53-.27,0a2.25,2.25,0,0,1-.4,0,1.68,1.68,0,0,1-.48-.07.88.88,0,0,1-.32-.17.67.67,0,0,1-.19-.28,1,1,0,0,1-.06-.36Z"/><path d="M111.75,61a.67.67,0,0,1-.39-.11.28.28,0,0,1-.16-.26.31.31,0,0,1,.16-.27.81.81,0,0,1,.78,0,.31.31,0,0,1,.16.27.28.28,0,0,1-.16.26A.67.67,0,0,1,111.75,61Zm-.49.26h1v2.14h-1Z"/><path d="M112.76,62.29a.93.93,0,0,1,.11-.47,1,1,0,0,1,.32-.35,1.35,1.35,0,0,1,.45-.22,1.8,1.8,0,0,1,1.06,0,1.35,1.35,0,0,1,.45.22,1.07,1.07,0,0,1,.32.35.94.94,0,0,1,.12.47,1,1,0,0,1-.12.48,1.07,1.07,0,0,1-.32.35,1.35,1.35,0,0,1-.45.22,1.8,1.8,0,0,1-1.06,0,1.35,1.35,0,0,1-.45-.22,1,1,0,0,1-.32-.35A1,1,0,0,1,112.76,62.29Zm1,0a.7.7,0,0,0,.09.39.35.35,0,0,0,.32.14.34.34,0,0,0,.32-.14.7.7,0,0,0,.09-.39.69.69,0,0,0-.09-.38.35.35,0,0,0-.32-.15.36.36,0,0,0-.32.15A.69.69,0,0,0,113.76,62.29Z"/><path d="M116.1,61.22h.8l.07.26h0a2.85,2.85,0,0,1,.39-.22,1.36,1.36,0,0,1,.51-.09.85.85,0,0,1,.68.24.93.93,0,0,1,.21.64v1.31h-1V62.14c0-.14,0-.23-.07-.27a.25.25,0,0,0-.21-.07.5.5,0,0,0-.23,0l-.21.12v1.4h-1Z"/><path d="M119.33,62.76a.58.58,0,0,1,.37-.53,3.18,3.18,0,0,1,1.19-.25c0-.15-.16-.23-.4-.23a1.26,1.26,0,0,0-.33,0,3,3,0,0,0-.39.13l-.35-.48a4,4,0,0,1,.61-.21,3.41,3.41,0,0,1,.65-.07,1.41,1.41,0,0,1,.87.24.89.89,0,0,1,.32.76v1.19h-.8l-.07-.2h0a1.41,1.41,0,0,1-.37.18,1.12,1.12,0,0,1-.42.08,1,1,0,0,1-.36-.06.69.69,0,0,1-.27-.14.56.56,0,0,1-.17-.21A.57.57,0,0,1,119.33,62.76Zm.94-.06c0,.1.09.15.26.15a.4.4,0,0,0,.2,0l.16-.11v-.29a1.48,1.48,0,0,0-.49.12C120.31,62.58,120.27,62.64,120.27,62.7Z"/><path d="M122.52,60.38h1v2.26a.21.21,0,0,0,0,.15l.11,0h.1l.12.54-.2,0-.28,0a1.25,1.25,0,0,1-.42-.06.66.66,0,0,1-.27-.17.58.58,0,0,1-.15-.25,1.15,1.15,0,0,1,0-.33Z"/><path d="M125.34,62a1.26,1.26,0,0,1,.15-.62,1.46,1.46,0,0,1,.4-.46,1.74,1.74,0,0,1,.58-.28,2.15,2.15,0,0,1,.68-.1,1.93,1.93,0,0,1,.65.11,1.81,1.81,0,0,1,.48.26l-.53.45a1.74,1.74,0,0,0-.27-.14,1,1,0,0,0-.31-.05.83.83,0,0,0-.32.06.76.76,0,0,0-.26.16.64.64,0,0,0-.18.25.74.74,0,0,0-.07.34.74.74,0,0,0,.8.81,1.08,1.08,0,0,0,.38-.06,1.2,1.2,0,0,0,.27-.16l.54.44a1.57,1.57,0,0,1-.55.31,2,2,0,0,1-.65.11,2.61,2.61,0,0,1-.69-.09,1.67,1.67,0,0,1-.57-.27,1.38,1.38,0,0,1-.39-.44A1.39,1.39,0,0,1,125.34,62Z"/><path d="M128.62,62.29a.93.93,0,0,1,.11-.47,1.28,1.28,0,0,1,.31-.35,1.3,1.3,0,0,1,.44-.22,1.7,1.7,0,0,1,.51-.08,1.75,1.75,0,0,1,.54.08,1.06,1.06,0,0,1,.39.23.86.86,0,0,1,.23.33,1.06,1.06,0,0,1,.08.4.91.91,0,0,1,0,.17,1,1,0,0,1,0,.12h-1.63a.44.44,0,0,0,.25.28,1.08,1.08,0,0,0,.42.08,1.33,1.33,0,0,0,.28,0,1.76,1.76,0,0,0,.3-.1l.32.44a2.13,2.13,0,0,1-.52.18,2.58,2.58,0,0,1-.52.07,2.08,2.08,0,0,1-.58-.08,1.36,1.36,0,0,1-.47-.22,1,1,0,0,1-.31-.35A1,1,0,0,1,128.62,62.29Zm1.78-.24a.33.33,0,0,0-.09-.23.38.38,0,0,0-.3-.09.54.54,0,0,0-.29.07.39.39,0,0,0-.17.25Z"/><path d="M131.77,61.22h.8l.06.26h0a2.36,2.36,0,0,1,.39-.22,1.33,1.33,0,0,1,.51-.09.86.86,0,0,1,.68.24.93.93,0,0,1,.21.64v1.31h-1V62.14c0-.14,0-.23-.07-.27a.29.29,0,0,0-.22-.07.56.56,0,0,0-.23,0l-.2.12v1.4h-1Z"/><path d="M135.21,61.8h-.37v-.55l.43,0,.12-.55h.81v.55h.65v.58h-.65v.73a.28.28,0,0,0,.1.25.48.48,0,0,0,.24.06h.13l.12,0,.15.53-.27,0a2.25,2.25,0,0,1-.4,0,1.62,1.62,0,0,1-.48-.07,1,1,0,0,1-.33-.17.77.77,0,0,1-.19-.28,1,1,0,0,1-.06-.36Z"/><path d="M137.37,61.22h.8l.07.37h0a1.14,1.14,0,0,1,.38-.32,1.17,1.17,0,0,1,.44-.1h.21l.14,0-.16.64-.15,0H139a.79.79,0,0,0-.32.08.57.57,0,0,0-.27.28v1.19h-1Z"/><path d="M139.55,62.29a.94.94,0,0,1,.12-.47,1.28,1.28,0,0,1,.31-.35,1.3,1.3,0,0,1,.44-.22,1.69,1.69,0,0,1,.5-.08,1.77,1.77,0,0,1,.55.08,1.06,1.06,0,0,1,.39.23.86.86,0,0,1,.23.33,1.06,1.06,0,0,1,.08.4c0,.06,0,.12,0,.17a1,1,0,0,1,0,.12H140.5a.44.44,0,0,0,.25.28,1,1,0,0,0,.41.08,1.36,1.36,0,0,0,.29,0,2.11,2.11,0,0,0,.3-.1l.32.44a2.13,2.13,0,0,1-.52.18,2.58,2.58,0,0,1-.52.07,2.08,2.08,0,0,1-.58-.08,1.36,1.36,0,0,1-.47-.22,1,1,0,0,1-.43-.83Zm1.79-.24a.33.33,0,0,0-.09-.23.38.38,0,0,0-.3-.09.54.54,0,0,0-.29.07.39.39,0,0,0-.17.25Z"/><path d="M61.68,48.61l-.22.32h5.16l.91-1.28h.18c-.09.34-.19.74-.31,1.17,0,0,0,.08,0,.11h6.36V47.47H62.51Z"/><polygon points="63.25 46.45 73.73 46.45 73.73 45.28 64.09 45.28 63.25 46.45"/><polygon points="73.73 43.93 73.73 42.71 65.96 42.71 65.08 43.93 73.73 43.93"/><path d="M69.1,51.52a.29.29,0,0,1-.3-.3.3.3,0,0,1,.3-.3h4.64V49.77H67.19c0,.14-.07.26-.09.4-.09.46-.17.9-.24,1.34a6.68,6.68,0,0,0-.11,1.2V56.9h7V51.52Z"/><path d="M61.31,49.77a.42.42,0,0,1-.32-.15l-.88,1.3h-.17l-1.58-2.31-.85-1.14H53.9a.51.51,0,1,1,0-1h2.83l-.88-1.17h-9.5V43.93h8.48l-.92-1.22H46.14V56.9H53V52.71a7.75,7.75,0,0,0-.11-1.2c-.08-.44-.16-.88-.24-1.34s-.19-.91-.31-1.35-.22-.83-.3-1.17h.17L54.52,51l3.93,4.79h2.8L65.18,51,66,49.77Z"/><polygon points="99.09 51.92 78.75 51.92 77.96 53.21 99.88 53.21 99.09 51.92"/><path d="M90.62,49.34h6.9l-.89-1.46H89.94C90.17,48.39,90.4,48.87,90.62,49.34Z"/><polygon points="94.48 44.34 93.46 42.68 84.38 42.68 83.37 44.34 94.48 44.34"/><path d="M89.48,46.85H96l-.71-1.16H88.94C89.12,46.07,89.3,46.45,89.48,46.85Z"/><path d="M82.54,45.69l-.71,1.16h6.23l.5-1.16Z"/><polygon points="77.73 53.59 75.73 56.87 83.42 56.87 84.19 55.2 81.26 55.2 81.26 54.96 84.31 54.96 84.82 53.85 92.76 53.85 93.28 54.96 98.84 54.96 98.84 55.2 93.39 55.2 94.16 56.87 102.11 56.87 100.11 53.59 77.73 53.59"/><polygon points="91.41 50.95 86.17 50.95 86.55 50.18 79.81 50.18 79.11 51.33 98.73 51.32 98.03 50.18 91.03 50.18 91.41 50.95"/><path d="M87,49.34c.22-.47.44-1,.66-1.46H81.21l-.89,1.46Z"/><rect x="104.64" y="42.68" width="7.51" height="1.66"/><path d="M104.64,50.18v1.14h4.75a.3.3,0,0,1,0,.59h-4.75v5h7.51V50.18Z"/><rect x="104.64" y="45.69" width="7.51" height="1.16"/><rect x="104.64" y="47.88" width="7.51" height="1.46"/><path d="M137.15,44.13a18.93,18.93,0,0,0-3.3-1.12,19.66,19.66,0,0,0-4.91-.56,27.06,27.06,0,0,0-5.26.5,18,18,0,0,0-3.82,1.18Z"/><path d="M131.71,53.62a11.37,11.37,0,0,1-2.86.31,8.1,8.1,0,0,1-4.43-1.07,3.43,3.43,0,0,1-1.68-3.07,3,3,0,0,1,.5-1.73,4.18,4.18,0,0,1,1.35-1.29,7,7,0,0,1,2-.81,10.62,10.62,0,0,1,2.42-.28,9.91,9.91,0,0,1,2.41.25,13.89,13.89,0,0,1,2,.71l2.06-1.16h-18a8,8,0,0,0-1.22,1.16h5.33a.52.52,0,0,1,0,1h-6a4.9,4.9,0,0,0-.47,1.46h.9a.42.42,0,0,1,0,.84h-1a4.9,4.9,0,0,0,1.09,3.12,8.38,8.38,0,0,0,3,2.27,16.75,16.75,0,0,0,4.37,1.36,29.67,29.67,0,0,0,5.28.45,22.83,22.83,0,0,0,5-.53,14.88,14.88,0,0,0,4.19-1.57l-4.1-2.27A9.56,9.56,0,0,1,131.71,53.62Z"/></g></g></svg>