<svg xmlns="http://www.w3.org/2000/svg" viewBox="0 0 198.52 198.83"><defs><style>.afd0929a-1234-4c07-b384-e97937e95a0c{fill:#fff;}</style></defs><g id="e89afd20-55bc-49c1-bc0d-2cc417837507" data-name="Capa 2"><g id="a9719309-5ab5-469c-9b52-9e192c0e1225" data-name="TYPO"><path class="afd0929a-1234-4c07-b384-e97937e95a0c" d="M149.56,198.83c-8.21-.23-18.08-2.64-27.57-6.49-29.4-11.94-54.59-30-75.94-53.38-15.22-16.7-28-35.06-37.1-55.83C5,74.08,1.52,64.86.4,55c-1.54-13.62,1.2-25.77,12-35.3C17.31,15.28,21.92,10.5,26.75,6c8.44-7.9,19.36-8,27.78,0q13.17,12.42,26,25.24c7.27,7.27,9,16.08,5.12,24.17C83.5,59.8,80,63.05,76.51,66.39c-3.12,3-6.33,6-9.41,9a2.07,2.07,0,0,0-.25,1.94c2.9,5.05,5.51,10.33,9,15a143.17,143.17,0,0,0,41,38c5.71,3.46,5.64,3.54,10.33-1.11,3.87-3.83,7.6-7.84,11.74-11.37,5.55-4.74,12-7,19.32-4.8A20.61,20.61,0,0,1,167,118.3c8.48,8.41,16.91,16.88,25.37,25.3,9.46,9.41,6.83,21.93.1,29.26-2.67,2.91-5.66,5.54-8.48,8.31-1.62,1.59-3.31,3.13-4.77,4.85C171.6,195,163.53,198.77,149.56,198.83ZM12.53,47.17c.13,10.6,2.35,20.44,7.74,31.73,22.54,47.25,57.62,81.59,105.91,102.16,8.75,3.74,17.88,6.27,27.55,5.9,5.64-.21,10.66-1.93,14.72-6.08q7.41-7.59,15-15c5.2-5.12,5.27-9.73.07-14.94Q172.57,140,161.6,129a33.66,33.66,0,0,0-3.29-3,7.66,7.66,0,0,0-9.72-.34,17.94,17.94,0,0,0-2.66,2.27c-5,4.94-9.9,9.93-14.89,14.85-3.2,3.16-7.11,4-10.48,2.14-4.07-2.25-8.14-4.53-12-7.06a173.15,173.15,0,0,1-35.63-31.48A104,104,0,0,1,55.61,79.93c-2-4.49-1.2-9,2-12,5.07-4.84,10.14-9.67,15.19-14.54,4.44-4.29,4.68-8.19.36-12.65C66.66,34,60,27.46,53.3,21,51,18.75,48.44,16.86,46,14.78c-3.14-2.72-6.27-3-9.79-.81a21.75,21.75,0,0,0-3.5,2.77c-4.22,4.13-8.27,8.44-12.57,12.48C14.72,34.36,12.14,40.56,12.53,47.17Z"/></g></g></svg>