<svg xmlns="http://www.w3.org/2000/svg" viewBox="0 0 197.74 191.23">
<defs><style>.f9c2ef60-c505-4d5c-abe8-f903185fd160{fill:#fff;}</style>
</defs><g id="b63b11e9-7827-45b9-8871-317c6903bc24" data-name="Capa 2">
<g id="b3b5afe9-cb4e-4f9b-b27f-1d93fe81c4d6" data-name="TYPO">
<path class="f9c2ef60-c505-4d5c-abe8-f903185fd160" 
d="M24,178.18c-2.29-7.37-4.63-14.88-7-22.39q-3.34-10.69-6.7-21.39c-1.26-4-.58-5.2,3.49-6.05.74-.15,1.47-.32,2.46-.54v-30c0-4.88.65-5.51,5.62-5.51H42.67V89.91q0-13.17,0-26.36c0-3.09,1.13-4.2,4.24-4.2H69V57.09q0-13.19,0-26.37c0-3.24,1.08-4.33,4.3-4.33H88.82V16.44c0-2.27,0-4.53,0-6.8A9.74,9.74,0,0,1,98.48.05q28.22-.11,56.45,0a9.78,9.78,0,0,1,9.71,9.74c0,.21,0,.41,0,.62,0,5.45-.15,5.67-5.64,6.2a6.3,6.3,0,0,0-.95.22c0,2-.12,4,.07,5.95.06.58.89,1.21,1.51,1.58a9.91,9.91,0,0,1-5.28,18.5,9.84,9.84,0,0,1-9.42-9.72h6.35a11,11,0,0,0,.6,1.37,3.06,3.06,0,0,0,3.64,1.65A3.1,3.1,0,0,0,158,33a3.13,3.13,0,0,0-2.42-3.2c-4.14-1.27-4.14-1.26-4.14-5.66,0-2.19,0-4.39,0-6.59a2.49,2.49,0,0,0-.22-.57l-42.49,2v7.35h4c3.85,0,7.69,0,11.54,0,2.93,0,4.09,1.17,4.09,4.14q0,13.19,0,26.36v2.45h2.36c6.66,0,13.32,0,20,0,2.83,0,4,1.19,4,4,0,7.14,0,14.28,0,21.42a7.3,7.3,0,0,0,7.44,7.53c4.94,0,9.89,0,14.83,0,2.95,0,4.08,1.16,4.1,4.13,0,1.84,0,3.69,0,5.93,3.87,0,7.55.2,11.21-.05,4.07-.28,5.28.61,5.28,4.69,0,10.71,0,21.42,0,32.13,0,16.48-6.21,30-19,40.38-.26.22-.49.46-.78.73,3.43,2.9,6.94,5.39,11.73,3.93a17.8,17.8,0,0,0,3-1.37c1.94-1,3.67-.71,4.69.88s.53,3.52-1.31,4.78a16.46,16.46,0,0,1-18.08,0c-.92-.59-1.78-1.29-2.68-1.92-3.8-2.66-8-2.53-11.92,0a31.22,31.22,0,0,1-8,4.09c-5.38,1.55-10.29-.09-14.62-3.53-2.87-2.28-6.07-3.22-9.62-2a14.65,14.65,0,0,0-3.75,2.07c-7.4,5.38-14.46,5.42-21.78,0-4.76-3.5-8.81-3.5-13.56,0-7.34,5.39-14.48,5.38-21.77,0-4.6-3.43-8.74-3.43-13.39,0-7.4,5.44-14.47,5.46-21.76.09-4.83-3.55-8.83-3.53-13.72.09-6.25,4.62-13.36,5.23-19.2,1.44A5,5,0,0,1,0,185.52c-.24-2.34,2.55-4,4.7-2.71,5,2.92,9.35,2,13.66-1.47A37.8,37.8,0,0,1,24,178.18ZM110,161.52a19.17,19.17,0,0,1-.77-2c-1.2-4.56-3-9.07-3.39-13.7-.64-7.77-.37-15.62-.48-23.44,0-.8,0-1.61,0-2.14-4.77-2.11-9.24-1.09-13.77-.2-18.3,3.57-36.62,7-54.93,10.57-6.38,1.23-12.76,2.48-19.27,3.75.2.74.35,1.32.53,1.89,2.4,7.72,4.84,15.43,7.17,23.17a2.43,2.43,0,0,0,2.82,2.09q38.51-.09,77,0ZM151.45,94c-11,10.91-24.18,15.87-39.55,15.22v2.27c0,9.47-.05,18.95,0,28.42.1,16.26,7.22,28.68,20.74,37.54a3.9,3.9,0,0,0,1.9.56,17.39,17.39,0,0,1,9.7,3.56c5.56,4.13,9.13,4.14,14.7,0a17.23,17.23,0,0,1,9.69-3.56,3.62,3.62,0,0,0,1.7-.57c13.41-8.85,20.53-21.21,20.67-37.38.08-9.61,0-19.22,0-28.83v-2C175.5,109.81,162.44,104.78,151.45,94ZM27.79,168.11c1,3.2,1.86,6.08,2.85,8.92a3,3,0,0,0,1.44,1.39c2.11,1.11,4.46,1.84,6.38,3.19,5.64,4,9.2,4,14.74,0,6.53-4.81,14-4.79,20.59,0,5.45,4,9.11,4,14.55,0,6.77-4.94,14.13-4.91,20.92.11,5.67,4.19,10.87,3.7,15.54-1.19-3.35-3.65-6.76-7.21-10-10.94a3.7,3.7,0,0,0-3.22-1.56q-40.75.06-81.53,0ZM23.06,98.93v26.45a73.47,73.47,0,0,0,8.2-.46c6.83-1.14,13.61-2.53,20.4-3.83,5.76-1.11,11.52-2.24,17.21-3.35V98.93ZM49.41,66V92.14h39.3V66ZM108.69,92.3c11.42,0,22.66,0,33.9,0a2.16,2.16,0,0,0,1.31-.42c2.5-2.12,5.2-4.12,4.31-8.13a19.33,19.33,0,0,1,0-4.1c0-4.51,0-9,0-13.57H108.69ZM95.56,19.65V112h6.28V19.31ZM75.73,59.2H88.66V33.08H75.73Zm33,0h12.93V33.09H108.7ZM95.42,13l62.51-3.11c-.41-2.6-1.34-3.32-4.15-3.32h-41.4c-4.33,0-8.66,0-13,0-2.81,0-4,1.2-4,4C95.41,11.34,95.42,12,95.42,13ZM75.78,98.94v17.49l12.87-2.49v-15Zm32.92,3.34h12.94V99H108.7Z"/><path class="f9c2ef60-c505-4d5c-abe8-f903185fd160" d="M118.5,131.06c0-3.84,0-7.69,0-11.53,0-2.66,1-3.81,3.58-4.11A56.69,56.69,0,0,0,148.79,105c2.25-1.61,3.11-1.61,5.36,0a56.87,56.87,0,0,0,26.72,10.45c2.25.26,3.53,1.34,3.52,3.3,0,8.92.27,17.88-.45,26.74-.8,9.75-5.7,17.72-13.45,23.66-5.43,4.17-11.22,7.89-16.84,11.82a3.49,3.49,0,0,1-4.38,0c-5.46-3.82-11.06-7.43-16.36-11.45-9.25-7-14-16.52-14.39-28.12-.12-3.43,0-6.87,0-10.3Zm6.6-9.36c0,6.46-.11,12.84,0,19.21a28.84,28.84,0,0,0,12.15,23.62c4.24,3.16,8.64,6.09,13,9a2.5,2.5,0,0,0,2.26.06c4.51-3,9-6,13.36-9.27,6.5-4.86,10.73-11.37,11.45-19.47.64-7.16.34-14.4.45-21.6a15.34,15.34,0,0,0-.13-1.62c-7.69-1.29-15-3.47-21.46-7.67-3.5-2.3-5.93-2.4-9.49,0C140.3,118.2,132.88,120.38,125.1,121.7Z"/><path class="f9c2ef60-c505-4d5c-abe8-f903185fd160" d="M133,151,137,145.7l10.59,7.92,21.1-27.08,5.18,4-2.28,3-20.08,25.8c-2.08,2.66-3.51,2.84-6.21.82Z"/></g></g></svg>