    <svg xmlns="http://www.w3.org/2000/svg" viewBox="0 0 271.97 198.79">

    <g id="b7c93f29-2b3b-461c-a4ff-7f536752d94b" data-name="Capa 2">
    <g id="e327a83c-33a6-4b42-bfe0-06625ee3429f" data-name="TYPO">
    <path class="f96e5d55-d625-4216-b808-810ade193757" d="M136,198.79H8.16c-6.52,0-8.16-1.58-8.16-8.05Q0,98.87,0,7C0,2,2,0,7.1,0H264.88C270.06,0,272,1.94,272,7.28q0,92.16,0,184.32c0,5.25-1.94,7.18-7.22,7.18ZM21.66,12.1l-.41.71c.7.55,1.46,1,2.11,1.67L75.52,65.15l41.39,40.26c5.36,5.21,11.51,8.87,19.12,9.58,9.87.93,17.54-3.62,24.31-10.09,4.32-4.13,8.41-8.5,12.6-12.77l76.57-77.9c.58-.59,1.07-1.26,1.79-2.13Zm-.57,174.44H251.36l-77.69-78.49c-2.22,2.37-4.12,4.7-6.32,6.7-10.35,9.43-22.24,14.3-36.44,11.54a41.66,41.66,0,0,1-20.67-10.8c-2.6-2.42-5.18-4.86-7.87-7.38Zm-9-7.95L93.87,99.7,12.13,20.3ZM259.85,20.77,182.29,99.71l77.56,78.38Z"/></g></g></svg>