<svg xmlns="http://www.w3.org/2000/svg" viewBox="0 0 148.2 197.97"><defs><style>.f53fae4e-3c64-4fcd-a548-6c072e270365{fill:#fff;}</style></defs><g id="a5cfb20b-61a6-4825-99d4-69d8394819f4" data-name="Capa 2"><g id="f8f3bf67-3030-42ce-868c-ddc950baa067" data-name="TYPO"><path class="f53fae4e-3c64-4fcd-a548-6c072e270365" d="M74.11,0a74.66,74.66,0,0,1,73.07,61.73c2.71,15.78-.22,30.68-6.11,45.23-8,19.91-19.78,37.62-32.74,54.57a382.85,382.85,0,0,1-28.94,33.64c-3.62,3.74-7,3.75-10.58,0-19.68-20.65-37.53-42.71-51.67-67.59C10.06,115.09,4.07,102.14,1.41,88-2.88,65,2.64,44.52,17.43,26.66c11.7-14.12,26.9-22.48,45-25.49C66.27.52,70.21.38,74.11,0Zm0,182.87,1.3-1.42a367.15,367.15,0,0,0,34.23-42.73c8.79-13,16.6-26.45,21.87-41.29,4.14-11.67,5.83-23.57,3.11-35.82C126.21,23.85,87.31,3,51.28,16.93,23.67,27.6,7.41,57.79,13.7,86.59c2.72,12.44,8,23.85,14.17,34.85,10,17.72,22.2,33.87,35.42,49.27C66.76,174.75,70.35,178.68,74.07,182.87Z"/><path class="f53fae4e-3c64-4fcd-a548-6c072e270365" d="M105,74.29A30.89,30.89,0,1,1,74,43.46,30.95,30.95,0,0,1,105,74.29ZM74.06,55.82A18.54,18.54,0,1,0,92.65,74.31,18.53,18.53,0,0,0,74.06,55.82Z"/></g></g></svg>