<svg xmlns="http://www.w3.org/2000/svg" viewBox="0 0 203.29 205.63"><defs><style>.a53f5026-8cac-4c67-9829-be1e98b32805{fill:#fff;}</style></defs><g id="a7fba353-2399-4226-8529-dff959e0102a" data-name="Capa 2"><g id="a376ed51-70ae-48e5-9222-6b7e1fe5df5d" data-name="TYPO"><path class="a53f5026-8cac-4c67-9829-be1e98b32805" d="M33.14,34.36V31.27c0-5.27,1.55-6.83,6.75-6.83,3.59,0,7.17,0,11,0,0-2.14-.06-4.12,0-6.11C51.25,8.74,57.58,1.64,67.06.19S86.43,6.08,87.57,15.8c.33,2.79.3,5.62.45,8.67H99.41c4.33,0,6.18,1.83,6.23,6.15,0,1.16,0,2.33,0,3.75H108c6.7,0,13.41,0,20.11,0,6.17,0,10.44,4.26,10.46,10.42q0,16.49,0,33c0,2.16-.81,3.28-2.34,3.2-2.05-.12-2.32-1.56-2.31-3.24q0-16,0-31.93c0-4.8-2-6.76-6.82-6.77H105.79c-.05,1.14-.12,2.14-.14,3.14-.09,4.12-1.89,5.95-6,5.95q-30.28,0-60.55,0c-4.15,0-5.94-1.79-6-5.91,0-1,0-1.91,0-2.75-.28-.19-.39-.34-.5-.34-7.53,0-15.07-.13-22.6,0-3,0-4.91,2.11-5.22,5.15-.05.54-.05,1.1-.05,1.65V193.94A14.91,14.91,0,0,0,5,196.62a5,5,0,0,0,4.36,4.12,20,20,0,0,0,2.68.13H126.7c.49,0,1,0,1.46,0,3.69-.17,5.72-2.21,5.81-5.88,0-1.94,0-3.87,0-5.81,0-1.64.66-2.79,2.34-2.78s2.36,1.16,2.34,2.79,0,3.46,0,5.19c0,7.22-4.06,11.23-11.35,11.24H11.78c-7.75,0-11.71-4-11.71-11.77,0-49.35.06-98.7-.07-148,0-6.57,4.52-11.87,11.62-11.51,6.34.32,12.71.07,19.07.07Zm4.64,9h63v-14H37.87c0,.72-.08,1.27-.08,1.82C37.78,35.13,37.78,39.13,37.78,43.32Zm45.29-19c0-2,0-3.94,0-5.86A13.62,13.62,0,0,0,70.8,4.88c-7.46-.62-13.72,4-14.91,11.36-.42,2.6-.07,5.33-.07,8.09Z"/><path class="a53f5026-8cac-4c67-9829-be1e98b32805" d="M174,156.5c4.62,2.87,9.21,5.55,13.61,8.52a83.22,83.22,0,0,1,9.53,7.3,18.68,18.68,0,1,1-26.41,26.36c-5.58-6.09-9.9-13.1-14-20.25-.55-1-1.08-1.91-1.67-3-12.18,6.17-24.7,7.37-37.57,2.92a45.14,45.14,0,0,1-24.52-20,46.52,46.52,0,1,1,81-1.84ZM133.1,92.72a41.78,41.78,0,1,0,41.64,41.83A41.65,41.65,0,0,0,133.1,92.72Zm26.31,80.76c4.28,7.81,8.91,15.9,15.42,22.64A14,14,0,1,0,194.25,176a75.81,75.81,0,0,0-9.16-7.08c-4.38-2.94-9-5.59-13-8.1C167.68,165.25,163.64,169.26,159.41,173.48Z"/><path class="a53f5026-8cac-4c67-9829-be1e98b32805" d="M48,161.57q12.21,0,24.44,0c4.7,0,6.58,1.84,6.6,6.46,0,5,0,10.09,0,15.13,0,4.1-2,6.12-6.12,6.13q-24.76.06-49.52,0c-4.05,0-6.07-2.1-6.11-6.2q-.07-7.75,0-15.53c.05-4,2.08-6,6.05-6C31.51,161.55,39.73,161.58,48,161.57Zm.31,4.71c-8.08,0-16.16.05-24.24,0-1.69,0-2.11.51-2.08,2.11.09,4.77.07,9.53,0,14.3,0,1.37.31,1.94,1.83,1.93q24.33-.08,48.68,0c1.46,0,1.9-.46,1.88-1.9-.08-4.76-.11-9.53,0-14.29.05-1.81-.62-2.16-2.27-2.15C64.14,166.31,56.2,166.27,48.26,166.28Z"/><path class="a53f5026-8cac-4c67-9829-be1e98b32805" d="M46.19,74.8c0,2.62.05,5.25,0,7.88a6.31,6.31,0,0,1-6.55,6.53q-7.87.11-15.76,0a6.4,6.4,0,0,1-6.65-6.49q-.2-8,0-16a6.36,6.36,0,0,1,6.49-6.45q8-.16,16,0c3.89.07,6.41,2.71,6.5,6.6C46.24,69.54,46.19,72.17,46.19,74.8ZM31.78,84.56c2.42,0,4.83,0,7.25,0,1.59,0,2.48-.62,2.48-2.3,0-5,0-10.07,0-15.1A1.9,1.9,0,0,0,39.32,65c-5,0-10.07,0-15.1,0-1.57,0-2.26.71-2.25,2.26q0,7.44,0,14.9c0,1.66.74,2.4,2.37,2.38C26.82,84.53,29.3,84.55,31.78,84.56Z"/><path class="a53f5026-8cac-4c67-9829-be1e98b32805" d="M46.23,114.1c0,2.56.06,5.12,0,7.68a6.49,6.49,0,0,1-6.85,6.72q-7.66.09-15.34,0c-3.8,0-6.58-2.42-6.73-6.2-.22-5.59-.22-11.2,0-16.78a6.27,6.27,0,0,1,6.51-6c5.32-.07,10.64-.08,16,0A6.41,6.41,0,0,1,46.22,106c.06,1.38,0,2.76,0,4.14v3.94ZM22,114c0,2.42.06,4.83,0,7.25-.05,1.74.69,2.57,2.42,2.57,4.9,0,9.8,0,14.7,0,1.72,0,2.47-.83,2.46-2.57q-.06-7.24,0-14.48c0-1.73-.73-2.58-2.46-2.57H24.38c-1.74,0-2.48.82-2.43,2.57C22,109.18,22,111.6,22,114Z"/><path class="a53f5026-8cac-4c67-9829-be1e98b32805" d="M90.89,66.63h26.75c.62,0,1.4-.2,1.83.1.78.52,1.9,1.37,1.87,2,0,.84-1,1.75-1.73,2.4-.37.32-1.2.12-1.82.12H63.87a9.16,9.16,0,0,1-1.66,0c-1.32-.25-2.31-1.1-2-2.41.23-.85,1.24-1.58,2-2.13.44-.29,1.21-.07,1.84-.07Z"/><path class="a53f5026-8cac-4c67-9829-be1e98b32805" d="M82.37,82.93H63.53c-2.31,0-3.45-.79-3.36-2.38.12-2.06,1.58-2.29,3.24-2.29q19.16,0,38.3,0c2.1,0,3.33.88,3.19,2.36-.19,2-1.57,2.31-3.28,2.3C95.21,82.91,88.79,82.93,82.37,82.93Z"/><path class="a53f5026-8cac-4c67-9829-be1e98b32805" d="M70.46,110.56c-2.48,0-5,0-7.45,0-1.52,0-2.8-.49-2.85-2.28s1.24-2.46,2.87-2.47q7.44,0,14.89,0c1.62,0,3,.55,3,2.4s-1.37,2.36-3,2.36Z"/><path class="a53f5026-8cac-4c67-9829-be1e98b32805" d="M68.14,122.2c-1.79,0-3.58,0-5.37,0-1.48,0-2.58-.65-2.62-2.3s1-2.37,2.51-2.39c3.65,0,7.31,0,11,0a2.26,2.26,0,0,1,2.54,2.4c0,1.57-1.13,2.28-2.64,2.31C71.73,122.23,69.94,122.2,68.14,122.2Z"/><path class="a53f5026-8cac-4c67-9829-be1e98b32805" d="M101.25,134.46a31.73,31.73,0,1,1,31.49,31.78A31.66,31.66,0,0,1,101.25,134.46Zm32.35,27a26.78,26.78,0,0,0,26.32-27.87c-.6-15.14-13.21-26.83-27.7-26.06-15.35.82-27,13.16-26.25,27.75C106.77,150.51,119.23,162.32,133.6,161.51Z"/><path class="a53f5026-8cac-4c67-9829-be1e98b32805" d="M30.58,73.67c1.07-.9,2.1-1.81,3.16-2.68s2.44-1.08,3.47.12.72,2.44-.42,3.44c-1.6,1.4-3.22,2.79-4.88,4.13a2.37,2.37,0,0,1-3.63-.32c-.6-.67-1.19-1.34-1.77-2-1-1.14-1.21-2.37-.05-3.48s2.36-.84,3.45.24A7.24,7.24,0,0,0,30.58,73.67Z"/><path class="a53f5026-8cac-4c67-9829-be1e98b32805" d="M30.59,112.84c1.19-1,2.22-1.92,3.29-2.78a2.34,2.34,0,1,1,3,3.59c-1.65,1.46-3.31,2.9-5,4.29a2.29,2.29,0,0,1-3.47-.3c-.65-.71-1.24-1.47-1.87-2.2-.92-1.08-1.15-2.27-.11-3.32a2.29,2.29,0,0,1,3.48,0C30.08,112.35,30.27,112.54,30.59,112.84Z"/><path class="a53f5026-8cac-4c67-9829-be1e98b32805" d="M128.93,132.75c4.19-3.92,8.25-7.77,12.38-11.54,4.31-3.93,10.58-2.24,12,3.19a6.46,6.46,0,0,1-1.9,6.64c-6.15,5.76-12.34,11.49-18.61,17.12-3.16,2.84-7.32,2.44-10.14-.75-1.61-1.81-3.14-3.68-4.67-5.55-2.78-3.41-2.65-7.55.3-10.21s6.9-2.42,10,.55Zm-.75,12.75a18.13,18.13,0,0,0,2.12-1.41c5.7-5.22,11.42-10.43,17-15.73a4.06,4.06,0,0,0,1.25-2.79c-.15-2-2.42-2.44-4.11-.89-4,3.68-8,7.38-12,11.15-3.16,3-4.36,4.38-7.53-.19a2.18,2.18,0,0,0-3.43-.5c-1.21,1-1.15,2.27-.16,3.46,1.59,1.92,3.15,3.86,4.8,5.71A8.58,8.58,0,0,0,128.18,145.5Z"/></g></g></svg>