<svg xmlns="http://www.w3.org/2000/svg" viewBox="0 0 201.31 201.18"><defs><style>.e609abc2-0e67-4d68-b408-97731b419eb7{fill:#fff;}</style></defs><g id="f9d0d4e9-eee2-4b34-9bfc-e60fa954cf4f" data-name="Capa 2"><g id="afd2f619-79e6-46f8-ba70-89c1d27f6460" data-name="TYPO"><path class="e609abc2-0e67-4d68-b408-97731b419eb7" d="M155.44,140.73c9.75-6.16,19.24-12.22,28.79-18.18a10.93,10.93,0,0,1,17,7.86c.61,4.39-1.16,7.94-4.66,10.6q-12.51,9.53-25,19-24.42,18.54-48.81,37.1a17.72,17.72,0,0,1-17.35,3q-32.57-10.59-65.19-20.94a35,35,0,0,0-9.27-1.2c-6.61-.21-13.23-.14-19.85-.18-6.94-.05-11-4.1-11-11q0-12.48,0-25c0-7,4.06-11,11.13-11,6.49,0,13,0,19.46,0a19.92,19.92,0,0,0,10.15-2.57c4.44-2.51,9-4.76,13.41-7.39,5.45-3.29,11.16-3.93,17.37-2.92q35.75,5.83,71.55,11.35C149.83,130.35,154.14,133.67,155.44,140.73Zm-45.28,6.83q15.93,0,31.85,0c3.93,0,6.39-2,6.63-5.22s-1.87-5.56-5.74-6.2c-5.23-.87-10.48-1.67-15.72-2.49Q98,129,68.8,124.38A14.73,14.73,0,0,0,58.93,126c-5.09,2.83-10.23,5.57-15.33,8.38A25.38,25.38,0,0,1,31,137.54c-6.69,0-13.37,0-20.06,0-3.1,0-4.22,1.15-4.22,4.3q0,12.49,0,25c0,3.13,1.12,4.25,4.26,4.27,6.62.05,13.24.11,19.85.12a36.59,36.59,0,0,1,11.43,1.49c21.59,7,43.22,13.91,64.79,21a11.82,11.82,0,0,0,11.76-2q36.49-27.84,73.07-55.54a11.54,11.54,0,0,0,1.63-1.41,4.25,4.25,0,0,0,.16-5.59,4.19,4.19,0,0,0-5.28-1.22,18,18,0,0,0-2,1.21q-31.62,20-63.25,40c-4.26,2.7-7.31,2.56-11.36-.5-3.66-2.77-7.3-5.56-11-8.32-2.61-2-5-4.69-7.93-5.67s-6.6-.32-9.94-.35c-1.77,0-3.54,0-5.31,0-2.38-.09-3.75-1.38-3.72-3.41s1.35-3.17,3.63-3.3c.52,0,1,0,1.57,0Zm-5.37,6.85-.14.4c3.8,2.88,7.62,5.73,11.37,8.67a2.48,2.48,0,0,0,3.34.12c4.28-2.78,8.62-5.46,12.92-8.2a15.32,15.32,0,0,0,1.22-1Z"/><path class="e609abc2-0e67-4d68-b408-97731b419eb7" d="M136.2,114.36l-4.44,4.34c-2.76,2.7-5.71,2.71-8.45,0-1.44-1.42-2.87-2.86-4.39-4.36-1.79.93-3.57,1.87-5.37,2.78-3.51,1.77-6.35.82-8.15-2.7a31.67,31.67,0,0,1-1.8-3.71c-.53-1.53-1.46-1.72-2.87-1.41a39.15,39.15,0,0,1-5,.8A5,5,0,0,1,90,105.89a49.74,49.74,0,0,1-.82-5.43,1.76,1.76,0,0,0-1.86-1.78c-1.75-.19-3.51-.42-5.24-.78a5.18,5.18,0,0,1-4.31-6c.2-1.62.46-3.24.81-4.83.29-1.33.12-2.22-1.34-2.73a33.2,33.2,0,0,1-3.7-1.8c-3.63-1.84-4.57-4.68-2.74-8.28.89-1.75,1.82-3.48,2.78-5.31-1.51-1.48-3-2.93-4.47-4.42-2.61-2.66-2.59-5.62,0-8.32,1.41-1.47,2.79-3,4.35-4.63-.74-1.42-1.62-3.08-2.48-4.75-2.07-4-1.19-6.73,2.75-8.71a32.74,32.74,0,0,1,3.53-1.71c1.44-.51,1.62-1.41,1.34-2.73a50.93,50.93,0,0,1-.84-5,5.2,5.2,0,0,1,4.33-5.85c1.8-.34,3.61-.62,5.43-.79a1.53,1.53,0,0,0,1.62-1.55c.21-1.76.42-3.51.77-5.25a5.25,5.25,0,0,1,6.2-4.6c1.82.19,3.61.67,5.43.81a2.24,2.24,0,0,0,1.74-.88c.88-1.45,1.51-3,2.3-4.55,1.67-3.18,4.51-4.11,7.77-2.52,1.87.91,3.71,1.92,5.67,2.94,1.4-1.42,2.76-2.82,4.14-4.2,2.91-2.91,6-2.87,8.89.07,1.34,1.34,2.56,3.48,4.09,3.73s3.37-1.38,5-2.24c3.93-2,6.68-1.12,8.67,2.87.82,1.63,1.63,3.27,2.51,5.05l5.6-1c4.27-.76,6.63.9,7.35,5.18a30.77,30.77,0,0,1,.57,3.88c.06,1.54.62,2.2,2.22,2.26a33.62,33.62,0,0,1,4.85.73,5.12,5.12,0,0,1,4.42,5.58,35.8,35.8,0,0,1-.9,5.81c-.27,1.17.13,1.64,1.1,2.07q2.34,1,4.57,2.27A5.29,5.29,0,0,1,184.53,46c-.76,1.59-1.72,3.1-2.4,4.72a2.28,2.28,0,0,0,.29,2c1.2,1.38,2.63,2.56,3.88,3.9a5.2,5.2,0,0,1,0,7.57,40.59,40.59,0,0,1-3.51,3.43c-1.06.9-1.36,1.69-.53,3a33.25,33.25,0,0,1,2.29,4.34,5.28,5.28,0,0,1-2.42,7.34c-.46.26-.93.48-1.4.72-4.6,2.31-4.6,2.31-3.7,7.44s-.78,7.2-5.82,7.91c-1.67.23-3.81.08-4.85,1.06s-.69,3.06-1,4.66c-.88,5.44-3,6.91-8.41,5.87-4.69-.9-4.69-.9-6.79,3.35-.32.64-.62,1.3-1,1.92a5.35,5.35,0,0,1-7.25,2.31C140.07,116.49,138.2,115.42,136.2,114.36Zm22.5-96.93-5.32.88c-3.48.59-5.42-.4-7-3.57l-2.42-4.89c-1.93,1-3.61,1.9-5.3,2.75-2.71,1.35-4.8,1-7-1.12l-4.11-4.07c-1.32,1.28-2.55,2.45-3.74,3.66-2.64,2.67-4.62,3-7.91,1.31l-4.79-2.49-2.35,4.71c-1.7,3.4-3.59,4.35-7.31,3.69-1.65-.29-3.31-.56-5-.83a5.66,5.66,0,0,0-.28.72c-.25,1.62-.47,3.24-.72,4.86-.47,3.14-2.06,4.75-5.2,5.25-1.86.3-3.73.57-5.71.87.3,1.87.55,3.6.84,5.33.6,3.52-.35,5.44-3.51,7-1.62.81-3.24,1.59-4.91,2.41l1.38,2.66c.46.87.94,1.73,1.37,2.61,1.37,2.74,1.06,4.77-1.08,7-1.37,1.39-2.78,2.73-4.19,4.1,1.41,1.43,2.69,2.74,4,4,2.4,2.41,2.73,4.41,1.19,7.43-.85,1.66-1.72,3.3-2.62,5,1.92,1,3.63,1.78,5.31,2.66,2.72,1.41,3.7,3.47,3.18,6.48-.32,1.84-.62,3.69-.94,5.64,1.85.29,3.52.56,5.2.8,3.78.55,5.27,2,5.76,5.78.23,1.72.54,3.43.82,5.18,2-.34,3.76-.63,5.5-.94,3.14-.55,5.18.44,6.63,3.26.86,1.68,1.68,3.39,2.6,5.23,1.75-.91,3.41-1.8,5.09-2.65,2.92-1.49,5-1.18,7.27,1.14,1.33,1.34,2.59,2.75,3.78,4,1.57-1.47,2.93-2.69,4.23-4,2.39-2.35,4.44-2.69,7.45-1.15,1.61.83,3.22,1.69,5,2.61.83-1.67,1.6-3.24,2.39-4.81,1.66-3.32,3.54-4.25,7.15-3.6,1.71.3,3.43.55,5.22.84.19-1.1.35-2,.49-2.9s.27-1.94.43-2.91c.52-3.12,2.16-4.65,5.34-5.07,1.79-.24,3.58-.55,5.48-.85-.34-2.14-.71-4.07-.93-6-.36-3.09.6-4.77,3.38-6.18L178,76.73c-.91-1.71-1.7-3.21-2.48-4.71-1.73-3.34-1.43-5.31,1.22-7.92l3.91-3.82c-.92-.85-1.74-1.6-2.54-2.37-4.54-4.43-4.68-5.32-1.77-10.85.53-1,1-2,1.61-3.13l-4.45-2.23c-3.75-1.87-4.64-3.63-3.9-7.72.28-1.58.53-3.16.76-4.61-.31-.21-.36-.27-.42-.28l-5.44-.83a5.34,5.34,0,0,1-4.89-4.84C159.32,21.5,159,19.57,158.7,17.43Z"/><path class="e609abc2-0e67-4d68-b408-97731b419eb7" d="M87.31,60.35A40.3,40.3,0,0,1,126,20.07a12.5,12.5,0,0,1,1.37,0,3.46,3.46,0,0,1,3.55,3.44,3.34,3.34,0,0,1-3.51,3.23,35.49,35.49,0,0,0-14.6,3.47,33.59,33.59,0,1,0,29.91.2c-.29-.15-.59-.29-.88-.45-1.95-1.08-2.64-2.83-1.8-4.56S142.77,23,144.87,24a39.54,39.54,0,0,1,15,12.36c18,24.34,3.57,59.27-26.38,63.77A40.31,40.31,0,0,1,87.31,60.35Z"/><path class="e609abc2-0e67-4d68-b408-97731b419eb7" d="M154.37,60.29a26.85,26.85,0,1,1-26.94-26.83A26.91,26.91,0,0,1,154.37,60.29Zm-6.74.1a20.12,20.12,0,1,0-20.16,20.09A20.17,20.17,0,0,0,147.63,60.39Z"/><path class="e609abc2-0e67-4d68-b408-97731b419eb7" d="M124.32,62.31c2.43-2.49,4.7-4.84,7-7.15,1.75-1.75,3.74-1.92,5.18-.53s1.4,3.4-.36,5.18Q131.59,64.42,127,69c-2,2-3.62,1.93-5.62,0-.85-.82-1.68-1.65-2.5-2.5-1.62-1.69-1.77-3.63-.42-5s3.18-1.35,4.91.06C123.61,61.69,123.85,61.9,124.32,62.31Z"/></g></g></svg>