<svg xmlns="http://www.w3.org/2000/svg" viewBox="0 0 153.42 153.42"><defs><style>.e440c717-0b5e-40df-b153-4aa07fb31e6a{fill:#fff;}</style></defs><g id="ad98f1b2-b61f-40c9-ae12-a16f0115ade5" data-name="Capa 2"><g id="afbd0b30-7f17-4f4a-ab52-b4070f0bb03f" data-name="TYPO"><path class="e440c717-0b5e-40df-b153-4aa07fb31e6a" d="M17.43,0H136q9.27,0,14.71,8.17a19.81,19.81,0,0,1,2.73,10.35V134.89a18.27,18.27,0,0,1-7.63,15.48,16.4,16.4,0,0,1-9.81,3H17.43q-9.25,0-14.71-8.18A19.89,19.89,0,0,1,0,134.89V18.52A18.24,18.24,0,0,1,7.63,3.05,16.39,16.39,0,0,1,17.43,0ZM35.08,54.48v48.27q0,5.77,1.86,8.83A13.87,13.87,0,0,0,40,115.72a16,16,0,0,0,11.33,4.46h50.89a16.07,16.07,0,0,0,11.65-4.79q4.59-4.58,4.58-12.1V53.83a17,17,0,0,0-2.94-10.25A15,15,0,0,0,110.27,39a14.89,14.89,0,0,0-7.85-2.18H51.1a15.79,15.79,0,0,0-12.42,6,15.62,15.62,0,0,0-3.27,6.87A23.88,23.88,0,0,0,35.08,54.48ZM55.46,70a.1.1,0,0,1,.11.11,23,23,0,0,0-1.63,8.5q0,9.7,7.62,17,7,5.77,14.71,5.77h1q7.64,0,14.39-5.55a23.11,23.11,0,0,0,8-16.89v-.66A23.84,23.84,0,0,0,98,70h12.31a.1.1,0,0,1,.11.11v34.32q0,3.83-3.82,6.54a9.25,9.25,0,0,1-5.23,1.2h-49q-3.81,0-5.56-1.42c-.21,0-.87-.58-2-1.74a7.79,7.79,0,0,1-1.63-4.79V70.06l.11-.11Zm20.92-6.1h.76q5.89,0,10.68,5a14.62,14.62,0,0,1-11.11,24.3A14.58,14.58,0,0,1,65.59,88a14.7,14.7,0,0,1,.66-19.72A14.21,14.21,0,0,1,76.38,63.85Zm32.36-17.43.11.11V60.47a.1.1,0,0,1-.11.11H107q-3.93,0-12.31.11V46.53h.11Q97.41,46.53,108.74,46.42Z"/></g></g></svg>