<svg xmlns="http://www.w3.org/2000/svg" viewBox="0 0 153.42 153.42"><defs><style>.b94c4f0a-72d3-41b8-bf01-192533b01be4{fill:#fff;}</style></defs><g id="fa1ab748-277f-4c51-8d65-8699ec574657" data-name="Capa 2"><g id="a0e9ba2c-0e73-492b-bc48-24c8fe6cea7f" data-name="TYPO"><path class="b94c4f0a-72d3-41b8-bf01-192533b01be4" d="M17.43,0H136q9.27,0,14.71,8.17a19.81,19.81,0,0,1,2.73,10.35V134.89a18.27,18.27,0,0,1-7.63,15.48,16.4,16.4,0,0,1-9.81,3H17.43q-9.25,0-14.71-8.18A19.89,19.89,0,0,1,0,134.89V18.52A18.24,18.24,0,0,1,7.63,3.05,16.39,16.39,0,0,1,17.43,0ZM32.69,41.3a11.05,11.05,0,0,0,11.11,11,10.74,10.74,0,0,0,8.61-4.25,11.11,11.11,0,0,0,2.29-6.86A10.93,10.93,0,0,0,49.79,32a11.81,11.81,0,0,0-6.1-1.74,11.05,11.05,0,0,0-11,11Zm1.52,19.39v61.13H53.28V60.69Zm49.36,8.39h-.11a.1.1,0,0,1-.11-.11V60.69H65.16v61.13h19V93.38q0-8.07,1.2-10.9,2.39-6.65,9.91-6.64H96a8.14,8.14,0,0,1,8.07,5.34,13.56,13.56,0,0,1,1,3.92,65,65,0,0,1,.33,9v27.68h19.06V87.71q0-15.57-5.44-22-5.35-6.64-17.55-6.64a21.26,21.26,0,0,0-13.62,4.79,21,21,0,0,0-2.94,3.05C84.37,67.7,83.94,68.43,83.57,69.08Z"/></g></g></svg>