<svg xmlns="http://www.w3.org/2000/svg" viewBox="0 0 160 160">

<g id="ba5f87c7-eb10-41e5-a55d-ed4fe4a1fa22" data-name="Capa 2">
<g id="ba35e177-9f6d-4f07-a9e9-a0de0a952ded" data-name="Capa 1">
<path class="e3f4fea8-50bf-4324-806f-efc0a9e7f602" d="M1.05,77.77a.68.68,0,0,1,.35.16,1.68,1.68,0,0,0,.52.3,9.67,9.67,0,0,0,2.22.1A16.84,16.84,0,0,0,6,78.18c.69-.09,1.09-.14,1.19-.14a.47.47,0,0,1,.32.13.43.43,0,0,1,.16.28c0,.06-.06.12-.17.19a.81.81,0,0,1-.41.11l-3,0L2,79.07c-.3.42-.58.64-.82.64a1.16,1.16,0,0,1-.77-.28A.8.8,0,0,1,0,78.81a1,1,0,0,1,.34-.7A1.05,1.05,0,0,1,1.05,77.77ZM1.28,75c.91,0,1.38.3,1.4.93.68.17,1.53.4,2.55.72a6.09,6.09,0,0,0,1.35.31l.13,0h.15a2.1,2.1,0,0,1,.61,0c.14.06.21.2.21.43s-.09.29-.28.29c.07,0-.72-.16-2.35-.49-.58-.12-1.19-.26-1.83-.44a5.16,5.16,0,0,0-.8-.18,1.16,1.16,0,0,0-.41.16,1.56,1.56,0,0,1-.46.16.9.9,0,0,1-1-1Q.52,75,1.28,75ZM7.5,79.5c.18,0,.27.12.27.37s-.11.29-.35.37l-1.18.24A17.66,17.66,0,0,0,4.05,81a1.68,1.68,0,0,0-.41.22,1.39,1.39,0,0,1-.31.19L3,81.49c-.12,0-.21.12-.28.29a6,6,0,0,1-.28.67.57.57,0,0,1-.49.18A1.43,1.43,0,0,1,1,82.37a.75.75,0,0,1-.37-.6,1.11,1.11,0,0,1,.23-.72.68.68,0,0,1,.54-.32.58.58,0,0,1,.24.11A1.33,1.33,0,0,0,2,81Q7.21,79.5,7.5,79.5ZM3.39,72.58a1.05,1.05,0,0,1,.66.19.66.66,0,0,1,.26.52,1.14,1.14,0,0,1,0,.26,1.21,1.21,0,0,0,0,.23c0,.2.57.5,1.69.9s1.69.68,1.7.84-.09.21-.28.25a8.22,8.22,0,0,1-1.89-.51,7.93,7.93,0,0,1-1.14-.56,2.28,2.28,0,0,0-.55-.27,1.05,1.05,0,0,0-.41.13A1,1,0,0,1,3,74.7c-.36,0-.55-.38-.56-1.15a.85.85,0,0,1,.31-.65A1,1,0,0,1,3.39,72.58Zm4.1,8.76c.21,0,.31.08.31.25s-.17.32-.51.42l-.9.24a8.24,8.24,0,0,0-1.14.83c-.22.18-.33.3-.32.34a1.11,1.11,0,0,0,.06.27,2.2,2.2,0,0,1,.07.33c0,.15-.11.3-.34.46a1.24,1.24,0,0,1-.69.25,1,1,0,0,1-.74-.3A1.11,1.11,0,0,1,3,83.67c0-.31.13-.46.38-.46H3.5a.3.3,0,0,0,.12,0,1.81,1.81,0,0,0,.71-.32l1.25-.8A4.38,4.38,0,0,1,7.49,81.34Zm.73-6.83a1.94,1.94,0,0,1,.65.1,1.22,1.22,0,0,1,.43.2,7.54,7.54,0,0,1,.11,1.72c0,.07,0,.21,0,.44a5.19,5.19,0,0,0,0,.54c0,.32,0,1,.07,1.93s.07,1.78.08,2.44c0,.5-.19.75-.6.76a.68.68,0,0,1-.61-.23,1.69,1.69,0,0,1-.1-.71v-.15s0-.21,0-.66,0-1.1,0-1.71c0-.87,0-1.8,0-2.78,0-.05-.07-.47-.19-1.28L8,74.66A.19.19,0,0,1,8.22,74.51Zm3,2.39a.83.83,0,0,1,.68.38,1.45,1.45,0,0,1,.31.91A2.2,2.2,0,0,1,12,79.3a.66.66,0,0,1-.57.4c-.23,0-.46-.15-.69-.46a1.48,1.48,0,0,1-.36-.89,1.89,1.89,0,0,1,.25-1A.76.76,0,0,1,11.19,76.9Z"/><path class="e3f4fea8-50bf-4324-806f-efc0a9e7f602" d="M4.16,56.39c.12-.39.22-.74.3-1.06s.17-.74.29-1.27l.27,0,.05.85a.22.22,0,0,0,.18.21l1,.27,5.12,1.29,1.26.3a.21.21,0,0,0,.24-.13l.42-.69.28,0q-.24.83-.42,1.59c-.13.5-.25,1-.35,1.48l-.28,0,0-.79a.21.21,0,0,0-.18-.21L11.1,58,5.63,56.59l6.62,5-.06.48L3.94,63.33,9.41,64.7c.49.13.91.23,1.24.3a.23.23,0,0,0,.27-.1l.39-.66.28.06c-.14.5-.25.91-.34,1.25l-.31,1.31-.27,0,0-.84a.21.21,0,0,0-.15-.21q-.51-.15-1.26-.33L4.11,64.15,3.06,63.9a.23.23,0,0,0-.26.1l-.44.72-.27-.06c.15-.53.26-1,.34-1.28s.18-.74.26-1.13l7.66-1.2Z"/><path class="e3f4fea8-50bf-4324-806f-efc0a9e7f602" d="M9.26,43.21l8.41.95a1.87,1.87,0,0,0,.68,0,.81.81,0,0,0,.38-.23l.43-.47.26.11L18.7,45l-.76,1.58-.26-.1.11-.64a.46.46,0,0,0,0-.21s-.06-.09-.13-.12a1,1,0,0,0-.33-.09l-.59-.08-1.84-.23L13.5,47.9l1.25,1.38.43.45a.81.81,0,0,0,.27.22.18.18,0,0,0,.17,0,.53.53,0,0,0,.17-.12l.43-.47.26.12c-.28.55-.51,1-.68,1.35s-.36.74-.57,1.18l-.26-.1.11-.68a.61.61,0,0,0-.06-.43,2.59,2.59,0,0,0-.33-.46l-5.64-6.5Zm3.82,4.21L14.27,45l-3.78-.45Z"/><path class="e3f4fea8-50bf-4324-806f-efc0a9e7f602" d="M21.8,36.5l.56.42.46.33a.23.23,0,0,0,.3,0l.61-.45L24,37c-.33.4-.64.81-.95,1.22s-.64.85-1,1.3l-.24-.15.29-.78a.24.24,0,0,0-.05-.27L21.6,38,21,37.51l-4.21-3.18L16.34,34,16,33.69a.23.23,0,0,0-.27,0l-.69.49L14.76,34c.35-.43.69-.86,1-1.29.07-.08.14-.19.24-.32l.33-.49.35-.48.22-.31a3.72,3.72,0,0,1,1.8-1.45,1.88,1.88,0,0,1,1.75.38,2.38,2.38,0,0,1,.95,1.36,3.31,3.31,0,0,1-.21,1.81c.5,0,1,.07,1.42.12l1.25.13c.37,0,.71.06,1,.07a4.5,4.5,0,0,0,.75,0l.28-.06a1.12,1.12,0,0,0,.25-.11,1.5,1.5,0,0,0,.23-.15l.24-.18.24.15a6.13,6.13,0,0,1-.43.67l-.3.36a1.56,1.56,0,0,1-.25.26,1.92,1.92,0,0,1-.26.17,1.16,1.16,0,0,1-.28.1,2.31,2.31,0,0,1-.78.08l-1-.09-1.17-.16c-.41,0-.82-.1-1.23-.13h-.3a.64.64,0,0,0-.2,0,.87.87,0,0,0-.18.11l-.19.21-.28.36Zm-2.19-1.66c.17-.2.32-.39.46-.57a2.39,2.39,0,0,0,.61-1.61,1.93,1.93,0,0,0-.88-1.32,1.85,1.85,0,0,0-1.45-.47,2.25,2.25,0,0,0-1.31,1l-.23.31-.24.39Z"/><path class="e3f4fea8-50bf-4324-806f-efc0a9e7f602" d="M30.44,26.67l.49.51.41.41c.08.08.18.08.32,0l.68-.34.21.19c-.41.38-.81.75-1.18,1.11s-.76.74-1.14,1.13L30,29.5l.41-.73a.22.22,0,0,0,0-.27l-.4-.43-.49-.51-3.67-3.8-.42-.42L25.09,23a.2.2,0,0,0-.26-.05l-.76.37-.2-.19c.41-.37.8-.74,1.18-1.1s.75-.74,1.14-1.14l.21.18-.41.74a.2.2,0,0,0,0,.26l.34.36c.12.14.25.28.4.43Z"/><path class="e3f4fea8-50bf-4324-806f-efc0a9e7f602" d="M33.94,16.82l3,4.33.73,1.05a.23.23,0,0,0,.26.09l.77-.25.17.23L37.74,23l-1.1.78-.18-.22.53-.65a.23.23,0,0,0,0-.27l-.73-1.07-3-4.35c-.25-.36-.45-.65-.62-.88a.23.23,0,0,0-.26-.1l-.81.25-.17-.22,1.11-.73a5.46,5.46,0,0,0,.48-.36l8.37,2.53-2.84-4.13c-.24-.35-.45-.64-.63-.89a.21.21,0,0,0-.25-.07l-.76.25-.18-.24c.47-.3.84-.54,1.12-.74s.65-.45,1.09-.77l.18.21-.53.68a.21.21,0,0,0,0,.27l.6.89,4.12,6-.42.35Z"/><path class="e3f4fea8-50bf-4324-806f-efc0a9e7f602" d="M46.68,7.19l1.45-.63C49,6.17,50,5.75,50.94,5.3l.06,0,.46,2-.22.14-1-1.21-2.76,1.2,1.43,3.28.55-.24,1.37-.61A.22.22,0,0,0,51,9.64l-.14-.89.31-.16c.24.57.41,1,.53,1.25s.29.66.54,1.2l-.31.17-.57-.72a.2.2,0,0,0-.25-.08q-.78.31-1.41.6l-.54.23,1,2.17c.19.44.39.88.58,1.3l2.86-1.25.07-1.83.25-.17.77,2.14,0,.06c-1,.43-2,.84-2.86,1.22l-1.42.62c-.48.21-1,.43-1.47.67l-.13-.25.63-.54a.21.21,0,0,0,.08-.26c-.06-.16-.14-.34-.22-.53s-.18-.42-.28-.66L46.84,9.1c-.09-.21-.17-.39-.25-.55l-.2-.44A.22.22,0,0,0,46.16,8l-.84.09-.12-.25C45.72,7.6,46.21,7.4,46.68,7.19Z"/><path class="e3f4fea8-50bf-4324-806f-efc0a9e7f602" d="M70.63.36l3.8,7.56a2.65,2.65,0,0,0,.37.57.79.79,0,0,0,.4.19l.63.11,0,.28c-.57,0-1.09.1-1.57.16s-1.07.13-1.74.23l-.06-.28.59-.25a.56.56,0,0,0,.18-.12.25.25,0,0,0,0-.18.91.91,0,0,0-.11-.33c-.06-.14-.14-.32-.25-.54L72.14,6.1,69,6.47l-.47,1.8c-.07.26-.11.46-.15.6a1.28,1.28,0,0,0,0,.35.27.27,0,0,0,.08.16.66.66,0,0,0,.2.07l.62.1,0,.29-1.5.16c-.39,0-.82.1-1.3.17l-.06-.27.62-.28a.69.69,0,0,0,.34-.28,3.35,3.35,0,0,0,.2-.54L70,.53ZM69.19,5.85l2.66-.31L70.17,2.13Z"/><path class="e3f4fea8-50bf-4324-806f-efc0a9e7f602" d="M85.73.81A4.16,4.16,0,0,0,84.49.52,2.09,2.09,0,0,0,83.1.85,1.42,1.42,0,0,0,82.52,2a1.53,1.53,0,0,0,.14.75,2,2,0,0,0,.45.59,3.7,3.7,0,0,0,.66.47l.77.41.85.46a4,4,0,0,1,.73.56,2.07,2.07,0,0,1,.66,1.69,2.25,2.25,0,0,1-1.12,1.92A4.59,4.59,0,0,1,83,9.37a8.58,8.58,0,0,1-2.26-.48l0-.06.44-2.19.3,0,.35,1.87a3.81,3.81,0,0,0,1.39.36,2.41,2.41,0,0,0,1.54-.35,1.48,1.48,0,0,0,.61-1.19,1.49,1.49,0,0,0-.14-.74A1.62,1.62,0,0,0,84.75,6a4,4,0,0,0-.64-.45l-.76-.41c-.3-.15-.59-.3-.86-.47a3.94,3.94,0,0,1-.75-.58,2.16,2.16,0,0,1-.51-.77,2.41,2.41,0,0,1-.15-1A2,2,0,0,1,82.17.52,4.33,4.33,0,0,1,84.64,0a10.64,10.64,0,0,1,2.14.36l0,0-.5,2-.26,0Z"/><path class="e3f4fea8-50bf-4324-806f-efc0a9e7f602" d="M98.09,2.8a4.12,4.12,0,0,0-1.18-.49,2.09,2.09,0,0,0-1.42.11,1.39,1.39,0,0,0-.75,1,1.5,1.5,0,0,0,0,.76,1.87,1.87,0,0,0,.35.65,3.92,3.92,0,0,0,.58.57c.22.18.45.36.69.53s.52.39.76.6a3.62,3.62,0,0,1,.64.66,2.19,2.19,0,0,1,.38.8,2,2,0,0,1,0,1,2.23,2.23,0,0,1-1.42,1.71,4.57,4.57,0,0,1-2.7.11A8.41,8.41,0,0,1,91.87,10l0-.06.79-2.09.3,0,0,1.9a3.68,3.68,0,0,0,1.32.57,2.39,2.39,0,0,0,1.57-.09,1.44,1.44,0,0,0,.79-1.08,1.46,1.46,0,0,0,0-.75,1.76,1.76,0,0,0-.34-.63,3.74,3.74,0,0,0-.57-.55l-.68-.53q-.4-.28-.78-.6a4.16,4.16,0,0,1-.64-.69,2.29,2.29,0,0,1-.38-.84,2.33,2.33,0,0,1,0-1,2,2,0,0,1,1.36-1.56,4.33,4.33,0,0,1,2.52-.11,10.15,10.15,0,0,1,2,.7l0,.06-.81,1.9h-.27Z"/><path class="e3f4fea8-50bf-4324-806f-efc0a9e7f602" d="M105.94,4.42c.51.24,1,.46,1.48.66l1.49.61-.08.26L108,5.86a.19.19,0,0,0-.23.12q-.11.21-.21.45l-.23.54-1.39,3.28a4.11,4.11,0,0,0-.46,2.61,2.3,2.3,0,0,0,1.47,1.4,2.33,2.33,0,0,0,2.07.07,3.94,3.94,0,0,0,1.52-2L112,8.94c.08-.2.16-.38.23-.54l.17-.47a.21.21,0,0,0-.07-.25l-.62-.5.11-.28,1.29.58,1.28.51-.08.27-.86-.09a.22.22,0,0,0-.23.14l-.19.44-.24.55-1.3,3.08a4.8,4.8,0,0,1-2,2.56,3.37,3.37,0,0,1-2.91-.13,3.57,3.57,0,0,1-2.13-1.9,4,4,0,0,1,.32-3l1.45-3.44.24-.55q.09-.25.18-.45a.23.23,0,0,0-.06-.26l-.65-.55Z"/><path class="e3f4fea8-50bf-4324-806f-efc0a9e7f602" d="M118.37,18.6l-.39.59-.31.47a.25.25,0,0,0,0,.31l.48.58-.14.24-1.27-.88L115.39,19l.14-.25.79.25a.21.21,0,0,0,.26-.07l.34-.47c.12-.18.25-.38.4-.59l3-4.37.33-.5c.1-.15.19-.28.26-.4a.22.22,0,0,0,0-.27l-.53-.66.15-.24,1.34.94.34.21.5.32.5.31.32.21A3.72,3.72,0,0,1,125,15.16a1.89,1.89,0,0,1-.29,1.77,2.32,2.32,0,0,1-1.31,1,3.24,3.24,0,0,1-1.82-.12c0,.5,0,1,0,1.43s0,.87-.06,1.25,0,.72,0,1a3.88,3.88,0,0,0,.06.74,1.15,1.15,0,0,0,.08.28.88.88,0,0,0,.11.24,1.77,1.77,0,0,0,.16.22l.2.23-.14.25a6.54,6.54,0,0,1-.69-.39l-.38-.28a2.18,2.18,0,0,1-.27-.24,1.44,1.44,0,0,1-.18-.25,1.11,1.11,0,0,1-.12-.27,2.48,2.48,0,0,1-.11-.78q0-.47,0-1t.09-1.17c0-.42.06-.83.07-1.24a3,3,0,0,0,0-.3.59.59,0,0,0,0-.2.66.66,0,0,0-.12-.17L120,17l-.37-.27Zm1.54-2.27.6.43a2.4,2.4,0,0,0,1.64.53,2,2,0,0,0,1.27-.95,1.85,1.85,0,0,0,.39-1.48,2.23,2.23,0,0,0-1-1.25l-.33-.21-.39-.22Z"/><path class="e3f4fea8-50bf-4324-806f-efc0a9e7f602" d="M135.17,23l-3.56,7.68a2.17,2.17,0,0,0-.21.64.74.74,0,0,0,.1.44l.3.56-.18.2-1.11-1.13c-.35-.34-.77-.75-1.26-1.21l.18-.22.57.3a.49.49,0,0,0,.2.06.21.21,0,0,0,.16-.08,1,1,0,0,0,.19-.29c.07-.13.16-.31.26-.53l.8-1.67-2.23-2.21-1.71.75-.56.26a1,1,0,0,0-.29.18c0,.06-.08.11-.07.16a.41.41,0,0,0,.06.2l.31.55-.2.22-1.06-1.08c-.27-.27-.59-.58-.94-.9l.18-.23.61.32a.67.67,0,0,0,.42.09,2.43,2.43,0,0,0,.55-.18l7.95-3.29ZM130,25.27l1.9,1.89,1.63-3.44Z"/><path class="e3f4fea8-50bf-4324-806f-efc0a9e7f602" d="M141.57,33.48l-4.36,2.93q-.65.42-1.05.72a.22.22,0,0,0-.1.26l.25.77-.24.17c-.29-.46-.53-.83-.73-1.12s-.44-.65-.76-1.1l.21-.18.65.53a.23.23,0,0,0,.27,0l1.08-.71,4.38-2.94.89-.61a.23.23,0,0,0,.09-.26l-.24-.81.23-.17c.3.48.54.85.72,1.12s.22.32.35.48l-2.62,8.34,4.16-2.8.9-.61a.22.22,0,0,0,.07-.26l-.24-.76.24-.18c.29.48.54.85.73,1.14l.76,1.09-.21.18-.67-.54a.23.23,0,0,0-.27,0l-.91.59-6,4.06-.35-.42Z"/><path class="e3f4fea8-50bf-4324-806f-efc0a9e7f602" d="M151.13,52.24,151,52l1.4-1.1a6.44,6.44,0,0,0-.38-1.43,3,3,0,0,0-2-1.88,4.37,4.37,0,0,0-3,.27A4.23,4.23,0,0,0,144.61,50a3.71,3.71,0,0,0,.06,3.09,6.61,6.61,0,0,0,1.2,1.86l-.24.18a5,5,0,0,1-1.93-2.34,4.65,4.65,0,0,1-.13-3.63A5.06,5.06,0,0,1,150,46.63a5.28,5.28,0,0,1,2.63,2.93,10.17,10.17,0,0,1,.62,2.18l0,.07Z"/><path class="e3f4fea8-50bf-4324-806f-efc0a9e7f602" d="M155.8,60.19l.33,1.54c.21,1,.43,2,.68,3l0,.05-2.05,0-.1-.24,1.39-.71L155.37,61l-3.5.76.13.57c.09.44.2.94.33,1.48a.22.22,0,0,0,.21.18l.91,0,.08.34-1.32.27-1.29.3-.1-.34.82-.42a.19.19,0,0,0,.13-.23c-.11-.55-.21-1-.31-1.5l-.12-.57-2.32.5-1.39.32.66,3,1.79.42.11.28-2.24.34-.06,0c-.22-1.1-.44-2.11-.64-3l-.32-1.51c-.11-.52-.23-1-.36-1.58l.26-.08.41.73a.22.22,0,0,0,.23.13l.57-.11.7-.15L153.9,60l.58-.13.47-.11a.21.21,0,0,0,.18-.2l.08-.84.27-.07C155.58,59.16,155.69,59.69,155.8,60.19Z"/><path class="e3f4fea8-50bf-4324-806f-efc0a9e7f602" d="M147.78,80.23a.83.83,0,0,1-.67-.4,1.48,1.48,0,0,1-.28-.92,2.33,2.33,0,0,1,.24-1.1.7.7,0,0,1,.6-.39c.22,0,.44.17.67.48a1.62,1.62,0,0,1,.33.91,1.85,1.85,0,0,1-.29,1C148.19,80.1,148,80.24,147.78,80.23Zm2.89,2.49a2.18,2.18,0,0,1-.64-.12,1.08,1.08,0,0,1-.43-.22,7.93,7.93,0,0,1,0-1.72c0-.07,0-.21,0-.44s0-.4,0-.54c0-.32,0-1,0-1.94s0-1.78,0-2.43.22-.75.63-.74.51.09.59.25a1.74,1.74,0,0,1,.09.71v.14s0,.22,0,.67-.06,1.1-.09,1.7q-.06,1.3-.09,2.79s.05.47.15,1.28l.06.47A.18.18,0,0,1,150.67,82.72Zm.88-5c-.18,0-.26-.13-.26-.38s.13-.28.37-.35l1.19-.21a17.32,17.32,0,0,0,2.2-.46,1.39,1.39,0,0,0,.41-.2,1.24,1.24,0,0,1,.32-.18l.35-.06a.41.41,0,0,0,.28-.28q.26-.59.3-.66a.61.61,0,0,1,.5-.17,1.52,1.52,0,0,1,.91.29.79.79,0,0,1,.36.61,1.13,1.13,0,0,1-.26.71.68.68,0,0,1-.55.31.58.58,0,0,1-.24-.11,1.67,1.67,0,0,0-.35-.18Q151.85,77.75,151.55,77.75Zm6.07,4.74c-.91,0-1.36-.34-1.37-1-.67-.19-1.51-.46-2.52-.8a6.22,6.22,0,0,0-1.34-.36h-.28a2.22,2.22,0,0,1-.61-.06.44.44,0,0,1-.2-.43c0-.2.1-.29.29-.29-.06,0,.72.19,2.33.57.58.13,1.19.3,1.82.5a6.17,6.17,0,0,0,.8.21,1.37,1.37,0,0,0,.41-.15,1.17,1.17,0,0,1,.46-.14.9.9,0,0,1,1,1C158.4,82.2,158.13,82.49,157.62,82.49Zm-6-6.58c-.2,0-.3-.09-.3-.26s.18-.31.53-.4l.91-.21a9.33,9.33,0,0,0,1.15-.8c.23-.17.34-.28.34-.32a1.85,1.85,0,0,0-.05-.28,1.29,1.29,0,0,1-.06-.33c0-.15.12-.3.35-.45a1.25,1.25,0,0,1,.7-.22.94.94,0,0,1,.73.32,1.08,1.08,0,0,1,.28.77q0,.47-.39.45l-.13,0a.35.35,0,0,0-.12,0,1.8,1.8,0,0,0-.73.29l-1.28.77A4.24,4.24,0,0,1,151.62,75.91Zm6.32,3.78a.65.65,0,0,1-.34-.18,1.93,1.93,0,0,0-.51-.31,10.35,10.35,0,0,0-2.21-.17,16.13,16.13,0,0,0-1.9.09c-.69.07-1.09.1-1.2.1a.45.45,0,0,1-.31-.15.38.38,0,0,1-.15-.27c0-.06.06-.13.18-.19a.68.68,0,0,1,.41-.09l3,0,2.22-.2c.31-.41.59-.62.83-.61a1.13,1.13,0,0,1,.76.3.82.82,0,0,1,.35.63,1,1,0,0,1-.37.69A1,1,0,0,1,157.94,79.69Zm-2.5,5.11a1.07,1.07,0,0,1-.65-.21.66.66,0,0,1-.25-.53.84.84,0,0,1,.06-.26.85.85,0,0,0,.06-.23c0-.2-.56-.51-1.67-.95s-1.67-.73-1.66-.89.09-.21.28-.25a8.5,8.5,0,0,1,1.87.58,7.64,7.64,0,0,1,1.12.59,2.17,2.17,0,0,0,.55.29,1,1,0,0,0,.41-.12,1,1,0,0,1,.36-.12c.37,0,.54.39.53,1.17a.86.86,0,0,1-.33.64A1,1,0,0,1,155.44,84.8Z"/><path class="e3f4fea8-50bf-4324-806f-efc0a9e7f602" d="M4.2,93l-.7.13-.57.11c-.1,0-.16.11-.18.26l-.09.77-.27.06q-.14-.83-.27-1.59c-.1-.52-.2-1-.31-1.58L2.08,91l.38.75a.22.22,0,0,0,.23.13l.57-.09L4,91.7l5.19-1,.58-.11.48-.1a.21.21,0,0,0,.19-.19l.1-.84.27-.06c.09.55.17,1.08.27,1.59s.2,1,.31,1.58l-.27.08L10.71,92a.2.2,0,0,0-.23-.13L10,91.9l-.58.1Z"/><path class="e3f4fea8-50bf-4324-806f-efc0a9e7f602" d="M10.73,98l-5,1.63c-.48.16-.89.29-1.21.41a.21.21,0,0,0-.16.22l0,.81-.28.1c-.15-.52-.28-1-.39-1.28s-.25-.74-.44-1.27l.26-.11.48.68c.07.1.15.14.24.11l1.24-.39,5-1.64,1-.34a.23.23,0,0,0,.16-.22v-.85l.26-.1c.16.54.29,1,.39,1.27s.13.37.21.56l-4.8,7.31,4.77-1.56c.4-.13.75-.24,1-.35.1,0,.14-.1.14-.22l0-.8.28-.1c.16.53.29,1,.4,1.29s.25.75.44,1.26l-.26.11-.5-.7a.21.21,0,0,0-.26-.08l-1,.32-6.91,2.26-.22-.51Z"/><path class="e3f4fea8-50bf-4324-806f-efc0a9e7f602" d="M9.48,114.34c-.24-.48-.52-1-.82-1.57l.23-.15.7.73a.2.2,0,0,0,.25.06c.3-.15.68-.33,1.13-.57l5.78-3-1.05-2-1.81.28-.15-.21,2-1.22.07,0c.47,1,.93,1.87,1.37,2.74L18,111c.44.87.92,1.78,1.43,2.73l0,.06-2.22.67-.16-.21,1.39-1.18-1.05-2-5.78,3-1.11.58a.21.21,0,0,0-.1.25l.18,1-.24.14C10,115.33,9.72,114.8,9.48,114.34Z"/><path class="e3f4fea8-50bf-4324-806f-efc0a9e7f602" d="M21.77,117.34l.92,1.29c.56.79,1.16,1.62,1.8,2.5l0,.06-1.86.85-.19-.18,1-1.2-1.74-2.45-2.92,2.07.34.48L20,122a.24.24,0,0,0,.27.09l.85-.33.21.28-1.11.77-1.07.78-.22-.27.59-.71a.21.21,0,0,0,0-.26c-.32-.47-.62-.89-.88-1.26l-.34-.48L16.38,122c-.39.27-.78.55-1.15.83l1.8,2.55,1.81-.31.21.21-1.93,1.19h-.06l-1.78-2.55-.9-1.26c-.3-.43-.62-.86-1-1.3l.21-.19.66.52a.23.23,0,0,0,.27,0l.48-.33.58-.41,4.31-3.05.48-.35c.15-.1.27-.2.39-.29a.21.21,0,0,0,.09-.25l-.26-.81.22-.17C21.17,116.48,21.47,116.92,21.77,117.34Z"/><path class="e3f4fea8-50bf-4324-806f-efc0a9e7f602" d="M23.06,130.35l-.51.49-.4.39a.26.26,0,0,0-.07.3l.35.67-.19.21-1.06-1.14c-.36-.37-.73-.76-1.12-1.15l.18-.21.73.41a.2.2,0,0,0,.26,0l.43-.39.52-.49L26,125.79c.16-.15.31-.29.43-.42l.35-.34a.23.23,0,0,0,0-.26l-.37-.76.19-.2c.37.41.74.82,1.11,1.2.07.08.17.17.29.29l.42.41.42.41.26.27a3.75,3.75,0,0,1,1.15,2,1.9,1.9,0,0,1-.67,1.66,2.3,2.3,0,0,1-1.49.72,3.33,3.33,0,0,1-1.75-.5c-.11.49-.23,1-.35,1.38s-.23.84-.32,1.21-.18.7-.24,1a4,4,0,0,0-.11.74,1.37,1.37,0,0,0,0,.29,1.1,1.1,0,0,0,.06.26,1.74,1.74,0,0,0,.11.25l.14.27-.19.21a6.67,6.67,0,0,1-.58-.53c-.13-.13-.23-.25-.32-.35a1.65,1.65,0,0,1-.21-.3,1.13,1.13,0,0,1-.12-.28,1.36,1.36,0,0,1-.06-.29,2.46,2.46,0,0,1,.05-.79c.07-.3.15-.63.25-1l.34-1.13q.2-.6.33-1.2l.07-.29a.48.48,0,0,0,0-.21.52.52,0,0,0-.08-.19,1.91,1.91,0,0,0-.17-.22l-.3-.34Zm2-1.89c.17.2.34.38.49.54a2.4,2.4,0,0,0,1.49.87,1.94,1.94,0,0,0,1.44-.66,1.84,1.84,0,0,0,.7-1.36,2.25,2.25,0,0,0-.75-1.44,3.69,3.69,0,0,0-.28-.28l-.33-.3Z"/><path class="e3f4fea8-50bf-4324-806f-efc0a9e7f602" d="M34.06,133.6l-3.19,4.18c-.31.41-.56.75-.76,1a.2.2,0,0,0,0,.27l.47.65-.16.24-1.05-.82c-.27-.21-.63-.47-1.08-.8l.14-.24.79.29a.21.21,0,0,0,.26-.05l.79-1,3.2-4.2c.26-.35.48-.63.64-.87a.21.21,0,0,0,0-.27l-.48-.69.16-.23,1,.83a5.78,5.78,0,0,0,.48.33l.21,8.74,3-4c.26-.34.47-.63.65-.88a.21.21,0,0,0,0-.26l-.48-.64.17-.25,1.06.84,1.08.79-.15.24-.81-.3a.22.22,0,0,0-.26.08c-.18.22-.4.51-.66.85l-4.41,5.79-.47-.29Z"/><path class="e3f4fea8-50bf-4324-806f-efc0a9e7f602" d="M47.4,140l-1.18,8.39a2.24,2.24,0,0,0,0,.67.77.77,0,0,0,.22.39l.46.45-.12.25-1.39-.76c-.44-.23-.95-.5-1.56-.8l.11-.26.63.13h.22a.27.27,0,0,0,.13-.13A1.31,1.31,0,0,0,45,148c0-.15,0-.34.09-.59l.28-1.83-2.77-1.47-1.42,1.22-.46.41a1,1,0,0,0-.23.26.2.2,0,0,0,0,.18.53.53,0,0,0,.12.17l.45.44-.13.26-1.32-.72c-.35-.19-.73-.38-1.17-.6l.11-.26.67.13a.71.71,0,0,0,.44,0,2.59,2.59,0,0,0,.46-.33l6.66-5.45Zm-4.31,3.7L45.45,145l.56-3.76Z"/><path class="e3f4fea8-50bf-4324-806f-efc0a9e7f602" d="M53,152.52c-.5-.18-1.06-.38-1.67-.58l.07-.28,1,.06a.21.21,0,0,0,.23-.13c.12-.31.26-.7.44-1.19l2.19-6.11-2.16-.77L51.92,145l-.26,0,.62-2.25.06,0c1,.38,2,.73,2.88,1.06l1.63.59c.92.33,1.89.66,2.91,1l0,.07-1.16,2-.26-.05.21-1.81-2.16-.78-2.19,6.11c-.18.49-.31.88-.42,1.2a.2.2,0,0,0,.09.24l.81.6-.08.27C54,152.9,53.44,152.69,53,152.52Z"/><path class="e3f4fea8-50bf-4324-806f-efc0a9e7f602" d="M63.13,153.36c-.06.26-.11.49-.15.7s-.09.39-.12.56,0,.2.17.27l.67.38-.05.28-1.57-.38-1.58-.33,0-.28.83-.06a.22.22,0,0,0,.22-.16c0-.17.09-.35.14-.56l.16-.7,1.16-5.14.13-.59c0-.17.07-.33.1-.47a.22.22,0,0,0-.1-.25l-.74-.42.05-.28c.55.14,1.07.27,1.57.38s1,.23,1.58.33l0,.28-.84.06a.21.21,0,0,0-.21.16l-.11.48c0,.17-.09.37-.14.57Z"/><path class="e3f4fea8-50bf-4324-806f-efc0a9e7f602" d="M77.89,152.49a5,5,0,0,1-1.58,3.5,4.62,4.62,0,0,1-3.67,1.07,4.38,4.38,0,0,1-3.25-1.55,5.54,5.54,0,0,1,.68-6.95,4.72,4.72,0,0,1,3.65-1A4.53,4.53,0,0,1,77,149.06,4.59,4.59,0,0,1,77.89,152.49Zm-8-.58a5.34,5.34,0,0,0,.59,3.31,3,3,0,0,0,2.41,1.33,2.82,2.82,0,0,0,2.49-.82,5.32,5.32,0,0,0,1-3.14,5.23,5.23,0,0,0-.55-3.22,3,3,0,0,0-2.45-1.31,2.83,2.83,0,0,0-2.51.81A5.26,5.26,0,0,0,69.92,151.91Z"/><path class="e3f4fea8-50bf-4324-806f-efc0a9e7f602" d="M83.16,149.82l.46,5.24c0,.51.09.93.13,1.27a.21.21,0,0,0,.18.2l.79.16,0,.29c-.54,0-1,.07-1.33.1s-.78.07-1.34.14l0-.28.78-.31a.2.2,0,0,0,.15-.22c0-.35,0-.78-.1-1.29l-.46-5.25c0-.43-.08-.79-.11-1.08a.22.22,0,0,0-.18-.2l-.82-.18,0-.28,1.32-.09.59-.08,6,6.31-.45-5c0-.42-.07-.78-.1-1.09a.22.22,0,0,0-.19-.18l-.79-.15,0-.3,1.35-.09,1.32-.15.06.28-.8.32a.23.23,0,0,0-.13.24c0,.28,0,.64.08,1.07l.64,7.25-.54.1Z"/><path class="e3f4fea8-50bf-4324-806f-efc0a9e7f602" d="M97.34,145.56l4.78,7a2.37,2.37,0,0,0,.44.52.81.81,0,0,0,.43.13l.64,0,.08.26-1.53.38c-.48.12-1.05.27-1.69.46l-.1-.27.55-.33a.58.58,0,0,0,.16-.14.27.27,0,0,0,0-.18,1.1,1.1,0,0,0-.15-.32l-.33-.49-1-1.54-3,.78-.23,1.86c0,.26,0,.46-.06.61a1,1,0,0,0,0,.35.2.2,0,0,0,.11.14.48.48,0,0,0,.2.05l.63,0,.08.28-1.46.36c-.38.09-.8.21-1.26.34l-.1-.26.58-.36a.63.63,0,0,0,.29-.32,2.93,2.93,0,0,0,.13-.56l1.23-8.52Zm-.69,5.64,2.6-.67-2.13-3.15Z"/><path class="e3f4fea8-50bf-4324-806f-efc0a9e7f602" d="M106.56,144.52l2.06,4.87.57,1.31,2.91-1.24.1-1.91.25-.16.78,2.2,0,.06-2.88,1.2-1.5.63c-.49.21-1,.42-1.48.65l-.13-.25.64-.53a.21.21,0,0,0,.08-.25,5.6,5.6,0,0,0-.22-.54l-.27-.66L105.39,145c-.08-.21-.16-.39-.23-.55l-.2-.44a.22.22,0,0,0-.23-.14l-.84.08-.12-.26,1.5-.6,1.47-.65.13.24-.65.54a.2.2,0,0,0-.07.25c0,.14.14.35.25.62Z"/><path class="e3f4fea8-50bf-4324-806f-efc0a9e7f602" d="M124,135l-.19.18L122.42,134a6,6,0,0,0-1.31.69,3,3,0,0,0-1.38,2.36,4.36,4.36,0,0,0,.94,2.88,4.27,4.27,0,0,0,2.61,1.86,3.7,3.7,0,0,0,3-.76,6.69,6.69,0,0,0,1.54-1.59l.23.2a5,5,0,0,1-1.85,2.41,4.63,4.63,0,0,1-3.51.93,5.05,5.05,0,0,1-3.91-5.69,5.3,5.3,0,0,1,2.27-3.23,9.89,9.89,0,0,1,2-1.09l.07,0Z"/><path class="e3f4fea8-50bf-4324-806f-efc0a9e7f602" d="M126.63,129.68l1.14-1.1c.7-.67,1.43-1.39,2.2-2.15H130l1.13,1.71-.16.21-1.33-.8-2.17,2.09,2.48,2.57.43-.41q.5-.47,1.08-1.05a.23.23,0,0,0,0-.28l-.44-.79.24-.25.92,1,.93.94-.23.26-.79-.47a.2.2,0,0,0-.26,0q-.63.57-1.11,1.05l-.43.41,1.65,1.7,1,1,2.25-2.17-.57-1.74.17-.24,1.47,1.73V133c-.82.77-1.57,1.48-2.25,2.14L133,136.2c-.38.37-.76.74-1.15,1.14l-.21-.19.41-.73a.21.21,0,0,0,0-.26l-.4-.43-.49-.51-3.66-3.8L127,131l-.34-.34a.22.22,0,0,0-.27-.05l-.75.37-.21-.19C125.87,130.41,126.26,130,126.63,129.68Z"/><path class="e3f4fea8-50bf-4324-806f-efc0a9e7f602" d="M134.74,123.82l4.18,3.18,1,.76a.2.2,0,0,0,.27,0l.65-.47.24.16-.82,1c-.21.27-.47.63-.8,1.09l-.24-.15.29-.78a.22.22,0,0,0,0-.27l-1-.79-4.21-3.19c-.34-.27-.63-.48-.86-.65a.23.23,0,0,0-.27,0l-.69.49-.23-.16c.35-.43.62-.78.82-1a5.85,5.85,0,0,0,.34-.48l8.74-.23-4-3-.87-.65a.23.23,0,0,0-.26,0l-.64.48-.25-.17.84-1q.31-.42.78-1.08l.24.15-.29.8a.22.22,0,0,0,.08.26l.85.66,5.79,4.41-.29.46Z"/><path class="e3f4fea8-50bf-4324-806f-efc0a9e7f602" d="M148.92,115.53c-.26.47-.53,1-.82,1.57l-.26-.11.2-1a.19.19,0,0,0-.1-.24l-1.1-.61-5.73-3.06-1.08,2,1.25,1.33-.08.25-2.13-1,0-.07c.52-.93,1-1.83,1.47-2.69l.82-1.53c.46-.85.94-1.76,1.43-2.72h.07l1.82,1.44-.09.25-1.76-.47-1.08,2,5.72,3.07c.45.24.82.44,1.12.58a.2.2,0,0,0,.26,0l.7-.71.26.12C149.45,114.55,149.16,115.07,148.92,115.53Z"/><path class="e3f4fea8-50bf-4324-806f-efc0a9e7f602" d="M151.3,105.5l.66.23.53.18a.24.24,0,0,0,.3-.07l.45-.61.27.08c-.19.48-.37,1-.54,1.45s-.36,1-.53,1.53l-.27-.07,0-.84a.2.2,0,0,0-.13-.23l-.54-.21-.67-.24-5-1.78-.57-.2-.45-.15a.22.22,0,0,0-.26.07l-.51.68-.27-.09c.2-.52.4-1,.58-1.53l.12-.38.18-.57.18-.56.12-.35a3.7,3.7,0,0,1,1.28-1.93,1.9,1.9,0,0,1,1.79-.16,2.34,2.34,0,0,1,1.31,1,3.21,3.21,0,0,1,.34,1.79c.49-.12.95-.23,1.4-.32l1.22-.25,1-.23a3.43,3.43,0,0,0,.71-.24l.26-.14a1.12,1.12,0,0,0,.2-.18,1.63,1.63,0,0,0,.17-.2l.17-.26.28.08a7,7,0,0,1-.21.76c-.06.17-.12.32-.17.44a1.91,1.91,0,0,1-.17.32,2.51,2.51,0,0,1-.19.24,1.08,1.08,0,0,1-.24.18,2.36,2.36,0,0,1-.73.31c-.29.08-.62.15-1,.22l-1.16.2c-.41.07-.82.15-1.22.24l-.29.08a.51.51,0,0,0-.18.09.73.73,0,0,0-.14.16l-.11.25-.17.43Zm-2.59-.93c.1-.24.19-.47.27-.68a2.43,2.43,0,0,0,.1-1.72,1.93,1.93,0,0,0-1.23-1,1.85,1.85,0,0,0-1.53,0,2.26,2.26,0,0,0-1,1.32c0,.12-.08.24-.12.38s-.07.27-.11.43Z"/><path class="e3f4fea8-50bf-4324-806f-efc0a9e7f602" d="M147.43,93.81l.31-1.55c.19-1,.39-2,.58-3l.06,0,1.9.77v.26l-1.55.1-.6,3,3.51.7.12-.58c.09-.44.18-.93.28-1.48a.22.22,0,0,0-.12-.25l-.81-.4.05-.34,1.32.28,1.3.24,0,.35-.92.06c-.12,0-.19.06-.21.16-.12.55-.23,1-.32,1.5l-.11.57,2.32.47,1.4.26.61-3.06L155,90.67v-.3l2.19.59,0,.05c-.24,1.1-.45,2.12-.64,3l-.3,1.52c-.1.51-.2,1-.3,1.58l-.28,0-.08-.83a.22.22,0,0,0-.16-.21L155,96l-.7-.14-5.17-1-.59-.11-.47-.09a.22.22,0,0,0-.25.11l-.41.74-.27,0C147.21,94.84,147.33,94.32,147.43,93.81Z"/><path class="e3f4fea8-50bf-4324-806f-efc0a9e7f602" d="M60.23,40.07l.6-.29c.37-.17.76-.37,1.17-.57h0l.23.83-.09.07-.43-.5-1.14.55.65,1.36.23-.11.57-.28a.09.09,0,0,0,.05-.1L62,40.66l.13-.07c.1.24.18.41.24.52l.25.5-.13.07-.25-.29s-.07,0-.11,0l-.58.27-.23.11.44.9.26.54,1.19-.58v-.77l.1-.07.36.88v0l-1.18.56-.59.29-.61.3-.06-.1.26-.24a.11.11,0,0,0,0-.11c0-.07-.07-.14-.1-.22s-.09-.17-.13-.27l-1-2-.11-.23-.1-.18a.1.1,0,0,0-.1-.06l-.35.05-.05-.1Z"/><path class="e3f4fea8-50bf-4324-806f-efc0a9e7f602" d="M65.59,39.41a1.4,1.4,0,0,0-.34.08.76.76,0,0,0-.36.24.32.32,0,0,0,0,.31.33.33,0,0,0,.19.21,1.07,1.07,0,0,0,.42,0h.24a1.38,1.38,0,0,1,.62.09.57.57,0,0,1,.32.34.75.75,0,0,1-.07.67,1.27,1.27,0,0,1-.63.46,2.39,2.39,0,0,1-.86.14c0-.25-.06-.48-.1-.71l.09-.05.39.48a1.05,1.05,0,0,0,.4-.08.69.69,0,0,0,.34-.24.33.33,0,0,0,0-.33.43.43,0,0,0-.2-.22.74.74,0,0,0-.36-.05h-.31a1.14,1.14,0,0,1-.58-.1.68.68,0,0,1-.28-.36.7.7,0,0,1,.06-.63,1.13,1.13,0,0,1,.6-.44,2.1,2.1,0,0,1,.76-.15c0,.22,0,.44.09.67l-.09.05Z"/><path class="e3f4fea8-50bf-4324-806f-efc0a9e7f602" d="M68.41,38.61l.39,1.44a.63.63,0,0,0,.19.36.41.41,0,0,0,.34,0l.46-.18,0,.11a1.93,1.93,0,0,1-.75.46.59.59,0,0,1-.48,0,.6.6,0,0,1-.27-.42c-.1-.34-.24-.89-.44-1.63l-.39,0,0-.11.4-.15V37.8l.26-.15h0c0,.22.11.42.16.6l0,.1.8-.22.07.25Z"/><path class="e3f4fea8-50bf-4324-806f-efc0a9e7f602" d="M88.08,39.38h.12l-.22.86h0L86.81,40l-1-.18,0-.23.52-.22c.15-.06.28-.13.4-.19L87,39a1.06,1.06,0,0,0,.23-.17.74.74,0,0,0,.16-.2.85.85,0,0,0,.09-.22.5.5,0,0,0-.11-.43.67.67,0,0,0-.41-.23,1.32,1.32,0,0,0-.65,0l-.07-.2a1.88,1.88,0,0,1,1.07-.15,1.05,1.05,0,0,1,.6.31.62.62,0,0,1,.15.56.74.74,0,0,1-.16.36,1.43,1.43,0,0,1-.34.3,2.77,2.77,0,0,1-.49.26l-.65.26h0l1.34.26Z"/><path class="e3f4fea8-50bf-4324-806f-efc0a9e7f602" d="M92.33,40.07a1.37,1.37,0,0,1-.64.87,1.33,1.33,0,0,1-1,.09,1.29,1.29,0,0,1-.79-.6,1.51,1.51,0,0,1,.58-1.87,1.3,1.3,0,0,1,1-.08,1.28,1.28,0,0,1,.8.59A1.22,1.22,0,0,1,92.33,40.07Zm-2-.56a1.67,1.67,0,0,0-.06.87.62.62,0,0,0,.45.45.57.57,0,0,0,.59-.11,2,2,0,0,0,.47-1.62.63.63,0,0,0-.45-.43.6.6,0,0,0-.6.1A1.63,1.63,0,0,0,90.37,39.51Z"/><path class="e3f4fea8-50bf-4324-806f-efc0a9e7f602" d="M94,39.68l0-.11,1.09.23,0,0c-.14.29-.28.6-.4.91l-.25.62-.21.55a.1.1,0,0,0,0,.12l.36.26,0,.11L94,42.11l-.72-.28,0-.11.45.06a.09.09,0,0,0,.11-.05c0-.14.12-.29.18-.46l.17-.42c.14-.34.25-.65.35-.91Z"/><path class="e3f4fea8-50bf-4324-806f-efc0a9e7f602" d="M95.62,44a2.27,2.27,0,0,0,1.26,0,2.11,2.11,0,0,0,1.07-.7h0a1,1,0,0,1-.91,0,1.16,1.16,0,0,1-.62-.67,1.14,1.14,0,0,1,.07-.9,1.18,1.18,0,0,1,.73-.62,1.3,1.3,0,0,1,1,.09,1.21,1.21,0,0,1,.66.82,1.58,1.58,0,0,1-.15,1.15,2.14,2.14,0,0,1-1.27,1.11,2.88,2.88,0,0,1-1.87-.07Zm1.46-2.18a1.28,1.28,0,0,0-.16.8.68.68,0,0,0,.37.52.62.62,0,0,0,.56,0,.92.92,0,0,0,.44-.47,1.37,1.37,0,0,0,.15-.82.72.72,0,0,0-.36-.54.57.57,0,0,0-.54,0A.94.94,0,0,0,97.08,41.79Z"/><path class="e3f4fea8-50bf-4324-806f-efc0a9e7f602" d="M79.51,78.44h0S79.49,78.41,79.51,78.44Z"/><path class="e3f4fea8-50bf-4324-806f-efc0a9e7f602" d="M79.51,78.43h0S79.53,78.42,79.51,78.43Z"/><text/><path class="e3f4fea8-50bf-4324-806f-efc0a9e7f602" d="M141,79.37l-.37-.27a2.18,2.18,0,0,0-.31,1.45,2.9,2.9,0,0,0,.24.7l-.4,0a2.7,2.7,0,0,1-.19-.63,2.16,2.16,0,0,1,0-.44,2.41,2.41,0,0,1,.48-1.39,3.79,3.79,0,0,1-.2-.34h.4a2.05,2.05,0,0,0,.59.66l1.09.79,0,0,.38.28a2.28,2.28,0,0,0,.24-1.76h.36a2.56,2.56,0,0,1-.41,2.1,2.85,2.85,0,0,1,.36.84h-.37a2.14,2.14,0,0,0-.78-1.17l-1.09-.8Z"/><path class="e3f4fea8-50bf-4324-806f-efc0a9e7f602" d="M140.86,82.21l-.36-.29a2.17,2.17,0,0,0-.38,1.43,2.42,2.42,0,0,0,.2.71l-.39,0a2,2,0,0,1-.16-.64,1.62,1.62,0,0,1,0-.44,2.41,2.41,0,0,1,.55-1.37,4,4,0,0,1-.2-.35l.4,0a2.18,2.18,0,0,0,.57.68l1,.85,0,0,.36.29a2.13,2.13,0,0,0,.32-1.74h.36a2.5,2.5,0,0,1-.5,2.09,2.55,2.55,0,0,1,.31.85l-.36,0a2.2,2.2,0,0,0-.72-1.2l-1.05-.85Z"/><path class="e3f4fea8-50bf-4324-806f-efc0a9e7f602" d="M140.63,85l-.34-.3a2.14,2.14,0,0,0-.46,1.41,2.52,2.52,0,0,0,.17.72l-.4-.06a2.27,2.27,0,0,1-.12-.64,2.13,2.13,0,0,1,0-.44,2.49,2.49,0,0,1,.61-1.34,2.42,2.42,0,0,1-.18-.36l.39,0a2.38,2.38,0,0,0,.55.72l1,.89s0,0,0,0l.35.31a2.05,2.05,0,0,0,.39-1.73l.36,0a2.43,2.43,0,0,1-.59,2.06,2.61,2.61,0,0,1,.28.87l-.37,0a2.16,2.16,0,0,0-.66-1.23l-1-.9Z"/><path class="e3f4fea8-50bf-4324-806f-efc0a9e7f602" d="M140.27,87.86l-.34-.32a2.22,2.22,0,0,0-.51,1.39,2,2,0,0,0,.13.72l-.4-.07a2.37,2.37,0,0,1-.09-.65,3.13,3.13,0,0,1,0-.44,2.74,2.74,0,0,1,.67-1.31,2.09,2.09,0,0,1-.17-.37l.4.06a2.15,2.15,0,0,0,.51.73c.34.31.65.62,1,.94,0,0,0,0,0,0l.33.33a2.19,2.19,0,0,0,.43-.81,2,2,0,0,0,0-.9l.36,0a2.44,2.44,0,0,1-.67,2,2.84,2.84,0,0,1,.22.88l-.36-.07a2.13,2.13,0,0,0-.6-1.26l-1-.94Z"/><path class="e3f4fea8-50bf-4324-806f-efc0a9e7f602" d="M139.77,90.65l-.33-.33a2.34,2.34,0,0,0-.57,1.36,2.52,2.52,0,0,0,.1.73l-.39-.09a2,2,0,0,1-.06-.65,2.22,2.22,0,0,1,.06-.44A2.7,2.7,0,0,1,139.3,90a2,2,0,0,1-.15-.37l.4.07a2,2,0,0,0,.47.76c.32.32.64.65.94,1a.08.08,0,0,1,0,0l.32.34a2,2,0,0,0,.53-1.69l.36.06a2.37,2.37,0,0,1-.77,2,2.67,2.67,0,0,1,.19.89l-.37-.08a2.07,2.07,0,0,0-.53-1.29c-.3-.33-.6-.65-.92-1C139.79,90.67,139.78,90.66,139.77,90.65Z"/><path class="e3f4fea8-50bf-4324-806f-efc0a9e7f602" d="M139.14,93.42l-.31-.35a2.36,2.36,0,0,0-.63,1.34,2.21,2.21,0,0,0,.06.73l-.39-.11a2.35,2.35,0,0,1,0-.65,2,2,0,0,1,.08-.43,2.69,2.69,0,0,1,.77-1.25,2.4,2.4,0,0,1-.12-.38l.39.09a2.07,2.07,0,0,0,.43.78c.3.34.61.68.9,1l0,0,.3.36a2.11,2.11,0,0,0,.61-1.67l.36.09a2.45,2.45,0,0,1-.86,2,2.91,2.91,0,0,1,.14.89l-.36-.1a2.07,2.07,0,0,0-.47-1.3c-.28-.35-.57-.69-.88-1Z"/><path class="e3f4fea8-50bf-4324-806f-efc0a9e7f602" d="M138.38,96.16l-.29-.37a2.43,2.43,0,0,0-.69,1.31,2.29,2.29,0,0,0,0,.74l-.38-.13a2.36,2.36,0,0,1,0-.65,2.09,2.09,0,0,1,.11-.43,2.48,2.48,0,0,1,.82-1.21,2.5,2.5,0,0,1-.11-.39l.39.11a2,2,0,0,0,.4.8l.85,1.07s0,0,0,0l.28.37a2.17,2.17,0,0,0,.69-1.64l.35.1a2.48,2.48,0,0,1-.95,1.92,2.71,2.71,0,0,1,.1.9l-.36-.12a2.08,2.08,0,0,0-.4-1.32c-.26-.36-.56-.72-.84-1.07Z"/><path class="e3f4fea8-50bf-4324-806f-efc0a9e7f602" d="M137.5,98.86l-.28-.38a2.35,2.35,0,0,0-.74,1.28,2.24,2.24,0,0,0,0,.73l-.37-.14a2.09,2.09,0,0,1,0-.66,3.38,3.38,0,0,1,.13-.42,2.39,2.39,0,0,1,.87-1.17,1.69,1.69,0,0,1-.08-.39l.38.13a2,2,0,0,0,.35.81l.8,1.11a.08.08,0,0,1,0,0l.28.38a2.17,2.17,0,0,0,.75-1.6l.35.11a2.53,2.53,0,0,1-1,1.88,3,3,0,0,1,.05.9l-.35-.13a2.09,2.09,0,0,0-.34-1.34l-.79-1.11Z"/><path class="e3f4fea8-50bf-4324-806f-efc0a9e7f602" d="M136.49,101.51l-.25-.39a2.22,2.22,0,0,0-.8,1.25,2.25,2.25,0,0,0-.05.73l-.37-.16a2.36,2.36,0,0,1,.07-.65,2.1,2.1,0,0,1,.15-.42,2.36,2.36,0,0,1,.92-1.13,2.63,2.63,0,0,1-.06-.39l.37.14a2,2,0,0,0,.32.83l.74,1.14s0,0,0,0l.25.4a2.24,2.24,0,0,0,.84-1.57l.34.13a2.54,2.54,0,0,1-1.12,1.83,2.77,2.77,0,0,1,0,.91l-.34-.15a2.08,2.08,0,0,0-.28-1.36l-.74-1.15Z"/><path class="e3f4fea8-50bf-4324-806f-efc0a9e7f602" d="M135.36,104.12l-.23-.4a2.15,2.15,0,0,0-.85,1.2,2.29,2.29,0,0,0-.09.73l-.36-.18a2.37,2.37,0,0,1,.1-.64c0-.14.1-.28.16-.41a2.4,2.4,0,0,1,1-1.09,2.44,2.44,0,0,1,0-.39l.37.16a2,2,0,0,0,.28.84l.69,1.18a.06.06,0,0,1,0,0l.24.4a2.22,2.22,0,0,0,.91-1.52l.33.15a2.55,2.55,0,0,1-1.2,1.77,2.73,2.73,0,0,1,0,.9l-.34-.16a2,2,0,0,0-.22-1.37l-.68-1.18Z"/><path class="e3f4fea8-50bf-4324-806f-efc0a9e7f602" d="M134.11,106.67l-.21-.41a2.12,2.12,0,0,0-.91,1.17,2.53,2.53,0,0,0-.12.72l-.34-.2a2.08,2.08,0,0,1,.13-.64,2,2,0,0,1,.17-.4,2.35,2.35,0,0,1,1-1,2.6,2.6,0,0,1,0-.4l.36.18a2.1,2.1,0,0,0,.24.86l.63,1.2a.06.06,0,0,1,0,0l.22.42a2.24,2.24,0,0,0,1-1.48l.33.16a2.63,2.63,0,0,1-1.28,1.72,2.5,2.5,0,0,1-.08.9l-.32-.18a2,2,0,0,0-.16-1.38l-.63-1.21Z"/><path class="e3f4fea8-50bf-4324-806f-efc0a9e7f602" d="M132.75,109.16l-.2-.42a2.11,2.11,0,0,0-1,1.12,2.64,2.64,0,0,0-.15.72l-.34-.21a2.5,2.5,0,0,1,.16-.64,2.35,2.35,0,0,1,.19-.39,2.44,2.44,0,0,1,1.09-1,1.79,1.79,0,0,1,0-.4l.34.2a2,2,0,0,0,.2.86l.57,1.23a.08.08,0,0,1,0,0l.2.43a2.21,2.21,0,0,0,1.05-1.43l.32.18a2.54,2.54,0,0,1-1.36,1.65,2.5,2.5,0,0,1-.11.9l-.32-.2a1.94,1.94,0,0,0-.1-1.38l-.57-1.24S132.75,109.17,132.75,109.16Z"/><path class="e3f4fea8-50bf-4324-806f-efc0a9e7f602" d="M131.27,111.58l-.18-.43a2.13,2.13,0,0,0-1,1.08,3.09,3.09,0,0,0-.18.71l-.33-.22a2.85,2.85,0,0,1,.19-.63,1.79,1.79,0,0,1,.2-.39,2.44,2.44,0,0,1,1.14-.93,2.67,2.67,0,0,1,0-.4l.34.21a2,2,0,0,0,.16.87l.51,1.26a.06.06,0,0,1,0,0l.18.43a2.21,2.21,0,0,0,1.12-1.37l.31.19a2.63,2.63,0,0,1-1.44,1.59,2.29,2.29,0,0,1-.15.89l-.31-.21a2,2,0,0,0,0-1.39l-.51-1.26A.08.08,0,0,0,131.27,111.58Z"/><path class="e3f4fea8-50bf-4324-806f-efc0a9e7f602" d="M129.68,113.94l-.16-.44a2.13,2.13,0,0,0-1.06,1,3,3,0,0,0-.21.71l-.31-.25a2.52,2.52,0,0,1,.21-.62,2.36,2.36,0,0,1,.22-.38,2.39,2.39,0,0,1,1.18-.88,1.7,1.7,0,0,1,0-.39l.33.22a1.92,1.92,0,0,0,.12.88l.45,1.28a.06.06,0,0,1,0,0l.16.44a2.26,2.26,0,0,0,1.18-1.32l.3.21A2.58,2.58,0,0,1,130.6,116a2.48,2.48,0,0,1-.18.89l-.3-.22a2,2,0,0,0,0-1.4l-.45-1.28A0,0,0,0,0,129.68,113.94Z"/><path class="e3f4fea8-50bf-4324-806f-efc0a9e7f602" d="M128,116.21l-.13-.44a2.13,2.13,0,0,0-1.11,1,2.9,2.9,0,0,0-.24.7l-.3-.26a2.82,2.82,0,0,1,.23-.61,2,2,0,0,1,.24-.37,2.42,2.42,0,0,1,1.22-.82,1.83,1.83,0,0,1,0-.4l.31.25a2,2,0,0,0,.08.87l.39,1.3a.08.08,0,0,1,0,0l.13.45a2.21,2.21,0,0,0,1.25-1.26l.29.22a2.61,2.61,0,0,1-1.59,1.44,2.48,2.48,0,0,1-.22.88l-.29-.24a2.07,2.07,0,0,0,.09-1.39l-.4-1.3A.08.08,0,0,0,128,116.21Z"/><path class="e3f4fea8-50bf-4324-806f-efc0a9e7f602" d="M126.19,118.41l-.12-.45a2.12,2.12,0,0,0-1.15.93,2.42,2.42,0,0,0-.27.69l-.29-.27a2.49,2.49,0,0,1,.26-.61,2.22,2.22,0,0,1,.25-.35,2.46,2.46,0,0,1,1.26-.77,1.78,1.78,0,0,1,.07-.39l.3.26a2.19,2.19,0,0,0,0,.88l.34,1.31v0l.11.46a2.24,2.24,0,0,0,1.31-1.21l.28.24a2.6,2.6,0,0,1-1.65,1.36,2.45,2.45,0,0,1-.27.87l-.27-.25a2.14,2.14,0,0,0,.15-1.39l-.34-1.31Z"/><path class="e3f4fea8-50bf-4324-806f-efc0a9e7f602" d="M124.29,120.53l-.09-.46a2.12,2.12,0,0,0-1.2.87,2.43,2.43,0,0,0-.3.68l-.28-.28a2.34,2.34,0,0,1,.28-.6,1.88,1.88,0,0,1,.28-.34,2.38,2.38,0,0,1,1.29-.7,2.46,2.46,0,0,1,.09-.39l.29.27a2,2,0,0,0,0,.88l.27,1.32s0,0,0,0l.1.46a2.21,2.21,0,0,0,1.36-1.14l.27.25a2.65,2.65,0,0,1-1.72,1.29,2.85,2.85,0,0,1-.3.86l-.26-.27a2.19,2.19,0,0,0,.21-1.38l-.27-1.33A0,0,0,0,1,124.29,120.53Z"/><path class="e3f4fea8-50bf-4324-806f-efc0a9e7f602" d="M122.3,122.55l-.07-.46a2.11,2.11,0,0,0-1.24.81,2.2,2.2,0,0,0-.33.67l-.27-.3a2.16,2.16,0,0,1,.31-.58,3.11,3.11,0,0,1,.29-.33,2.48,2.48,0,0,1,1.33-.64,2.36,2.36,0,0,1,.1-.38l.28.28a2,2,0,0,0,0,.88l.21,1.33s0,0,0,0l.07.46a2.23,2.23,0,0,0,1.42-1.08l.26.26a2.59,2.59,0,0,1-1.78,1.2,2.86,2.86,0,0,1-.34.85l-.25-.27a2.21,2.21,0,0,0,.27-1.38l-.21-1.34Z"/><path class="e3f4fea8-50bf-4324-806f-efc0a9e7f602" d="M120.21,124.48l0-.46a2.13,2.13,0,0,0-1.28.75,2.44,2.44,0,0,0-.36.65l-.25-.31a2.35,2.35,0,0,1,.33-.57c.1-.11.2-.21.31-.31a2.5,2.5,0,0,1,1.36-.58,3.18,3.18,0,0,1,.11-.38l.27.3a2.15,2.15,0,0,0-.09.88l.15,1.34v0l0,.47a2.23,2.23,0,0,0,1.46-1l.24.27a2.61,2.61,0,0,1-1.83,1.12,2.65,2.65,0,0,1-.38.82l-.23-.28a2.16,2.16,0,0,0,.33-1.36l-.14-1.34A.08.08,0,0,0,120.21,124.48Z"/><path class="e3f4fea8-50bf-4324-806f-efc0a9e7f602" d="M118.05,126.31l0-.46a2.11,2.11,0,0,0-1.31.69,2.2,2.2,0,0,0-.39.63l-.24-.32a2.17,2.17,0,0,1,.36-.55,3,3,0,0,1,.32-.3,2.51,2.51,0,0,1,1.39-.51,1.9,1.9,0,0,1,.13-.38l.25.31a2.17,2.17,0,0,0-.13.88l.09,1.34s0,0,0,0l0,.47a2.16,2.16,0,0,0,1.51-.94l.23.28a2.56,2.56,0,0,1-1.88,1,2.5,2.5,0,0,1-.42.81l-.22-.29a2.16,2.16,0,0,0,.4-1.34l-.08-1.35Z"/><path class="e3f4fea8-50bf-4324-806f-efc0a9e7f602" d="M115.79,128v-.45a2.12,2.12,0,0,0-1.35.62,2.25,2.25,0,0,0-.41.61l-.23-.33a2.5,2.5,0,0,1,.39-.53,2.2,2.2,0,0,1,.34-.28,2.36,2.36,0,0,1,1.4-.45,2.5,2.5,0,0,1,.15-.38l.24.32a2.32,2.32,0,0,0-.17.87l0,1.35s0,0,0,0v.47a2.1,2.1,0,0,0,1.54-.87l.22.29a2.53,2.53,0,0,1-1.92,1,3,3,0,0,1-.46.79l-.21-.31a2.12,2.12,0,0,0,.46-1.32l0-1.35S115.8,128.06,115.79,128Z"/><path class="e3f4fea8-50bf-4324-806f-efc0a9e7f602" d="M113.47,129.67v-.46a2.16,2.16,0,0,0-1.37.56,2.37,2.37,0,0,0-.45.59l-.21-.34a2.28,2.28,0,0,1,.42-.51,2.33,2.33,0,0,1,.35-.27,2.54,2.54,0,0,1,1.42-.38,2.43,2.43,0,0,1,.16-.37l.23.33a2.13,2.13,0,0,0-.2.87l0,1.35s0,0,0,0l0,.47a2.08,2.08,0,0,0,1.58-.8l.21.3a2.47,2.47,0,0,1-2,.86,2.71,2.71,0,0,1-.5.76l-.19-.31a2.2,2.2,0,0,0,.52-1.29l0-1.35S113.47,129.69,113.47,129.67Z"/><path class="e3f4fea8-50bf-4324-806f-efc0a9e7f602" d="M111.07,131.19l0-.46a2.21,2.21,0,0,0-1.4.49,2.55,2.55,0,0,0-.47.57l-.19-.35a2.54,2.54,0,0,1,.44-.49,1.78,1.78,0,0,1,.36-.25,2.52,2.52,0,0,1,1.43-.32,2.42,2.42,0,0,1,.18-.36l.21.34a2.5,2.5,0,0,0-.24.86l-.1,1.35s0,0,0,0l0,.47a2.08,2.08,0,0,0,1.62-.73l.19.31a2.47,2.47,0,0,1-2,.77,2.88,2.88,0,0,1-.53.74l-.18-.33a2.15,2.15,0,0,0,.59-1.26l.1-1.35A0,0,0,0,0,111.07,131.19Z"/><path class="e3f4fea8-50bf-4324-806f-efc0a9e7f602" d="M108.6,132.59l.06-.45a2.07,2.07,0,0,0-1.92,1l-.18-.36a2.27,2.27,0,0,1,.46-.47,2.85,2.85,0,0,1,.37-.23,2.67,2.67,0,0,1,1.45-.26,1.75,1.75,0,0,1,.2-.35l.19.35a2.19,2.19,0,0,0-.28.85l-.16,1.34s0,0,0,0l-.06.46a2.06,2.06,0,0,0,1.64-.66l.18.32a2.41,2.41,0,0,1-2,.68,2.75,2.75,0,0,1-.56.71l-.17-.33a2.11,2.11,0,0,0,.64-1.23l.17-1.34S108.6,132.61,108.6,132.59Z"/><path class="e3f4fea8-50bf-4324-806f-efc0a9e7f602" d="M106.07,133.88l.07-.45a2.13,2.13,0,0,0-2,.88l-.16-.37a2.65,2.65,0,0,1,.49-.45,2.82,2.82,0,0,1,.38-.21,2.67,2.67,0,0,1,1.46-.19,1.48,1.48,0,0,1,.21-.34l.18.36a2.15,2.15,0,0,0-.32.83c-.07.46-.15.89-.23,1.34v0l-.08.46a2,2,0,0,0,1.67-.58l.17.32a2.43,2.43,0,0,1-2.07.59,2.74,2.74,0,0,1-.59.69l-.15-.34a2.17,2.17,0,0,0,.7-1.2l.23-1.33S106.07,133.9,106.07,133.88Z"/><path class="e3f4fea8-50bf-4324-806f-efc0a9e7f602" d="M103.48,135.05l.1-.45a2.25,2.25,0,0,0-1.46.29,2.57,2.57,0,0,0-.54.5l-.15-.38a2.59,2.59,0,0,1,.51-.42,1.76,1.76,0,0,1,.39-.19,2.68,2.68,0,0,1,1.46-.13,3.88,3.88,0,0,1,.23-.33l.16.37a2,2,0,0,0-.35.82c-.09.45-.19.88-.29,1.32a.05.05,0,0,1,0,0l-.1.45a2,2,0,0,0,1.7-.51l.15.34a2.62,2.62,0,0,1-1,.49,2.64,2.64,0,0,1-1.12,0,2.73,2.73,0,0,1-.62.65l-.14-.34a2.18,2.18,0,0,0,.76-1.17l.29-1.31S103.48,135.07,103.48,135.05Z"/><path class="e3f4fea8-50bf-4324-806f-efc0a9e7f602" d="M100.84,136.1l.12-.45a2.27,2.27,0,0,0-1.47.23,2.3,2.3,0,0,0-.57.46L98.8,136a2.28,2.28,0,0,1,.52-.39,2,2,0,0,1,.4-.18,2.81,2.81,0,0,1,1.47-.06,2.43,2.43,0,0,1,.24-.32l.15.38a2,2,0,0,0-.4.8c-.11.44-.22.89-.34,1.31l0,0-.12.45a2.08,2.08,0,0,0,1.72-.44l.13.34a2.42,2.42,0,0,1-2.11.4,2.6,2.6,0,0,1-.66.62l-.11-.35a2.13,2.13,0,0,0,.81-1.12c.12-.44.24-.86.35-1.31C100.83,136.12,100.84,136.11,100.84,136.1Z"/><path class="e3f4fea8-50bf-4324-806f-efc0a9e7f602" d="M98.15,137l.14-.45a2.39,2.39,0,0,0-1.47.17,2.33,2.33,0,0,0-.59.44l-.11-.39a2.25,2.25,0,0,1,.54-.37,2.86,2.86,0,0,1,.41-.15,2.62,2.62,0,0,1,1.47,0,1.86,1.86,0,0,1,.26-.31l.12.38a2.2,2.2,0,0,0-.43.78l-.4,1.31s0,0,0,0l-.15.44a2.1,2.1,0,0,0,1.74-.35l.12.34a2.45,2.45,0,0,1-2.13.31,2.72,2.72,0,0,1-.68.58l-.1-.35a2.16,2.16,0,0,0,.86-1.09c.14-.42.28-.85.41-1.29A0,0,0,0,0,98.15,137Z"/><path class="e3f4fea8-50bf-4324-806f-efc0a9e7f602" d="M95.43,137.81l.15-.44a2.32,2.32,0,0,0-1.47.11,2.15,2.15,0,0,0-.61.4l-.1-.39a2.33,2.33,0,0,1,.57-.34,2,2,0,0,1,.41-.13,2.55,2.55,0,0,1,1.47.06,2.44,2.44,0,0,1,.27-.29l.11.39a1.88,1.88,0,0,0-.47.75l-.46,1.29,0,0-.16.43a2.11,2.11,0,0,0,1.75-.28l.1.35a2.42,2.42,0,0,1-2.13.21,2.46,2.46,0,0,1-.72.55l-.08-.36a2,2,0,0,0,.91-1c.17-.41.32-.85.47-1.27C95.42,137.84,95.42,137.83,95.43,137.81Z"/><path class="e3f4fea8-50bf-4324-806f-efc0a9e7f602" d="M92.67,138.48l.17-.43a2.25,2.25,0,0,0-1.47,0,2.32,2.32,0,0,0-.63.37l-.08-.39a2.49,2.49,0,0,1,.58-.31,1.63,1.63,0,0,1,.42-.11,2.37,2.37,0,0,1,1.46.12,2.47,2.47,0,0,1,.28-.28l.1.39a2,2,0,0,0-.51.74l-.52,1.26,0,0-.19.44a2.27,2.27,0,0,0,1.77-.2l.08.35a2.5,2.5,0,0,1-2.14.11,2.6,2.6,0,0,1-.74.52l-.07-.37a2.07,2.07,0,0,0,1-1l.52-1.26Z"/><path class="e3f4fea8-50bf-4324-806f-efc0a9e7f602" d="M89.88,139l.2-.42a2.15,2.15,0,0,0-1.48,0,2.24,2.24,0,0,0-.65.34l0-.4a2.29,2.29,0,0,1,.59-.28,3.2,3.2,0,0,1,.42-.1,2.35,2.35,0,0,1,1.45.19,3.73,3.73,0,0,1,.3-.26l.08.39a2,2,0,0,0-.54.71l-.58,1.23,0,0-.2.42a2.18,2.18,0,0,0,1.77-.11l.07.36a2.58,2.58,0,0,1-2.14,0,2.56,2.56,0,0,1-.77.48l0-.37a2,2,0,0,0,1-.95l.58-1.23Z"/><path class="e3f4fea8-50bf-4324-806f-efc0a9e7f602" d="M87.07,139.42l.22-.4a2.1,2.1,0,0,0-1.48-.09,2.66,2.66,0,0,0-.66.31l0-.4a2.63,2.63,0,0,1,.6-.25,2.46,2.46,0,0,1,1.87.18,2.51,2.51,0,0,1,.32-.25l0,.4a2,2,0,0,0-.57.67l-.64,1.21s0,0,0,0l-.23.41a2.2,2.2,0,0,0,1.78,0l0,.36a2.59,2.59,0,0,1-2.14-.09,2.34,2.34,0,0,1-.78.45l0-.37a2,2,0,0,0,1-.91l.64-1.2Z"/><path class="e3f4fea8-50bf-4324-806f-efc0a9e7f602" d="M84.24,139.7l.24-.39a2.08,2.08,0,0,0-1.47-.16,3.16,3.16,0,0,0-.68.29l0-.4a3.8,3.8,0,0,1,.62-.24,3.21,3.21,0,0,1,.43-.07,2.44,2.44,0,0,1,1.43.35,2.43,2.43,0,0,1,.32-.24l0,.4a2,2,0,0,0-.6.65l-.7,1.17,0,0-.24.4a2.19,2.19,0,0,0,1.77.07l0,.36a2.62,2.62,0,0,1-2.13-.19,2.46,2.46,0,0,1-.8.42l0-.37a2.09,2.09,0,0,0,1.09-.88l.69-1.17S84.24,139.72,84.24,139.7Z"/><path class="e3f4fea8-50bf-4324-806f-efc0a9e7f602" d="M81.41,139.86l.25-.39a2.13,2.13,0,0,0-1.46-.23,2.16,2.16,0,0,0-.69.27v-.4a2.69,2.69,0,0,1,.62-.22,3.49,3.49,0,0,1,.44,0,2.42,2.42,0,0,1,1.41.42,2.37,2.37,0,0,1,.33-.22l0,.4a2.07,2.07,0,0,0-.63.62L81,141.19l0,0-.26.39a2.2,2.2,0,0,0,1.77.15v.37a2.59,2.59,0,0,1-2.12-.31,2.61,2.61,0,0,1-.82.4v-.37a2.24,2.24,0,0,0,1.13-.83l.75-1.14Z"/><path class="e3f4fea8-50bf-4324-806f-efc0a9e7f602" d="M78.57,139.88l.27-.37a2.12,2.12,0,0,0-1.45-.31,2.08,2.08,0,0,0-.7.24l0-.4a2.7,2.7,0,0,1,.63-.19,2.17,2.17,0,0,1,.44,0,2.49,2.49,0,0,1,1.39.49,1.9,1.9,0,0,1,.34-.2v.4a2.14,2.14,0,0,0-.66.58l-.79,1.1,0,0-.28.38a2.24,2.24,0,0,0,1.76.25v.36a2.59,2.59,0,0,1-2.11-.41,2.68,2.68,0,0,1-.83.36v-.37a2.2,2.2,0,0,0,1.17-.78l.79-1.09Z"/><path class="e3f4fea8-50bf-4324-806f-efc0a9e7f602" d="M75.73,139.78l.29-.36a2.12,2.12,0,0,0-1.43-.38,2.48,2.48,0,0,0-.72.2l0-.4a2.3,2.3,0,0,1,.64-.15,2.16,2.16,0,0,1,.44,0,2.5,2.5,0,0,1,1.37.56,1.51,1.51,0,0,1,.35-.2l0,.4A2.22,2.22,0,0,0,76,140l-.84,1.05,0,0-.29.37a2.12,2.12,0,0,0,1.74.31v.37a2.53,2.53,0,0,1-2.09-.5,2.8,2.8,0,0,1-.85.31l0-.37a2.18,2.18,0,0,0,1.2-.71l.85-1.06Z"/><path class="e3f4fea8-50bf-4324-806f-efc0a9e7f602" d="M72.9,139.54l.3-.34a2.13,2.13,0,0,0-1.41-.45,2.23,2.23,0,0,0-.72.17l.06-.4a2.69,2.69,0,0,1,.64-.13,3.17,3.17,0,0,1,.44,0,2.65,2.65,0,0,1,1.34.61,2.42,2.42,0,0,1,.36-.18l0,.4a2.2,2.2,0,0,0-.71.55l-.89,1,0,0-.31.35a2.05,2.05,0,0,0,1.73.39l0,.36a2.43,2.43,0,0,1-2.06-.59,2.85,2.85,0,0,1-.87.27l0-.37a2.12,2.12,0,0,0,1.23-.65l.89-1Z"/><path class="e3f4fea8-50bf-4324-806f-efc0a9e7f602" d="M70.08,139.18l.32-.33a2.23,2.23,0,0,0-1.39-.52,2.42,2.42,0,0,0-.72.13l.07-.39A2.32,2.32,0,0,1,69,138a2.18,2.18,0,0,1,.44,0,2.72,2.72,0,0,1,1.31.66,2.06,2.06,0,0,1,.37-.16l-.06.4a2,2,0,0,0-.73.51c-.31.34-.63.65-.94,1l0,0-.32.34a2.19,2.19,0,0,0,.81.43,2.28,2.28,0,0,0,.9,0l0,.36a2.4,2.4,0,0,1-2-.68,2.6,2.6,0,0,1-.88.23l.07-.37a2.09,2.09,0,0,0,1.25-.59l1-1S70.07,139.2,70.08,139.18Z"/><path class="e3f4fea8-50bf-4324-806f-efc0a9e7f602" d="M67.28,138.68l.34-.32a2.24,2.24,0,0,0-1.36-.57,2.31,2.31,0,0,0-.74.09l.1-.39a2.81,2.81,0,0,1,.65-.06,2,2,0,0,1,.43.07,2.67,2.67,0,0,1,1.28.71l.38-.14-.07.39a2,2,0,0,0-.76.48c-.33.32-.66.64-1,.94l0,0-.34.31a2.05,2.05,0,0,0,1.69.54l-.07.36a2.42,2.42,0,0,1-2-.77,2.81,2.81,0,0,1-.88.18l.08-.36a2.13,2.13,0,0,0,1.28-.53c.34-.31.66-.6,1-.92Z"/><path class="e3f4fea8-50bf-4324-806f-efc0a9e7f602" d="M64.52,138.05l.35-.3a2.36,2.36,0,0,0-1.34-.63,2.3,2.3,0,0,0-.74.06l.11-.39a2.44,2.44,0,0,1,.66,0,3,3,0,0,1,.43.09,2.61,2.61,0,0,1,1.25.77,2.43,2.43,0,0,1,.38-.13l-.1.39a2.29,2.29,0,0,0-.77.44l-1,.9,0,0-.35.3a2.13,2.13,0,0,0,1.66.61l-.08.35a2.42,2.42,0,0,1-2-.86,2.46,2.46,0,0,1-.9.14l.1-.35a2.14,2.14,0,0,0,1.31-.47c.34-.28.69-.58,1-.88Z"/><path class="e3f4fea8-50bf-4324-806f-efc0a9e7f602" d="M61.78,137.3l.36-.29a2.36,2.36,0,0,0-1.31-.69,2.55,2.55,0,0,0-.73,0l.13-.38a2.36,2.36,0,0,1,.65,0,3,3,0,0,1,.43.1,2.57,2.57,0,0,1,1.21.83,1.66,1.66,0,0,1,.38-.11l-.11.39a2,2,0,0,0-.79.39l-1.07.86,0,0-.37.28a2.15,2.15,0,0,0,1.64.68l-.1.35a2.44,2.44,0,0,1-1.92-.94,2.47,2.47,0,0,1-.9.09l.12-.35a2.08,2.08,0,0,0,1.32-.4c.36-.27.72-.56,1.07-.84Z"/><path class="e3f4fea8-50bf-4324-806f-efc0a9e7f602" d="M59.08,136.41l.38-.27a2.38,2.38,0,0,0-1.28-.74,2.24,2.24,0,0,0-.73,0l.14-.38a2.47,2.47,0,0,1,.66,0,2,2,0,0,1,.41.13,2.37,2.37,0,0,1,1.18.87,2.46,2.46,0,0,1,.39-.09l-.13.38a2.17,2.17,0,0,0-.81.36l-1.11.8,0,0-.38.27a2.22,2.22,0,0,0,1.6.76l-.12.34a2.45,2.45,0,0,1-1.87-1,2.47,2.47,0,0,1-.9,0l.13-.34a2.09,2.09,0,0,0,1.34-.34l1.11-.8Z"/><path class="e3f4fea8-50bf-4324-806f-efc0a9e7f602" d="M56.43,135.41l.38-.26a2.23,2.23,0,0,0-1.24-.79,2,2,0,0,0-.73-.05l.16-.37a2.4,2.4,0,0,1,.65.07,3,3,0,0,1,.42.14,2.43,2.43,0,0,1,1.13.93,2.44,2.44,0,0,1,.39-.07l-.14.38a2.09,2.09,0,0,0-.83.31l-1.15.75h0l-.4.26a2.19,2.19,0,0,0,1.56.83l-.13.34a2.53,2.53,0,0,1-1.83-1.11,2.71,2.71,0,0,1-.9,0l.15-.34a2.08,2.08,0,0,0,1.36-.28l1.14-.75Z"/><path class="e3f4fea8-50bf-4324-806f-efc0a9e7f602" d="M53.82,134.28l.4-.24a2.23,2.23,0,0,0-1.93-.93l.17-.36a2.38,2.38,0,0,1,.65.1,2.9,2.9,0,0,1,.41.16,2.35,2.35,0,0,1,1.09,1,1.67,1.67,0,0,1,.39-.05l-.16.37a2,2,0,0,0-.84.27l-1.18.69,0,0-.41.24a2.23,2.23,0,0,0,1.53.9l-.15.34a2.58,2.58,0,0,1-1.77-1.2,2.73,2.73,0,0,1-.9,0l.16-.33a2,2,0,0,0,1.37-.22l1.18-.69Z"/><path class="e3f4fea8-50bf-4324-806f-efc0a9e7f602" d="M51.27,133l.41-.22a2.15,2.15,0,0,0-1.17-.9,2.22,2.22,0,0,0-.72-.12l.19-.35a2.5,2.5,0,0,1,.65.13l.4.17a2.43,2.43,0,0,1,1,1,2.56,2.56,0,0,1,.39,0l-.17.36a2,2,0,0,0-.86.23l-1.2.64h0l-.42.22a2.22,2.22,0,0,0,1.48,1l-.17.32a2.57,2.57,0,0,1-1.71-1.28,2.5,2.5,0,0,1-.9-.07l.18-.33a2,2,0,0,0,1.38-.16l1.21-.63Z"/><path class="e3f4fea8-50bf-4324-806f-efc0a9e7f602" d="M48.78,131.66l.42-.19a2.11,2.11,0,0,0-1.12-1,2.64,2.64,0,0,0-.72-.15l.21-.34a2.33,2.33,0,0,1,.63.16,2.09,2.09,0,0,1,.4.19,2.36,2.36,0,0,1,1,1.08,2.54,2.54,0,0,1,.39,0l-.19.35a2,2,0,0,0-.86.2l-1.24.57h0l-.42.2a2.21,2.21,0,0,0,1.43,1l-.18.32a2.6,2.6,0,0,1-1.65-1.36,2.28,2.28,0,0,1-.9-.12l.19-.31a2,2,0,0,0,1.39-.1l1.24-.57Z"/><path class="e3f4fea8-50bf-4324-806f-efc0a9e7f602" d="M46.36,130.18l.42-.17a2.11,2.11,0,0,0-1.07-1,2.72,2.72,0,0,0-.72-.18l.23-.33a2.83,2.83,0,0,1,.63.18,2.93,2.93,0,0,1,.39.21,2.41,2.41,0,0,1,.93,1.13,2.67,2.67,0,0,1,.4,0l-.21.34a2,2,0,0,0-.87.16l-1.26.51h0l-.44.18a2.26,2.26,0,0,0,1.38,1.12l-.19.31a2.6,2.6,0,0,1-1.59-1.44,2.49,2.49,0,0,1-.89-.15l.21-.31a2,2,0,0,0,1.39,0l1.26-.51Z"/><path class="e3f4fea8-50bf-4324-806f-efc0a9e7f602" d="M44,128.6l.44-.16a2.13,2.13,0,0,0-1-1.06,3,3,0,0,0-.71-.21l.24-.32a3.58,3.58,0,0,1,.63.21,2.14,2.14,0,0,1,.38.23,2.34,2.34,0,0,1,.87,1.17,2.69,2.69,0,0,1,.4,0l-.23.33a2,2,0,0,0-.87.11l-1.28.46h0l-.44.15a2.21,2.21,0,0,0,1.32,1.19l-.21.3A2.58,2.58,0,0,1,42,129.52a2.29,2.29,0,0,1-.89-.19l.22-.29a2,2,0,0,0,1.4,0l1.28-.45Z"/><path class="e3f4fea8-50bf-4324-806f-efc0a9e7f602" d="M41.72,126.9l.45-.13a2.13,2.13,0,0,0-1-1.11,2.64,2.64,0,0,0-.7-.24l.26-.31a3.09,3.09,0,0,1,.61.24,2.12,2.12,0,0,1,.37.24,2.38,2.38,0,0,1,.82,1.22,2.45,2.45,0,0,1,.39,0l-.24.32a2.22,2.22,0,0,0-.88.07l-1.29.4s0,0,0,0l-.45.14A2.24,2.24,0,0,0,41.3,129l-.22.29a2.61,2.61,0,0,1-1.44-1.59,2.25,2.25,0,0,1-.88-.23l.23-.28a2.1,2.1,0,0,0,1.4.08l1.3-.39Z"/><path class="e3f4fea8-50bf-4324-806f-efc0a9e7f602" d="M39.53,125.1,40,125a2.12,2.12,0,0,0-.92-1.16,2.51,2.51,0,0,0-.69-.26l.27-.3a3,3,0,0,1,.61.26,3.18,3.18,0,0,1,.35.26,2.45,2.45,0,0,1,.77,1.26,2.85,2.85,0,0,1,.39.06l-.26.31a2,2,0,0,0-.88,0l-1.31.33h0l-.46.11a2.25,2.25,0,0,0,1.2,1.31l-.23.28a2.58,2.58,0,0,1-1.36-1.66,2.55,2.55,0,0,1-.88-.26l.25-.27a2.17,2.17,0,0,0,1.4.14l1.31-.33Z"/><path class="e3f4fea8-50bf-4324-806f-efc0a9e7f602" d="M37.41,123.21l.45-.1a2.13,2.13,0,0,0-.86-1.2,2.41,2.41,0,0,0-.68-.29l.28-.28a2.34,2.34,0,0,1,.6.28,3,3,0,0,1,.34.28,2.38,2.38,0,0,1,.7,1.29,1.69,1.69,0,0,1,.39.08l-.27.3a2,2,0,0,0-.88,0l-1.33.27s0,0,0,0l-.46.09a2.3,2.3,0,0,0,1.14,1.37l-.24.27a2.64,2.64,0,0,1-1.29-1.72,3,3,0,0,1-.86-.3l.26-.27a2.1,2.1,0,0,0,1.39.21l1.33-.27Z"/><path class="e3f4fea8-50bf-4324-806f-efc0a9e7f602" d="M35.39,121.21l.45-.07a2.11,2.11,0,0,0-.8-1.24,2.57,2.57,0,0,0-.67-.32l.3-.27a2.51,2.51,0,0,1,.58.31,3.11,3.11,0,0,1,.33.29,2.45,2.45,0,0,1,.64,1.33,1.64,1.64,0,0,1,.38.1l-.28.28a2,2,0,0,0-.88-.05l-1.34.21h0l-.46.07a2.21,2.21,0,0,0,1.07,1.41l-.25.26a2.59,2.59,0,0,1-1.21-1.78,2.44,2.44,0,0,1-.84-.34l.27-.25a2.2,2.2,0,0,0,1.37.28l1.34-.21Z"/><path class="e3f4fea8-50bf-4324-806f-efc0a9e7f602" d="M33.46,119.13l.46,0a2.16,2.16,0,0,0-.75-1.27,2.19,2.19,0,0,0-.65-.36l.31-.26a2.46,2.46,0,0,1,.56.34,2.34,2.34,0,0,1,.32.31,2.42,2.42,0,0,1,.57,1.35,2.91,2.91,0,0,1,.39.12l-.3.27a2,2,0,0,0-.88-.09l-1.34.15h0l-.47.05a2.18,2.18,0,0,0,1,1.46l-.27.25a2.61,2.61,0,0,1-1.12-1.83,2.82,2.82,0,0,1-.83-.38l.29-.24a2.17,2.17,0,0,0,1.36.34l1.34-.15S33.44,119.14,33.46,119.13Z"/><path class="e3f4fea8-50bf-4324-806f-efc0a9e7f602" d="M31.63,117l.45,0a2.1,2.1,0,0,0-.68-1.31,2.41,2.41,0,0,0-.63-.38l.32-.25a2.79,2.79,0,0,1,.55.37,2.89,2.89,0,0,1,.29.32,2.41,2.41,0,0,1,.52,1.38l.38.13-.31.26a2.17,2.17,0,0,0-.88-.13l-1.35.09h0l-.46,0a2.12,2.12,0,0,0,.94,1.5l-.28.24a2.57,2.57,0,0,1-1-1.88,3,3,0,0,1-.81-.42l.3-.22a2.2,2.2,0,0,0,1.34.4l1.35-.09S31.61,117,31.63,117Z"/><path class="e3f4fea8-50bf-4324-806f-efc0a9e7f602" d="M29.89,114.71h.46a2.12,2.12,0,0,0-.62-1.35,2.55,2.55,0,0,0-.61-.42l.33-.22a2.2,2.2,0,0,1,.53.39,1.81,1.81,0,0,1,.28.34,2.36,2.36,0,0,1,.45,1.4l.38.14-.32.25a2.38,2.38,0,0,0-.88-.17l-1.35,0H28a2.12,2.12,0,0,0,.87,1.55l-.29.22a2.53,2.53,0,0,1-.95-1.93,2.6,2.6,0,0,1-.79-.45l.31-.21a2.12,2.12,0,0,0,1.32.46l1.35,0Z"/><path class="e3f4fea8-50bf-4324-806f-efc0a9e7f602" d="M28.27,112.38l.46,0a2.13,2.13,0,0,0-.56-1.37,2.5,2.5,0,0,0-.59-.45l.34-.21a2.6,2.6,0,0,1,.78.76,2.6,2.6,0,0,1,.38,1.43,2,2,0,0,1,.37.16l-.33.22a2.35,2.35,0,0,0-.87-.2l-1.35,0h-.5a2.08,2.08,0,0,0,.8,1.58l-.3.21a2.47,2.47,0,0,1-.86-2,2.87,2.87,0,0,1-.77-.49l.32-.2a2.15,2.15,0,0,0,1.29.53l1.35,0S28.25,112.39,28.27,112.38Z"/><path class="e3f4fea8-50bf-4324-806f-efc0a9e7f602" d="M26.75,110l.46,0a2.19,2.19,0,0,0-.49-1.4,2.3,2.3,0,0,0-.57-.47l.35-.2a2.54,2.54,0,0,1,.49.44l.25.36a2.63,2.63,0,0,1,.32,1.44,3,3,0,0,1,.36.18l-.34.21a2.13,2.13,0,0,0-.86-.24l-1.35-.1h0l-.46,0a2.1,2.1,0,0,0,.73,1.62l-.31.19a2.45,2.45,0,0,1-.77-2,2.72,2.72,0,0,1-.74-.53l.32-.18a2.19,2.19,0,0,0,1.27.58l1.34.11Z"/><path class="e3f4fea8-50bf-4324-806f-efc0a9e7f602" d="M25.34,107.52l.46,0a2.17,2.17,0,0,0-.42-1.42,2.89,2.89,0,0,0-.55-.5l.36-.18a2.33,2.33,0,0,1,.47.47,2.3,2.3,0,0,1,.23.37,2.56,2.56,0,0,1,.25,1.45,2,2,0,0,1,.36.19l-.35.2a2.08,2.08,0,0,0-.85-.28L24,107.71a.05.05,0,0,1,0,0l-.46-.06a2,2,0,0,0,.66,1.65l-.32.18a2.41,2.41,0,0,1-.68-2,3,3,0,0,1-.72-.57l.34-.16a2.16,2.16,0,0,0,1.23.64l1.34.17Z"/><path class="e3f4fea8-50bf-4324-806f-efc0a9e7f602" d="M24.05,105l.46.07a2.21,2.21,0,0,0-.36-1.44,2.33,2.33,0,0,0-.52-.52l.37-.16a2.25,2.25,0,0,1,.44.48,1.87,1.87,0,0,1,.22.39,2.64,2.64,0,0,1,.19,1.45,2.39,2.39,0,0,1,.34.21l-.36.18a2,2,0,0,0-.84-.31l-1.33-.23h0l-.46-.08a2.08,2.08,0,0,0,.59,1.67l-.33.16a2.44,2.44,0,0,1-.58-2.06,3,3,0,0,1-.69-.59l.34-.15a2.2,2.2,0,0,0,1.2.7L24,105Z"/><path class="e3f4fea8-50bf-4324-806f-efc0a9e7f602" d="M22.88,102.4l.46.09A2.29,2.29,0,0,0,23,101a2.15,2.15,0,0,0-.49-.55l.37-.14a2.07,2.07,0,0,1,.62.9,2.78,2.78,0,0,1,.13,1.46,1.78,1.78,0,0,1,.33.23l-.37.16a2.1,2.1,0,0,0-.82-.36c-.45-.08-.89-.18-1.32-.28a.05.05,0,0,1,0,0l-.45-.1a2,2,0,0,0,.5,1.7l-.33.15a2.38,2.38,0,0,1-.49-2.09,3,3,0,0,1-.66-.63l.35-.13a2.15,2.15,0,0,0,1.17.76l1.31.29Z"/><path class="e3f4fea8-50bf-4324-806f-efc0a9e7f602" d="M21.84,99.76l.45.11a2.31,2.31,0,0,0-.23-1.46,2.34,2.34,0,0,0-.47-.57l.38-.13a2.11,2.11,0,0,1,.4.53,2,2,0,0,1,.17.4,2.68,2.68,0,0,1,.07,1.46,1.89,1.89,0,0,1,.31.25l-.37.14a2,2,0,0,0-.8-.39c-.44-.11-.89-.22-1.31-.35h0L20,99.61a2.1,2.1,0,0,0,.43,1.72l-.34.13a2.43,2.43,0,0,1-.39-2.1A2.64,2.64,0,0,1,19,98.7l.36-.12a2.07,2.07,0,0,0,1.12.81c.44.13.86.25,1.31.36Z"/><path class="e3f4fea8-50bf-4324-806f-efc0a9e7f602" d="M20.92,97.07l.45.14a2.18,2.18,0,0,0-.61-2.07l.39-.11a2.65,2.65,0,0,1,.37.55,2.86,2.86,0,0,1,.15.41,2.68,2.68,0,0,1,0,1.46,2.55,2.55,0,0,1,.3.26l-.38.13a2.08,2.08,0,0,0-.77-.43L19.51,97s0,0,0,0L19,96.84a2.1,2.1,0,0,0,.36,1.74l-.35.11a2.43,2.43,0,0,1-.3-2.12,2.83,2.83,0,0,1-.59-.69l.36-.1a2.14,2.14,0,0,0,1.08.87l1.3.41Z"/><path class="e3f4fea8-50bf-4324-806f-efc0a9e7f602" d="M20.13,94.34l.43.16a2.25,2.25,0,0,0-.1-1.47,2.16,2.16,0,0,0-.41-.62l.39-.09a2.46,2.46,0,0,1,.34.56,2.3,2.3,0,0,1,.14.42,2.51,2.51,0,0,1-.07,1.46,2.61,2.61,0,0,1,.3.27l-.39.11a2.05,2.05,0,0,0-.75-.46l-1.29-.47a.05.05,0,0,1,0,0L18.25,94a2.15,2.15,0,0,0,.27,1.75l-.35.1a2.45,2.45,0,0,1-.2-2.13,2.84,2.84,0,0,1-.56-.72l.37-.08a2.12,2.12,0,0,0,1,.91c.42.17.86.32,1.28.47Z"/><path class="e3f4fea8-50bf-4324-806f-efc0a9e7f602" d="M19.46,91.58l.43.18a2.31,2.31,0,0,0,0-1.47,2.17,2.17,0,0,0-.38-.64l.4-.07a2.3,2.3,0,0,1,.31.58,2,2,0,0,1,.11.42A2.45,2.45,0,0,1,20.17,92a1.79,1.79,0,0,1,.27.28l-.39.09a2,2,0,0,0-.73-.5l-1.26-.52s0,0,0,0l-.44-.18a2.21,2.21,0,0,0,.2,1.76l-.35.09a2.47,2.47,0,0,1-.11-2.14,2.6,2.6,0,0,1-.52-.74l.36-.07a2.14,2.14,0,0,0,1,1l1.27.53Z"/><path class="e3f4fea8-50bf-4324-806f-efc0a9e7f602" d="M18.92,88.79l.42.2A2.25,2.25,0,0,0,19,86.87l.4-.06a2.46,2.46,0,0,1,.28.59,3.34,3.34,0,0,1,.1.43,2.36,2.36,0,0,1-.2,1.45,1.93,1.93,0,0,1,.27.3l-.4.07a2.12,2.12,0,0,0-.7-.54l-1.23-.58,0,0-.43-.2a2.23,2.23,0,0,0,.12,1.77l-.36.06a2.58,2.58,0,0,1,0-2.14,2.56,2.56,0,0,1-.47-.76l.36,0a2,2,0,0,0,1,1l1.23.59Z"/><path class="e3f4fea8-50bf-4324-806f-efc0a9e7f602" d="M18.51,86l.41.22A2.07,2.07,0,0,0,19,84.73a2.93,2.93,0,0,0-.31-.67l.39,0a2.14,2.14,0,0,1,.26.6,3.29,3.29,0,0,1,.09.43,2.42,2.42,0,0,1-.27,1.44,2.42,2.42,0,0,1,.25.31l-.4.06a2,2,0,0,0-.68-.57l-1.2-.64,0,0-.42-.22a2.25,2.25,0,0,0,0,1.78l-.36,0a2.58,2.58,0,0,1,.08-2.14,2.36,2.36,0,0,1-.44-.79l.37,0a2,2,0,0,0,.91,1l1.2.64Z"/><path class="e3f4fea8-50bf-4324-806f-efc0a9e7f602" d="M18.23,83.16l.4.24a2.15,2.15,0,0,0,.16-1.47,3,3,0,0,0-.29-.68l.4,0a3.8,3.8,0,0,1,.24.62,3,3,0,0,1,.06.43,2.37,2.37,0,0,1-.34,1.43,1.44,1.44,0,0,1,.23.32l-.39,0a2.34,2.34,0,0,0-.65-.6l-1.17-.69,0,0-.4-.24a2.21,2.21,0,0,0-.07,1.78l-.36,0a2.58,2.58,0,0,1,.19-2.13,2.41,2.41,0,0,1-.42-.81h.37A2.06,2.06,0,0,0,17,82.44l1.17.7Z"/><path class="e3f4fea8-50bf-4324-806f-efc0a9e7f602" d="M18.08,80.32l.39.26a2.13,2.13,0,0,0,.23-1.46,2.31,2.31,0,0,0-.27-.69h.4a2.53,2.53,0,0,1,.22.62,3.29,3.29,0,0,1,.05.44,2.42,2.42,0,0,1-.42,1.41,2.37,2.37,0,0,1,.22.33l-.4,0a2,2,0,0,0-.62-.63l-1.13-.75,0,0-.39-.26a2.24,2.24,0,0,0-.16,1.77h-.36a2.62,2.62,0,0,1,.3-2.12,2.69,2.69,0,0,1-.39-.82h.37a2.12,2.12,0,0,0,.83,1.12l1.13.75Z"/><path class="e3f4fea8-50bf-4324-806f-efc0a9e7f602" d="M18.06,77.48l.37.28a2.19,2.19,0,0,0,.31-1.45,2.63,2.63,0,0,0-.24-.7h.4a2.64,2.64,0,0,1,.19.64,2.07,2.07,0,0,1,0,.43,2.42,2.42,0,0,1-.48,1.4,2.77,2.77,0,0,1,.2.34h-.4a2.05,2.05,0,0,0-.59-.66L16.75,77s0,0,0,0l-.38-.27a2.27,2.27,0,0,0-.24,1.76h-.36a2.59,2.59,0,0,1,.41-2.11,2.64,2.64,0,0,1-.36-.84l.37,0a2.16,2.16,0,0,0,.78,1.16l1.09.8S18,77.48,18.06,77.48Z"/><path class="e3f4fea8-50bf-4324-806f-efc0a9e7f602" d="M18.16,74.65l.36.28a2.09,2.09,0,0,0,.38-1.43,2.42,2.42,0,0,0-.2-.71l.39,0a1.94,1.94,0,0,1,.16.64,2.16,2.16,0,0,1,0,.44,2.44,2.44,0,0,1-.56,1.36,4,4,0,0,1,.2.35h-.4a2.22,2.22,0,0,0-.57-.69l-1.05-.84s0,0,0,0l-.36-.3a2.15,2.15,0,0,0-.32,1.75l-.36,0a2.51,2.51,0,0,1,.5-2.08,2.76,2.76,0,0,1-.31-.86l.37,0a2.12,2.12,0,0,0,.71,1.19l1.05.85Z"/><path class="e3f4fea8-50bf-4324-806f-efc0a9e7f602" d="M18.39,71.81l.35.31a2.18,2.18,0,0,0,.45-1.41A2.45,2.45,0,0,0,19,70l.4.05a2.34,2.34,0,0,1,.12.65,2.16,2.16,0,0,1,0,.44,2.49,2.49,0,0,1-.61,1.34,1.52,1.52,0,0,1,.18.36l-.39,0a2.34,2.34,0,0,0-.55-.71l-1-.89,0,0-.35-.31a2.05,2.05,0,0,0-.39,1.73l-.36,0a2.45,2.45,0,0,1,.59-2.07,2.79,2.79,0,0,1-.27-.86l.36,0a2.19,2.19,0,0,0,.66,1.23l1,.89A0,0,0,0,0,18.39,71.81Z"/><path class="e3f4fea8-50bf-4324-806f-efc0a9e7f602" d="M18.75,69l.34.32a2.07,2.07,0,0,0,.38-2.12l.4.08a2.32,2.32,0,0,1,.09.65,3,3,0,0,1,0,.43,2.72,2.72,0,0,1-.66,1.31,3,3,0,0,1,.16.37L19,70a2.14,2.14,0,0,0-.51-.74c-.34-.31-.65-.62-1-.94,0,0,0,0,0,0L17.18,68a2.19,2.19,0,0,0-.43.81,2.27,2.27,0,0,0,0,.9l-.36,0a2.4,2.4,0,0,1,.68-2,2.66,2.66,0,0,1-.23-.88l.36.07a2.19,2.19,0,0,0,.6,1.25l1,.94Z"/><path class="e3f4fea8-50bf-4324-806f-efc0a9e7f602" d="M19.25,66.2l.33.34a2.4,2.4,0,0,0,.57-1.37,2,2,0,0,0-.1-.73l.39.09a2.09,2.09,0,0,1,.06.66,2,2,0,0,1-.06.43,2.65,2.65,0,0,1-.72,1.28,2.5,2.5,0,0,1,.15.38l-.4-.08a2.06,2.06,0,0,0-.47-.75c-.32-.33-.64-.66-.94-1l0,0-.32-.34a2,2,0,0,0-.53,1.69l-.36-.07a2.38,2.38,0,0,1,.77-2,2.67,2.67,0,0,1-.19-.89l.37.09a2.07,2.07,0,0,0,.53,1.28c.3.33.6.66.92,1Z"/><path class="e3f4fea8-50bf-4324-806f-efc0a9e7f602" d="M19.88,63.43l.31.35a2.33,2.33,0,0,0,.63-1.33,2.3,2.3,0,0,0-.06-.74l.39.11a2.41,2.41,0,0,1,0,.66,2.17,2.17,0,0,1-.08.43,2.61,2.61,0,0,1-.77,1.24,2.4,2.4,0,0,1,.12.38l-.39-.09a2.15,2.15,0,0,0-.43-.78c-.3-.33-.61-.68-.9-1l0,0-.3-.35a2.09,2.09,0,0,0-.61,1.66l-.35-.08a2.42,2.42,0,0,1,.85-2,2.91,2.91,0,0,1-.14-.89l.36.1A2.14,2.14,0,0,0,19,62.38c.28.34.57.68.88,1Z"/><path class="e3f4fea8-50bf-4324-806f-efc0a9e7f602" d="M20.64,60.7l.29.36a2.36,2.36,0,0,0,.69-1.31,2.23,2.23,0,0,0,0-.73l.38.12a2.09,2.09,0,0,1,0,.66,1.85,1.85,0,0,1-.11.42A2.39,2.39,0,0,1,21,61.43a2.85,2.85,0,0,1,.11.39l-.39-.11a2.2,2.2,0,0,0-.39-.8l-.86-1.07,0,0-.28-.37a2.16,2.16,0,0,0-.69,1.64l-.35-.1a2.48,2.48,0,0,1,.95-1.93,2.68,2.68,0,0,1-.1-.9l.36.12a2.09,2.09,0,0,0,.4,1.33c.26.35.56.71.84,1.07Z"/><path class="e3f4fea8-50bf-4324-806f-efc0a9e7f602" d="M21.53,58l.27.37a2.18,2.18,0,0,0,.75-2l.37.15a2,2,0,0,1,0,.65,1.87,1.87,0,0,1-.13.42,2.39,2.39,0,0,1-.87,1.17,1.8,1.8,0,0,1,.08.39L21.59,59a2,2,0,0,0-.35-.82l-.8-1.11,0,0-.28-.39a2.25,2.25,0,0,0-.75,1.61L19,58.16a2.53,2.53,0,0,1,1-1.88,2.68,2.68,0,0,1-.06-.9l.35.14a2.13,2.13,0,0,0,.34,1.34l.8,1.11S21.51,58,21.53,58Z"/><path class="e3f4fea8-50bf-4324-806f-efc0a9e7f602" d="M22.53,55.34l.26.39a2.23,2.23,0,0,0,.79-1.24,2,2,0,0,0,.05-.73l.37.16a2.4,2.4,0,0,1-.07.65,2.83,2.83,0,0,1-.14.41,2.38,2.38,0,0,1-.93,1.13,2.76,2.76,0,0,1,.06.4l-.37-.15a2.08,2.08,0,0,0-.32-.83l-.74-1.14s0,0,0,0L21.22,54a2.22,2.22,0,0,0-.84,1.56L20,55.39a2.54,2.54,0,0,1,1.12-1.83,2.72,2.72,0,0,1,0-.9l.34.15a2.09,2.09,0,0,0,.28,1.36l.74,1.14Z"/><path class="e3f4fea8-50bf-4324-806f-efc0a9e7f602" d="M23.66,52.74l.24.4a2.23,2.23,0,0,0,.85-1.21,2.6,2.6,0,0,0,.08-.73l.36.18a2.44,2.44,0,0,1-.1.65,3.47,3.47,0,0,1-.16.41,2.38,2.38,0,0,1-1,1.08,2.73,2.73,0,0,1,.05.4l-.37-.16a1.94,1.94,0,0,0-.28-.85l-.69-1.17a.06.06,0,0,1,0,0l-.24-.41a2.27,2.27,0,0,0-.91,1.53l-.33-.15a2.6,2.6,0,0,1,1.2-1.78,2.73,2.73,0,0,1,0-.9l.34.17A2,2,0,0,0,23,51.53l.68,1.18Z"/><path class="e3f4fea8-50bf-4324-806f-efc0a9e7f602" d="M24.91,50.19l.21.41A2.12,2.12,0,0,0,26,49.43a2.58,2.58,0,0,0,.12-.72l.35.19a2.35,2.35,0,0,1-.13.64,3,3,0,0,1-.18.41,2.28,2.28,0,0,1-1,1,2.69,2.69,0,0,1,0,.4l-.36-.18a1.88,1.88,0,0,0-.24-.85L24,49.14a.06.06,0,0,1,0,0l-.22-.41a2.2,2.2,0,0,0-1,1.47L22.42,50a2.65,2.65,0,0,1,1.28-1.72,2.69,2.69,0,0,1,.08-.89l.32.18A2.07,2.07,0,0,0,24.26,49l.63,1.2Z"/><path class="e3f4fea8-50bf-4324-806f-efc0a9e7f602" d="M26.28,47.7l.19.42a2.13,2.13,0,0,0,1-1.13,2.5,2.5,0,0,0,.15-.72l.34.22a2.43,2.43,0,0,1-.16.63,2.93,2.93,0,0,1-.19.4,2.34,2.34,0,0,1-1.08,1c0,.13,0,.27,0,.4l-.35-.19a2.08,2.08,0,0,0-.2-.87l-.57-1.23a.06.06,0,0,1,0,0l-.2-.43a2.23,2.23,0,0,0-1.05,1.43l-.32-.17a2.64,2.64,0,0,1,1.36-1.66,2.45,2.45,0,0,1,.11-.89l.32.19a2,2,0,0,0,.1,1.39l.57,1.23S26.27,47.68,26.28,47.7Z"/><path class="e3f4fea8-50bf-4324-806f-efc0a9e7f602" d="M27.75,45.27l.18.43a2.11,2.11,0,0,0,1-1.07,2.72,2.72,0,0,0,.18-.72l.33.23a3.21,3.21,0,0,1-.19.63,1.72,1.72,0,0,1-.2.38,2.43,2.43,0,0,1-1.13.94,2.67,2.67,0,0,1,0,.4l-.34-.22a2,2,0,0,0-.16-.86l-.51-1.26a.08.08,0,0,1,0,0l-.18-.44a2.26,2.26,0,0,0-1.12,1.38l-.31-.19a2.6,2.6,0,0,1,1.44-1.59,2.45,2.45,0,0,1,.15-.89l.31.21a2,2,0,0,0,0,1.39l.51,1.26S27.75,45.26,27.75,45.27Z"/><path class="e3f4fea8-50bf-4324-806f-efc0a9e7f602" d="M29.34,42.92l.16.43a2.07,2.07,0,0,0,1.06-1,3,3,0,0,0,.21-.71l.32.24a3.88,3.88,0,0,1-.21.63,2.85,2.85,0,0,1-.23.37,2.41,2.41,0,0,1-1.17.88,2.69,2.69,0,0,1,0,.4l-.33-.23A2,2,0,0,0,29,43l-.46-1.28a.08.08,0,0,1,0,0l-.15-.45a2.27,2.27,0,0,0-1.19,1.32l-.3-.2a2.59,2.59,0,0,1,1.52-1.52A2.48,2.48,0,0,1,28.6,40l.3.23a2,2,0,0,0,0,1.39l.45,1.29A0,0,0,0,0,29.34,42.92Z"/><path class="e3f4fea8-50bf-4324-806f-efc0a9e7f602" d="M31,40.64l.13.44a2.07,2.07,0,0,0,1.11-1,3.05,3.05,0,0,0,.24-.7l.31.25a2.69,2.69,0,0,1-.48,1,2.44,2.44,0,0,1-1.22.82,2.58,2.58,0,0,1,0,.39l-.32-.24a2,2,0,0,0-.08-.88l-.39-1.3s0,0,0,0L30.16,39a2.23,2.23,0,0,0-1.25,1.27L28.62,40a2.58,2.58,0,0,1,1.59-1.44,2.53,2.53,0,0,1,.22-.89l.29.24a2.1,2.1,0,0,0-.09,1.4l.4,1.3A0,0,0,0,0,31,40.64Z"/><path class="e3f4fea8-50bf-4324-806f-efc0a9e7f602" d="M32.84,38.44l.11.45A2.06,2.06,0,0,0,34.1,38a2.67,2.67,0,0,0,.27-.69l.3.27a3.51,3.51,0,0,1-.26.6,3.32,3.32,0,0,1-.26.36,2.45,2.45,0,0,1-1.26.76,2.44,2.44,0,0,1-.06.39l-.31-.25a2.18,2.18,0,0,0,0-.88l-.34-1.32v0L32,36.72a2.19,2.19,0,0,0-1.31,1.2l-.28-.23a2.63,2.63,0,0,1,1.65-1.37,2.75,2.75,0,0,1,.27-.87l.27.25a2.08,2.08,0,0,0-.14,1.39l.33,1.32A0,0,0,0,0,32.84,38.44Z"/><path class="e3f4fea8-50bf-4324-806f-efc0a9e7f602" d="M34.73,36.33l.09.45a2.11,2.11,0,0,0,1.2-.86,2.33,2.33,0,0,0,.3-.69l.28.29a2.5,2.5,0,0,1-.28.6,3,3,0,0,1-.28.34,2.44,2.44,0,0,1-1.29.7c0,.13,0,.26-.08.39l-.3-.27a2,2,0,0,0,0-.88l-.27-1.33s0,0,0,0l-.1-.46a2.24,2.24,0,0,0-1.36,1.14l-.27-.24a2.59,2.59,0,0,1,1.72-1.29,2.76,2.76,0,0,1,.3-.86l.26.26a2.16,2.16,0,0,0-.2,1.39l.27,1.32Z"/><path class="e3f4fea8-50bf-4324-806f-efc0a9e7f602" d="M36.72,34.31l.07.45A2.07,2.07,0,0,0,38,34a2.15,2.15,0,0,0,.33-.66l.27.29a2.38,2.38,0,0,1-.31.59,3,3,0,0,1-.29.32,2.46,2.46,0,0,1-1.33.65,1.78,1.78,0,0,1-.1.38l-.28-.29a2,2,0,0,0,0-.87L36.16,33s0,0,0,0l-.07-.46a2.22,2.22,0,0,0-1.42,1.07l-.25-.26a2.61,2.61,0,0,1,1.77-1.2,3.09,3.09,0,0,1,.34-.85l.25.28a2.18,2.18,0,0,0-.27,1.37l.21,1.34Z"/><path class="e3f4fea8-50bf-4324-806f-efc0a9e7f602" d="M38.81,32.38l0,.45a2.1,2.1,0,0,0,1.27-.74,2.19,2.19,0,0,0,.36-.65l.26.3a2.53,2.53,0,0,1-.34.57,1.82,1.82,0,0,1-.31.31,2.36,2.36,0,0,1-1.35.58,2.4,2.4,0,0,1-.12.38l-.27-.29a2.17,2.17,0,0,0,.09-.88l-.15-1.34s0,0,0,0l-.05-.47a2.19,2.19,0,0,0-1.47,1l-.24-.27a2.58,2.58,0,0,1,1.83-1.12,2.71,2.71,0,0,1,.38-.83l.23.29A2.15,2.15,0,0,0,38.66,31l.14,1.35A.08.08,0,0,0,38.81,32.38Z"/><path class="e3f4fea8-50bf-4324-806f-efc0a9e7f602" d="M41,30.54,41,31a2.2,2.2,0,0,0,1.32-.68,2.46,2.46,0,0,0,.38-.64l.24.32a2.17,2.17,0,0,1-.36.55,2.24,2.24,0,0,1-.32.3,2.4,2.4,0,0,1-1.38.51c0,.13-.08.26-.13.38l-.26-.3a2.19,2.19,0,0,0,.13-.88l-.09-1.35s0,0,0,0l0-.47a2.21,2.21,0,0,0-1.51.95l-.23-.28a2.53,2.53,0,0,1,1.88-1,2.72,2.72,0,0,1,.42-.81l.22.3a2.14,2.14,0,0,0-.4,1.34L41,30.51A0,0,0,0,0,41,30.54Z"/><path class="e3f4fea8-50bf-4324-806f-efc0a9e7f602" d="M43.23,28.81v.46a2.12,2.12,0,0,0,1.35-.62A2.42,2.42,0,0,0,45,28l.23.32a2.56,2.56,0,0,1-.39.54,3.17,3.17,0,0,1-.34.28,2.51,2.51,0,0,1-1.4.45,2.87,2.87,0,0,1-.15.37l-.24-.32a2.32,2.32,0,0,0,.17-.87l0-1.35s0,0,0,0V27a2.14,2.14,0,0,0-1.55.88l-.22-.29A2.5,2.5,0,0,1,43,26.59a2.86,2.86,0,0,1,.46-.79l.21.31a2.09,2.09,0,0,0-.46,1.31l0,1.36S43.22,28.79,43.23,28.81Z"/><path class="e3f4fea8-50bf-4324-806f-efc0a9e7f602" d="M45.55,27.18v.46a2.12,2.12,0,0,0,1.37-.55,2.62,2.62,0,0,0,.45-.6l.21.34a2.19,2.19,0,0,1-.77.78,2.47,2.47,0,0,1-1.42.39,2.32,2.32,0,0,1-.16.36L45,28a2.36,2.36,0,0,0,.21-.87l0-1.35s0,0,0,0v-.47a2.12,2.12,0,0,0-1.58.81l-.21-.3a2.47,2.47,0,0,1,2-.86,2.72,2.72,0,0,1,.49-.77l.19.32a2.17,2.17,0,0,0-.52,1.29l0,1.35A0,0,0,0,0,45.55,27.18Z"/><path class="e3f4fea8-50bf-4324-806f-efc0a9e7f602" d="M48,25.67l0,.45a2.1,2.1,0,0,0,1.4-.49,2.34,2.34,0,0,0,.47-.57l.19.35a1.87,1.87,0,0,1-.44.49,1.78,1.78,0,0,1-.36.25,2.5,2.5,0,0,1-1.43.32,2,2,0,0,1-.18.36l-.21-.34a2.2,2.2,0,0,0,.24-.86l.1-1.34s0,0,0,0l0-.46a2.08,2.08,0,0,0-1.62.73l-.19-.31a2.44,2.44,0,0,1,2-.77,2.57,2.57,0,0,1,.53-.74l.18.32a2.1,2.1,0,0,0-.58,1.27L48,25.63S48,25.65,48,25.67Z"/><path class="e3f4fea8-50bf-4324-806f-efc0a9e7f602" d="M50.42,24.26l-.05.46a2.19,2.19,0,0,0,1.42-.43,2.57,2.57,0,0,0,.5-.54l.17.36a2,2,0,0,1-.46.46,2.12,2.12,0,0,1-.37.24,2.58,2.58,0,0,1-1.45.25,1.75,1.75,0,0,1-.2.35l-.19-.35a2.19,2.19,0,0,0,.28-.85l.16-1.33a.05.05,0,0,1,0,0l0-.47a2.06,2.06,0,0,0-1.64.66l-.18-.31a2.45,2.45,0,0,1,2-.69,2.92,2.92,0,0,1,.57-.71l.16.33a2.13,2.13,0,0,0-.64,1.24l-.17,1.34S50.42,24.25,50.42,24.26Z"/><path class="e3f4fea8-50bf-4324-806f-efc0a9e7f602" d="M53,23l-.07.46a2.13,2.13,0,0,0,2-.88l.16.36a2.27,2.27,0,0,1-.48.45,1.83,1.83,0,0,1-.39.21,2.56,2.56,0,0,1-1.45.19,2.56,2.56,0,0,1-.22.35l-.17-.36a2.12,2.12,0,0,0,.31-.84c.07-.45.15-.88.23-1.33,0,0,0,0,0,0l.08-.46a2,2,0,0,0-1.67.59l-.17-.33a2.47,2.47,0,0,1,2.07-.59,2.54,2.54,0,0,1,.59-.68l.15.34a2.14,2.14,0,0,0-.7,1.2L53,22.94S53,23,53,23Z"/><path class="e3f4fea8-50bf-4324-806f-efc0a9e7f602" d="M55.54,21.8l-.09.46A2.31,2.31,0,0,0,56.9,22a2.55,2.55,0,0,0,.55-.49l.14.37a2.28,2.28,0,0,1-.51.42,2.38,2.38,0,0,1-.39.2,2.68,2.68,0,0,1-1.46.12,1.94,1.94,0,0,1-.23.33l-.16-.36a2.33,2.33,0,0,0,.36-.82c.08-.45.18-.89.28-1.33l0,0,.1-.46a2.08,2.08,0,0,0-1.7.51l-.15-.33a2.38,2.38,0,0,1,2.09-.49,2.63,2.63,0,0,1,.63-.66l.13.35a2.12,2.12,0,0,0-.76,1.16l-.29,1.32S55.54,21.78,55.54,21.8Z"/><path class="e3f4fea8-50bf-4324-806f-efc0a9e7f602" d="M58.18,20.76l-.11.45A2.38,2.38,0,0,0,59.53,21a2.6,2.6,0,0,0,.57-.47l.13.38a2.31,2.31,0,0,1-.53.4,2.83,2.83,0,0,1-.4.17,2.62,2.62,0,0,1-1.47.06,1.57,1.57,0,0,1-.24.32l-.14-.37a2.21,2.21,0,0,0,.39-.8c.11-.44.22-.89.34-1.32l0,0,.13-.45a2.09,2.09,0,0,0-1.73.43L56.47,19a2.42,2.42,0,0,1,2.11-.4,2.79,2.79,0,0,1,.66-.62l.12.35a2.15,2.15,0,0,0-.82,1.13c-.12.44-.24.86-.35,1.3C58.19,20.73,58.18,20.74,58.18,20.76Z"/><path class="e3f4fea8-50bf-4324-806f-efc0a9e7f602" d="M60.87,19.84l-.14.44a2.32,2.32,0,0,0,1.47-.17,2.13,2.13,0,0,0,.59-.43l.11.38a2.25,2.25,0,0,1-.54.37,2.05,2.05,0,0,1-.41.16,2.72,2.72,0,0,1-1.47,0,2.34,2.34,0,0,1-.25.3l-.13-.38a2,2,0,0,0,.43-.78l.4-1.3,0,0L61.1,18a2.1,2.1,0,0,0-1.74.36L59.24,18a2.45,2.45,0,0,1,2.13-.3,2.75,2.75,0,0,1,.68-.59l.1.36a2.13,2.13,0,0,0-.86,1.08c-.14.42-.28.85-.41,1.29C60.88,19.81,60.87,19.82,60.87,19.84Z"/><path class="e3f4fea8-50bf-4324-806f-efc0a9e7f602" d="M63.6,19l-.16.44a2.39,2.39,0,0,0,1.47-.1,2.18,2.18,0,0,0,.61-.41l.1.39a2.46,2.46,0,0,1-.56.34,2.25,2.25,0,0,1-.42.13,2.43,2.43,0,0,1-1.46-.06,1.54,1.54,0,0,1-.28.29l-.11-.38a2,2,0,0,0,.47-.76l.47-1.29,0,0,.16-.44a2.19,2.19,0,0,0-1.75.28l-.1-.35a2.45,2.45,0,0,1,2.13-.2,2.68,2.68,0,0,1,.72-.56l.08.36a2.14,2.14,0,0,0-.91,1c-.17.41-.32.85-.47,1.28A0,0,0,0,0,63.6,19Z"/><path class="e3f4fea8-50bf-4324-806f-efc0a9e7f602" d="M66.36,18.38l-.18.43a2.31,2.31,0,0,0,1.47,0,2.27,2.27,0,0,0,.64-.37l.07.39a2,2,0,0,1-.58.32,3.25,3.25,0,0,1-.42.11,2.38,2.38,0,0,1-1.46-.13,1.85,1.85,0,0,1-.28.28l-.1-.39a2,2,0,0,0,.51-.73L66.55,17l0,0,.19-.43a2.19,2.19,0,0,0-1.77.2l-.08-.36a2.5,2.5,0,0,1,2.14-.11,2.78,2.78,0,0,1,.74-.51l.07.36a2,2,0,0,0-1,1l-.53,1.26S66.36,18.36,66.36,18.38Z"/><path class="e3f4fea8-50bf-4324-806f-efc0a9e7f602" d="M69.14,17.84l-.2.42a2.21,2.21,0,0,0,1.48,0,2.36,2.36,0,0,0,.65-.34l.06.39a2.09,2.09,0,0,1-.6.29l-.42.1a2.43,2.43,0,0,1-1.45-.2,1.8,1.8,0,0,1-.3.26l-.07-.39a2.06,2.06,0,0,0,.53-.7l.58-1.24,0,0,.2-.43a2.26,2.26,0,0,0-1.77.11l-.07-.35a2.56,2.56,0,0,1,2.15,0,2.81,2.81,0,0,1,.76-.48l0,.37a2,2,0,0,0-1,1l-.58,1.24Z"/><path class="e3f4fea8-50bf-4324-806f-efc0a9e7f602" d="M72,17.43l-.21.41a2.13,2.13,0,0,0,1.47.09,2.52,2.52,0,0,0,.66-.32l0,.4a2.24,2.24,0,0,1-.6.25,2.33,2.33,0,0,1-1.87-.17,3.24,3.24,0,0,1-.31.24l-.06-.39a2,2,0,0,0,.57-.68l.64-1.2a0,0,0,0,1,0,0l.23-.42a2.29,2.29,0,0,0-1.78,0l0-.36a2.62,2.62,0,0,1,2.14.09,2.46,2.46,0,0,1,.79-.45l0,.37a2,2,0,0,0-1,.92L72,17.4Z"/><path class="e3f4fea8-50bf-4324-806f-efc0a9e7f602" d="M74.78,17.15l-.24.4a2.13,2.13,0,0,0,1.47.16,3.16,3.16,0,0,0,.68-.29l0,.39a2.57,2.57,0,0,1-.62.24,2.14,2.14,0,0,1-.43.07,2.37,2.37,0,0,1-1.43-.34,1.72,1.72,0,0,1-.32.23l0-.4a1.94,1.94,0,0,0,.6-.64l.7-1.17a0,0,0,0,1,0,0l.25-.41a2.25,2.25,0,0,0-1.78-.06l0-.37a2.62,2.62,0,0,1,2.13.2,2.41,2.41,0,0,1,.81-.42v.37a2,2,0,0,0-1.09.87l-.69,1.17Z"/><path class="e3f4fea8-50bf-4324-806f-efc0a9e7f602" d="M77.61,17l-.25.38a2.08,2.08,0,0,0,1.46.24,2.44,2.44,0,0,0,.69-.28v.4a2.09,2.09,0,0,1-1.06.27A2.34,2.34,0,0,1,77,17.6a2.3,2.3,0,0,1-.33.21l0-.39a2.19,2.19,0,0,0,.63-.62l.74-1.13s0,0,0,0l.26-.39a2.24,2.24,0,0,0-1.77-.16v-.36a2.62,2.62,0,0,1,2.12.3,2.84,2.84,0,0,1,.82-.4V15a2.26,2.26,0,0,0-1.13.84L77.64,17Z"/><path class="e3f4fea8-50bf-4324-806f-efc0a9e7f602" d="M80.45,17l-.27.37a2.13,2.13,0,0,0,1.45.3,2.31,2.31,0,0,0,.7-.23l0,.39a2.21,2.21,0,0,1-.63.2,3.24,3.24,0,0,1-.44,0,2.41,2.41,0,0,1-1.39-.48,1.86,1.86,0,0,1-.34.19v-.4a1.91,1.91,0,0,0,.66-.58L81,15.67l0,0,.28-.38A2.19,2.19,0,0,0,79.51,15v-.37a2.67,2.67,0,0,1,2.11.41,2.86,2.86,0,0,1,.84-.35l0,.37a2.16,2.16,0,0,0-1.16.77l-.8,1.1S80.46,17,80.45,17Z"/><path class="e3f4fea8-50bf-4324-806f-efc0a9e7f602" d="M83.29,17.08l-.29.36a2.08,2.08,0,0,0,2.15.17l0,.4a2.23,2.23,0,0,1-.64.16,2.16,2.16,0,0,1-.44,0,2.36,2.36,0,0,1-1.36-.55,2,2,0,0,1-.36.19l0-.39a2.53,2.53,0,0,0,.69-.57l.84-1.05,0,0,.3-.36a2.12,2.12,0,0,0-1.75-.32v-.36a2.5,2.5,0,0,1,2.09.5,2.78,2.78,0,0,1,.86-.32l0,.37a2.2,2.2,0,0,0-1.2.72l-.84,1.05S83.3,17.06,83.29,17.08Z"/><path class="e3f4fea8-50bf-4324-806f-efc0a9e7f602" d="M86.12,17.31l-.3.34a2.14,2.14,0,0,0,1.41.46,2.45,2.45,0,0,0,.72-.17l0,.39a2.09,2.09,0,0,1-.65.13,2.16,2.16,0,0,1-.44,0,2.65,2.65,0,0,1-1.34-.61,2.42,2.42,0,0,1-.36.18l0-.4a2.16,2.16,0,0,0,.71-.54l.89-1,0,0,.31-.35a2.05,2.05,0,0,0-1.73-.39l0-.37a2.53,2.53,0,0,1,2.07.59,2.7,2.7,0,0,1,.86-.27l0,.37a2.19,2.19,0,0,0-1.23.66l-.89,1Z"/><path class="e3f4fea8-50bf-4324-806f-efc0a9e7f602" d="M88.94,17.67l-.32.34a2.14,2.14,0,0,0,2.12.38l-.08.39a2.32,2.32,0,0,1-.65.1,3.27,3.27,0,0,1-.44,0,2.74,2.74,0,0,1-1.31-.67,1.65,1.65,0,0,1-.36.16l0-.39a2.29,2.29,0,0,0,.74-.51c.31-.34.62-.65.93-1l0,0L90,16.1a2.21,2.21,0,0,0-.81-.44,2.28,2.28,0,0,0-.9,0l0-.36a2.4,2.4,0,0,1,2,.68,2.59,2.59,0,0,1,.88-.22l-.07.36a2.12,2.12,0,0,0-1.25.59l-.94,1Z"/><path class="e3f4fea8-50bf-4324-806f-efc0a9e7f602" d="M91.74,18.17l-.34.33a2.4,2.4,0,0,0,1.37.57,2.62,2.62,0,0,0,.73-.1l-.1.39a2.32,2.32,0,0,1-.65.06,2,2,0,0,1-.43-.06A2.69,2.69,0,0,1,91,18.64a1.74,1.74,0,0,1-.38.14l.08-.39a2.06,2.06,0,0,0,.75-.47c.33-.32.66-.64,1-.94l0,0,.34-.32a2.08,2.08,0,0,0-1.69-.54l.07-.35a2.39,2.39,0,0,1,2,.77,2.56,2.56,0,0,1,.88-.19l-.08.36a2.13,2.13,0,0,0-1.28.53c-.34.31-.66.61-1,.93C91.75,18.15,91.75,18.16,91.74,18.17Z"/><path class="e3f4fea8-50bf-4324-806f-efc0a9e7f602" d="M94.51,18.8l-.36.31a2.36,2.36,0,0,0,1.34.63,2.3,2.3,0,0,0,.74-.06l-.11.38a2.08,2.08,0,0,1-.66,0A2,2,0,0,1,95,20a2.61,2.61,0,0,1-1.24-.77l-.39.12.1-.39a2.11,2.11,0,0,0,.77-.43l1-.9a0,0,0,0,1,0,0l.35-.3A2.05,2.05,0,0,0,94,16.71l.08-.36a2.44,2.44,0,0,1,2,.86,2.69,2.69,0,0,1,.9-.14l-.1.36a2.08,2.08,0,0,0-1.31.47c-.34.28-.69.57-1,.88C94.52,18.78,94.52,18.79,94.51,18.8Z"/><path class="e3f4fea8-50bf-4324-806f-efc0a9e7f602" d="M97.24,19.56l-.36.29a2.29,2.29,0,0,0,1.31.68,2.24,2.24,0,0,0,.73,0l-.12.38a2.43,2.43,0,0,1-.66,0,2.09,2.09,0,0,1-.43-.11A2.55,2.55,0,0,1,96.5,20a2.36,2.36,0,0,1-.38.1l.11-.38a2.11,2.11,0,0,0,.79-.4l1.07-.85,0,0,.37-.29a2.18,2.18,0,0,0-1.64-.68l.1-.35a2.43,2.43,0,0,1,1.92.95,2.71,2.71,0,0,1,.9-.1l-.11.35a2.1,2.1,0,0,0-1.33.41c-.36.26-.72.56-1.07.84Z"/><path class="e3f4fea8-50bf-4324-806f-efc0a9e7f602" d="M99.94,20.44l-.38.27a2.34,2.34,0,0,0,1.28.75,2.3,2.3,0,0,0,.74,0l-.15.37a2.37,2.37,0,0,1-.65,0,2.58,2.58,0,0,1-.42-.13,2.45,2.45,0,0,1-1.18-.88,2.34,2.34,0,0,1-.38.09l.12-.38a2,2,0,0,0,.82-.36l1.1-.8h0l.39-.28a2.21,2.21,0,0,0-1.61-.75l.12-.35a2.48,2.48,0,0,1,1.87,1,2.76,2.76,0,0,1,.91,0l-.14.35a2.11,2.11,0,0,0-1.34.34l-1.11.79Z"/><path class="e3f4fea8-50bf-4324-806f-efc0a9e7f602" d="M102.6,21.45l-.39.25a2.19,2.19,0,0,0,1.24.8,2.57,2.57,0,0,0,.73.05l-.16.36a2.05,2.05,0,0,1-.65-.06c-.15,0-.28-.1-.42-.15a2.37,2.37,0,0,1-1.13-.93,1.68,1.68,0,0,1-.39.07l.15-.37a2,2,0,0,0,.82-.32l1.15-.74,0,0,.39-.26a2.21,2.21,0,0,0-1.56-.83l.13-.34a2.54,2.54,0,0,1,1.83,1.12,2.71,2.71,0,0,1,.9,0l-.15.34a2.08,2.08,0,0,0-1.36.28l-1.14.74Z"/><path class="e3f4fea8-50bf-4324-806f-efc0a9e7f602" d="M105.2,22.58l-.4.23a2.14,2.14,0,0,0,1.21.85,2.25,2.25,0,0,0,.73.09l-.18.36a2.44,2.44,0,0,1-.65-.1l-.41-.16a2.33,2.33,0,0,1-1.08-1,2.71,2.71,0,0,1-.4,0l.16-.36a2,2,0,0,0,.84-.28l1.18-.69h0l.41-.24a2.24,2.24,0,0,0-1.53-.91l.15-.33a2.59,2.59,0,0,1,1.78,1.2,2.74,2.74,0,0,1,.9,0l-.17.33a2.05,2.05,0,0,0-1.37.22l-1.18.69Z"/><path class="e3f4fea8-50bf-4324-806f-efc0a9e7f602" d="M107.75,23.83l-.41.21a2.06,2.06,0,0,0,1.17.9,2,2,0,0,0,.72.12l-.19.35a2,2,0,0,1-.64-.13,1.86,1.86,0,0,1-.41-.17,2.4,2.4,0,0,1-1-1,2.47,2.47,0,0,1-.39,0l.18-.36a2.06,2.06,0,0,0,.85-.24l1.2-.63h0l.42-.22a2.19,2.19,0,0,0-1.48-1l.17-.33a2.6,2.6,0,0,1,1.71,1.28,2.5,2.5,0,0,1,.9.08l-.18.32a2,2,0,0,0-1.38.16l-1.21.63Z"/><path class="e3f4fea8-50bf-4324-806f-efc0a9e7f602" d="M110.24,25.19l-.42.2a2.05,2.05,0,0,0,1.12.95,2.32,2.32,0,0,0,.72.15l-.21.34a2.43,2.43,0,0,1-.63-.16,2,2,0,0,1-.4-.18,2.44,2.44,0,0,1-1-1.09,1.7,1.7,0,0,1-.39,0l.19-.35a1.86,1.86,0,0,0,.86-.19l1.24-.58h0l.42-.19A2.19,2.19,0,0,0,110.36,23l.18-.31a2.58,2.58,0,0,1,1.66,1.36,2.45,2.45,0,0,1,.89.11l-.19.32a2,2,0,0,0-1.39.09l-1.24.58Z"/><path class="e3f4fea8-50bf-4324-806f-efc0a9e7f602" d="M112.67,26.67l-.43.18a2.11,2.11,0,0,0,1.07,1A3.79,3.79,0,0,0,114,28l-.23.32a2.38,2.38,0,0,1-.63-.18,2.1,2.1,0,0,1-.39-.21,2.36,2.36,0,0,1-.93-1.13,1.79,1.79,0,0,1-.4,0l.21-.34a1.89,1.89,0,0,0,.87-.15l1.26-.52h0l.44-.18a2.23,2.23,0,0,0-1.38-1.12l.19-.31a2.6,2.6,0,0,1,1.59,1.44,2.29,2.29,0,0,1,.89.15l-.21.31a2,2,0,0,0-1.39,0l-1.26.52Z"/><path class="e3f4fea8-50bf-4324-806f-efc0a9e7f602" d="M115,28.26l-.44.15a2.15,2.15,0,0,0,1,1.07,3,3,0,0,0,.71.2l-.24.32a3.11,3.11,0,0,1-.63-.21,2.26,2.26,0,0,1-.37-.22,2.43,2.43,0,0,1-.88-1.18,1.35,1.35,0,0,1-.4,0L114,28a2.21,2.21,0,0,0,.87-.12l1.28-.45h0l.45-.16a2.21,2.21,0,0,0-1.33-1.18l.21-.3a2.6,2.6,0,0,1,1.52,1.51,2.28,2.28,0,0,1,.88.19l-.22.3a2,2,0,0,0-1.4,0l-1.28.46Z"/><path class="e3f4fea8-50bf-4324-806f-efc0a9e7f602" d="M117.3,30l-.44.14a2.11,2.11,0,0,0,1,1.11,3.05,3.05,0,0,0,.7.24l-.25.3a2.51,2.51,0,0,1-1-.47,2.48,2.48,0,0,1-.82-1.22,1.67,1.67,0,0,1-.39-.05l.24-.32a1.91,1.91,0,0,0,.88-.07l1.29-.39h0l.45-.13a2.18,2.18,0,0,0-1.26-1.25l.22-.29a2.59,2.59,0,0,1,1.44,1.59,2.24,2.24,0,0,1,.88.22l-.23.29a2.11,2.11,0,0,0-1.4-.09l-1.3.39Z"/><path class="e3f4fea8-50bf-4324-806f-efc0a9e7f602" d="M119.5,31.75l-.45.11A2.05,2.05,0,0,0,120,33a2.67,2.67,0,0,0,.69.27l-.27.29a2.49,2.49,0,0,1-.61-.26,1.77,1.77,0,0,1-.35-.26,2.38,2.38,0,0,1-.76-1.25,1.68,1.68,0,0,1-.39-.07l.25-.3a2.18,2.18,0,0,0,.88,0l1.31-.34s0,0,0,0l.46-.12a2.2,2.2,0,0,0-1.2-1.3l.23-.28A2.59,2.59,0,0,1,121.62,31a2.73,2.73,0,0,1,.87.26l-.25.28a2.15,2.15,0,0,0-1.39-.15l-1.32.33Z"/><path class="e3f4fea8-50bf-4324-806f-efc0a9e7f602" d="M121.61,33.65l-.45.09a2.11,2.11,0,0,0,.86,1.2,2.25,2.25,0,0,0,.68.29l-.28.29a2.37,2.37,0,0,1-.6-.29,2.88,2.88,0,0,1-.34-.27,2.44,2.44,0,0,1-.7-1.29l-.39-.09.27-.29a2,2,0,0,0,.88,0l1.33-.27h0l.46-.09a2.25,2.25,0,0,0-1.14-1.36l.24-.27A2.62,2.62,0,0,1,123.76,33a2.76,2.76,0,0,1,.86.3l-.26.26a2.23,2.23,0,0,0-1.39-.21l-1.33.27Z"/><path class="e3f4fea8-50bf-4324-806f-efc0a9e7f602" d="M123.63,35.64l-.45.07A2.1,2.1,0,0,0,124,37a2.61,2.61,0,0,0,.67.33l-.29.27a2.42,2.42,0,0,1-.59-.32,2.21,2.21,0,0,1-.33-.29,2.49,2.49,0,0,1-.64-1.32,2.66,2.66,0,0,1-.38-.1l.28-.29a2,2,0,0,0,.88.06l1.34-.21h0l.46-.07a2.25,2.25,0,0,0-1.07-1.42l.26-.26a2.65,2.65,0,0,1,1.2,1.78,2.91,2.91,0,0,1,.84.34l-.27.25a2.19,2.19,0,0,0-1.37-.27l-1.34.21Z"/><path class="e3f4fea8-50bf-4324-806f-efc0a9e7f602" d="M125.56,37.72l-.45.05a2.12,2.12,0,0,0,.74,1.28,2.44,2.44,0,0,0,.65.36l-.3.25a2.21,2.21,0,0,1-.57-.34,2.27,2.27,0,0,1-.32-.3,2.42,2.42,0,0,1-.57-1.36,2.38,2.38,0,0,1-.38-.11l.29-.27a2.34,2.34,0,0,0,.88.09l1.34-.15h0l.47,0a2.2,2.2,0,0,0-1-1.46l.27-.24a2.59,2.59,0,0,1,1.12,1.83,2.93,2.93,0,0,1,.83.37l-.29.24a2.16,2.16,0,0,0-1.36-.33l-1.34.14Z"/><path class="e3f4fea8-50bf-4324-806f-efc0a9e7f602" d="M127.4,39.89l-.46,0a2.12,2.12,0,0,0,.68,1.31,2.44,2.44,0,0,0,.63.39l-.31.24a2.48,2.48,0,0,1-.55-.36,1.87,1.87,0,0,1-.3-.33,2.39,2.39,0,0,1-.52-1.38,1.82,1.82,0,0,1-.37-.13l.3-.25a2.35,2.35,0,0,0,.88.12l1.35-.08h0l.46,0a2.14,2.14,0,0,0-.94-1.51l.28-.23a2.55,2.55,0,0,1,1,1.88,2.94,2.94,0,0,1,.81.41l-.3.23a2.14,2.14,0,0,0-1.34-.4l-1.35.08Z"/><path class="e3f4fea8-50bf-4324-806f-efc0a9e7f602" d="M129.13,42.14h-.46a2.1,2.1,0,0,0,.62,1.34,2.29,2.29,0,0,0,.61.42l-.33.23a2.9,2.9,0,0,1-.53-.39,2.2,2.2,0,0,1-.28-.34,2.36,2.36,0,0,1-.45-1.4,2.39,2.39,0,0,1-.37-.15l.31-.24a2.22,2.22,0,0,0,.88.16l1.35,0h.5a2.1,2.1,0,0,0-.87-1.54l.29-.22a2.53,2.53,0,0,1,.95,1.92,2.86,2.86,0,0,1,.79.46l-.31.21a2.17,2.17,0,0,0-1.32-.47l-1.35,0Z"/><path class="e3f4fea8-50bf-4324-806f-efc0a9e7f602" d="M130.75,44.47h-.45a2.09,2.09,0,0,0,.55,1.37,2.45,2.45,0,0,0,.59.44l-.34.22a2.92,2.92,0,0,1-.51-.42,2.11,2.11,0,0,1-.26-.35,2.49,2.49,0,0,1-.39-1.42,3,3,0,0,1-.37-.16l.33-.23a2.17,2.17,0,0,0,.87.2l1.35,0h0l.46,0a2.08,2.08,0,0,0-.8-1.59l.3-.2a2.47,2.47,0,0,1,.86,2,2.68,2.68,0,0,1,.77.5l-.32.19a2.14,2.14,0,0,0-1.29-.52l-1.35-.05Z"/><path class="e3f4fea8-50bf-4324-806f-efc0a9e7f602" d="M132.27,46.87l-.46,0a2.14,2.14,0,0,0,.5,1.39,2.34,2.34,0,0,0,.56.48l-.34.19a2.32,2.32,0,0,1-.5-.44,3.27,3.27,0,0,1-.25-.36,2.7,2.7,0,0,1-.32-1.44,2.92,2.92,0,0,1-.36-.17l.34-.22a2.13,2.13,0,0,0,.86.24l1.35.11h0l.46,0a2.08,2.08,0,0,0-.73-1.62l.31-.19a2.43,2.43,0,0,1,.77,2,2.52,2.52,0,0,1,.74.53l-.32.18a2.2,2.2,0,0,0-1.27-.59l-1.34-.1Z"/><path class="e3f4fea8-50bf-4324-806f-efc0a9e7f602" d="M133.68,49.34l-.46-.06a2.1,2.1,0,0,0,.43,1.42,2.13,2.13,0,0,0,.54.5l-.36.18a2.27,2.27,0,0,1-.47-.46,2.85,2.85,0,0,1-.23-.37,2.58,2.58,0,0,1-.25-1.45,2,2,0,0,1-.35-.2l.34-.19a2.07,2.07,0,0,0,.86.27l1.33.17h0l.46.06a2,2,0,0,0-.66-1.65l.32-.17a2.41,2.41,0,0,1,.68,2,2.74,2.74,0,0,1,.72.56l-.34.17a2.18,2.18,0,0,0-1.23-.65l-1.34-.16Z"/><path class="e3f4fea8-50bf-4324-806f-efc0a9e7f602" d="M135,51.87l-.46-.08a2.21,2.21,0,0,0,.36,1.44,2.61,2.61,0,0,0,.52.53l-.37.16a2.3,2.3,0,0,1-.44-.49,2,2,0,0,1-.21-.38,2.6,2.6,0,0,1-.2-1.46,3.13,3.13,0,0,1-.34-.21l.36-.18a2.13,2.13,0,0,0,.84.32c.45.06.88.15,1.33.23h0l.46.08a2.1,2.1,0,0,0-.59-1.68l.33-.16a2.42,2.42,0,0,1,.58,2.06,2.81,2.81,0,0,1,.69.6l-.34.15a2.14,2.14,0,0,0-1.2-.7L135,51.88Z"/><path class="e3f4fea8-50bf-4324-806f-efc0a9e7f602" d="M136.14,54.46l-.46-.1a2.28,2.28,0,0,0,.3,1.45,2.15,2.15,0,0,0,.49.55l-.37.15a2.64,2.64,0,0,1-.43-.51,2,2,0,0,1-.19-.39,2.79,2.79,0,0,1-.13-1.46l-.33-.23.37-.16a2.08,2.08,0,0,0,.82.35l1.32.29h0l.46.11a2.08,2.08,0,0,0-.51-1.7l.33-.15a2.47,2.47,0,0,1,.49,1,2.6,2.6,0,0,1,0,1.11,2.81,2.81,0,0,1,.66.63l-.35.14a2.1,2.1,0,0,0-1.16-.76l-1.32-.29Z"/><path class="e3f4fea8-50bf-4324-806f-efc0a9e7f602" d="M137.18,57.1l-.45-.12a2.3,2.3,0,0,0,.23,1.46,2.22,2.22,0,0,0,.47.58l-.38.12a2.25,2.25,0,0,1-.4-.52,2.28,2.28,0,0,1-.17-.4,2.71,2.71,0,0,1-.07-1.47,1.83,1.83,0,0,1-.31-.24l.37-.15a2,2,0,0,0,.8.4l1.32.34,0,0,.45.12a2.11,2.11,0,0,0-.43-1.72l.34-.13a2.42,2.42,0,0,1,.39,2.11,2.78,2.78,0,0,1,.63.65l-.36.12a2.13,2.13,0,0,0-1.12-.81l-1.3-.35Z"/><path class="e3f4fea8-50bf-4324-806f-efc0a9e7f602" d="M138.1,59.79l-.44-.14a2.33,2.33,0,0,0,.16,1.47,2.59,2.59,0,0,0,.44.59l-.39.11a2.54,2.54,0,0,1-.36-.54,2.31,2.31,0,0,1-.16-.41,2.72,2.72,0,0,1,0-1.47,1.8,1.8,0,0,1-.3-.26l.38-.12a2,2,0,0,0,.78.43l1.3.4,0,0L140,60a2.1,2.1,0,0,0-.36-1.74l.35-.12a2.43,2.43,0,0,1,.3,2.12,2.83,2.83,0,0,1,.59.69l-.36.1a2.17,2.17,0,0,0-1.08-.86c-.43-.15-.85-.28-1.3-.41Z"/><path class="e3f4fea8-50bf-4324-806f-efc0a9e7f602" d="M138.89,62.51l-.43-.16a2.34,2.34,0,0,0,.1,1.48,2.11,2.11,0,0,0,.41.61l-.39.09a2.09,2.09,0,0,1-.34-.56,2.83,2.83,0,0,1-.14-.41,2.55,2.55,0,0,1,.07-1.47,1.93,1.93,0,0,1-.3-.27l.39-.11a2.12,2.12,0,0,0,.76.47l1.28.46,0,0,.44.17a2.18,2.18,0,0,0-.28-1.75l.35-.1a2.44,2.44,0,0,1,.2,2.13,2.79,2.79,0,0,1,.56.71l-.37.09a2.09,2.09,0,0,0-1-.92l-1.28-.46Z"/><path class="e3f4fea8-50bf-4324-806f-efc0a9e7f602" d="M139.56,65.27l-.43-.18a2.18,2.18,0,0,0,.42,2.11l-.4.08a2.49,2.49,0,0,1-.31-.58,3.25,3.25,0,0,1-.11-.42,2.37,2.37,0,0,1,.13-1.46,1.92,1.92,0,0,1-.28-.29l.39-.09a2,2,0,0,0,.73.51l1.26.52,0,0,.43.18a2.21,2.21,0,0,0-.2-1.76l.36-.08A2.54,2.54,0,0,1,141.7,66a2.78,2.78,0,0,1,.51.74l-.36.07a2.16,2.16,0,0,0-1-1l-1.27-.52S139.58,65.28,139.56,65.27Z"/><path class="e3f4fea8-50bf-4324-806f-efc0a9e7f602" d="M140.1,68.06l-.42-.2a2.15,2.15,0,0,0,0,1.48A2.24,2.24,0,0,0,140,70l-.4.05a2.29,2.29,0,0,1-.28-.59c0-.14-.07-.28-.1-.42a2.39,2.39,0,0,1,.2-1.46,1.86,1.86,0,0,1-.27-.29l.4-.08a2,2,0,0,0,.7.54l1.24.58,0,0,.43.2a2.22,2.22,0,0,0-.12-1.77l.36-.07a2.54,2.54,0,0,1,0,2.14,2.86,2.86,0,0,1,.48.77l-.37,0a2.07,2.07,0,0,0-.95-1l-1.24-.58Z"/><path class="e3f4fea8-50bf-4324-806f-efc0a9e7f602" d="M140.51,70.87l-.41-.22a2.1,2.1,0,0,0-.09,1.48,3.07,3.07,0,0,0,.31.66l-.39,0a2.2,2.2,0,0,1-.26-.61,3,3,0,0,1-.09-.43,2.45,2.45,0,0,1,.27-1.44,2.6,2.6,0,0,1-.25-.31L140,70a2.11,2.11,0,0,0,.68.57l1.2.64,0,0,.42.22a2.22,2.22,0,0,0,0-1.77l.36,0a2.58,2.58,0,0,1-.08,2.14,2.32,2.32,0,0,1,.44.78l-.36,0a2,2,0,0,0-.92-1l-1.2-.64Z"/><path class="e3f4fea8-50bf-4324-806f-efc0a9e7f602" d="M140.79,73.7l-.4-.24a2.13,2.13,0,0,0-.16,1.47,3.16,3.16,0,0,0,.29.68h-.4a3,3,0,0,1-.23-.61,2.14,2.14,0,0,1-.07-.43,2.36,2.36,0,0,1,.34-1.43,1.72,1.72,0,0,1-.23-.32l.39,0a2.07,2.07,0,0,0,.65.6l1.17.69s0,0,0,0l.41.24a2.23,2.23,0,0,0,.06-1.77l.36,0a2.58,2.58,0,0,1-.19,2.13,2.46,2.46,0,0,1,.42.8l-.37,0a2.12,2.12,0,0,0-.87-1.09l-1.17-.69Z"/><path class="e3f4fea8-50bf-4324-806f-efc0a9e7f602" d="M140.94,76.53l-.39-.25a2.13,2.13,0,0,0-.23,1.46,2.75,2.75,0,0,0,.27.69h-.4a2.61,2.61,0,0,1-.22-.63,3.15,3.15,0,0,1-.05-.43,2.42,2.42,0,0,1,.42-1.41,2.46,2.46,0,0,1-.22-.34h.4a2.07,2.07,0,0,0,.62.63l1.13.74,0,0,.39.26a2.24,2.24,0,0,0,.16-1.77l.36,0a2.64,2.64,0,0,1-.3,2.13,2.84,2.84,0,0,1,.4.82h-.38a2.15,2.15,0,0,0-.83-1.13L141,76.55Z"/><path class="e3f4fea8-50bf-4324-806f-efc0a9e7f602" d="M22.5,78.18a2.53,2.53,0,0,0,.36.12c5.29.77,10.57,1.57,15.86,2.3.88.12,4.33.65,4.6.69,9.13,1.34,18.27,2.63,27.38,4.07a2.94,2.94,0,0,0,3-1c1.93-2.07,3.93-4.07,6.08-6.3H22.51Z"/><path class="e3f4fea8-50bf-4324-806f-efc0a9e7f602" d="M134.63,77.83,122.52,76l-8-1.15C105.7,73.57,96.86,72.25,88,71c-.45-.07-1.1-.11-1.36.14-2.25,2.18-4.44,4.43-6.88,6.9H134.9C134.77,77.92,134.71,77.84,134.63,77.83Z"/><path class="e3f4fea8-50bf-4324-806f-efc0a9e7f602" d="M79.77,78v57.27h.16a1.63,1.63,0,0,0,.13-.37c.77-5.28,1.56-10.56,2.29-15.85.12-.89.66-4.33.7-4.61,1.34-9.12,2.63-18.26,4.07-27.37a2.93,2.93,0,0,0-1.06-3C84,82.17,82,80.17,79.77,78Z"/><path class="e3f4fea8-50bf-4324-806f-efc0a9e7f602" d="M77.78,35.27c-.17,1.15-1.08,7.46-1.16,8q-2,13.27-3.89,26.54c-.07.45-.11,1.1.14,1.36,2.18,2.25,4.43,4.43,6.9,6.87V22.88c-.09.13-.17.2-.19.28C79,27.2,78.39,31.23,77.78,35.27Z"/><path class="e3f4fea8-50bf-4324-806f-efc0a9e7f602" d="M46.33,112.57a2.26,2.26,0,0,0,.22-.11c2.76-2.06,5.54-4.11,8.28-6.19.46-.35,2.28-1.68,2.42-1.78,4.78-3.56,11.15-8.29,16-11.79l-.83-6.34L46.26,112.49Z"/><path class="e3f4fea8-50bf-4324-806f-efc0a9e7f602" d="M114.13,112.27a.91.91,0,0,0-.11-.22c-2.06-2.77-4.1-5.54-6.19-8.29l-1.78-2.42c-3.56-4.77-8.28-11.15-11.78-16l-6.35.83,26.13,26.13Z"/><path class="e3f4fea8-50bf-4324-806f-efc0a9e7f602" d="M113.38,44.21a.91.91,0,0,0-.22.11c-2.77,2.06-5.54,4.11-8.28,6.19l-2.42,1.78c-4.78,3.56-11.16,8.28-16,11.78l.83,6.35,26.13-26.13Z"/><path class="e3f4fea8-50bf-4324-806f-efc0a9e7f602" d="M46,44.88a1.13,1.13,0,0,0,.11.22c2.06,2.77,4.11,5.54,6.19,8.29.35.46,1.68,2.27,1.78,2.42,3.56,4.77,8.28,11.15,11.79,16L72.22,71,46.09,44.81Z"/><path class="e3f4fea8-50bf-4324-806f-efc0a9e7f602" d="M66.51,49.53l.62,11.57,5.09,3.67C68.94,55.86,66.5,49.47,66.51,49.53Z"/><path class="e3f4fea8-50bf-4324-806f-efc0a9e7f602" d="M110.83,91.25l-8.61-7.76-6.2,1C104.64,88.48,110.89,91.28,110.83,91.25Z"/><path class="e3f4fea8-50bf-4324-806f-efc0a9e7f602" d="M51.33,91.1l11.58-.61,3.66-5.1C57.67,88.67,51.27,91.11,51.33,91.1Z"/><path class="e3f4fea8-50bf-4324-806f-efc0a9e7f602" d="M92.86,48.09l-7.75,8.62,1,6.19C90.1,54.28,92.9,48,92.86,48.09Z"/><path class="e3f4fea8-50bf-4324-806f-efc0a9e7f602" d="M93,106.75l-.61-11.57-5.1-3.66C90.6,100.42,93,106.81,93,106.75Z"/><path class="e3f4fea8-50bf-4324-806f-efc0a9e7f602" d="M49.48,65.66l8.61,7.75,6.2-1C55.67,68.42,49.42,65.63,49.48,65.66Z"/><path class="e3f4fea8-50bf-4324-806f-efc0a9e7f602" d="M108.1,64.59l-11.57.61-3.67,5.1C101.77,67,108.16,64.57,108.1,64.59Z"/><path class="e3f4fea8-50bf-4324-806f-efc0a9e7f602" d="M66.82,108.26l7.75-8.61-1-6.2C69.59,102.07,66.79,108.32,66.82,108.26Z"/><path class="e3f4fea8-50bf-4324-806f-efc0a9e7f602" d="M51.69,115.64a17.23,17.23,0,0,1,9.14-2.36A17.17,17.17,0,0,1,70,115.64,18.08,18.08,0,0,0,77,118l-.11-.79a17.44,17.44,0,0,1-6.6-2.22,17.94,17.94,0,0,0-9.5-2.46A17.92,17.92,0,0,0,51.34,115a17.17,17.17,0,0,1-9.14,2.36,16.46,16.46,0,0,1-7.92-1.75c.39.47.79.92,1.18,1.37a17.88,17.88,0,0,0,6.74,1.15A17.93,17.93,0,0,0,51.69,115.64Z"/><path class="e3f4fea8-50bf-4324-806f-efc0a9e7f602" d="M107.6,115a19.55,19.55,0,0,0-19,0,17.25,17.25,0,0,1-8.82,2.36v.77A18,18,0,0,0,89,115.64a18.88,18.88,0,0,1,18.28,0,18,18,0,0,0,9.5,2.45,17.42,17.42,0,0,0,7.76-1.58l1.22-1.47A18.85,18.85,0,0,1,107.6,115Z"/><path class="e3f4fea8-50bf-4324-806f-efc0a9e7f602" d="M107.53,120.39a19.62,19.62,0,0,0-19,0,17,17,0,0,1-8.75,2.36v.77a17.94,17.94,0,0,0,9.11-2.44,18.81,18.81,0,0,1,18.28,0,18,18,0,0,0,9.49,2.45h.7l.94-.82c-.51,0-1,.06-1.64.06A17.13,17.13,0,0,1,107.53,120.39Z"/><path class="e3f4fea8-50bf-4324-806f-efc0a9e7f602" d="M60.77,118.71a17.1,17.1,0,0,1,9.14,2.37,17.84,17.84,0,0,0,8,2.4l-.12-.78a17,17,0,0,1-7.48-2.31,18,18,0,0,0-9.49-2.45,18,18,0,0,0-9.49,2.45,17.13,17.13,0,0,1-9.14,2.37h-.82l.9.78a18,18,0,0,0,9.41-2.45A17.1,17.1,0,0,1,60.77,118.71Z"/><path class="e3f4fea8-50bf-4324-806f-efc0a9e7f602" d="M98,123.38a17.93,17.93,0,0,0-9.49,2.45,17.17,17.17,0,0,1-8.69,2.36V129a18,18,0,0,0,9-2.44,18.81,18.81,0,0,1,18.28,0,23.84,23.84,0,0,0,3.79,1.66l.86-.55a20.57,20.57,0,0,1-4.29-1.8A18,18,0,0,0,98,123.38Z"/><path class="e3f4fea8-50bf-4324-806f-efc0a9e7f602" d="M60.71,124.15a17.13,17.13,0,0,1,9.14,2.37A18,18,0,0,0,78.67,129l-.12-.78a17,17,0,0,1-8.35-2.35,17.93,17.93,0,0,0-9.49-2.45,18,18,0,0,0-9.5,2.45,22.08,22.08,0,0,1-3.67,1.62l.83.53a26.47,26.47,0,0,0,3.2-1.46A17.07,17.07,0,0,1,60.71,124.15Z"/><path class="e3f4fea8-50bf-4324-806f-efc0a9e7f602" d="M88.42,131.27a17,17,0,0,1-8.63,2.35v.78a17.94,17.94,0,0,0,9-2.45,17.2,17.2,0,0,1,9.14-2.36,16.4,16.4,0,0,1,7.59,1.59l.86-.45a17.43,17.43,0,0,0-8.45-1.91A17.93,17.93,0,0,0,88.42,131.27Z"/><path class="e3f4fea8-50bf-4324-806f-efc0a9e7f602" d="M69.78,132a18,18,0,0,0,9.5,2.45h.19l-.11-.77h-.08a17.17,17.17,0,0,1-9.14-2.36,18,18,0,0,0-9.5-2.45,17.25,17.25,0,0,0-7.91,1.66l.87.45a16.53,16.53,0,0,1,7-1.34A17.17,17.17,0,0,1,69.78,132Z"/><path class="e3f4fea8-50bf-4324-806f-efc0a9e7f602" d="M42.52,90.91A18.1,18.1,0,0,0,52,88.46a17.76,17.76,0,0,1,5.7-2.1L59,85.42a18.09,18.09,0,0,0-7.29,2.35,17.07,17.07,0,0,1-9.14,2.37,17.1,17.1,0,0,1-9.14-2.37,18,18,0,0,0-9.49-2.45v.77A17.13,17.13,0,0,1,33,88.46,18,18,0,0,0,42.52,90.91Z"/><path class="e3f4fea8-50bf-4324-806f-efc0a9e7f602" d="M70.83,99.67a19.06,19.06,0,0,0,3.73,1.5l-.13-.84A18.56,18.56,0,0,1,71.15,99Z"/><path class="e3f4fea8-50bf-4324-806f-efc0a9e7f602" d="M69.12,103.41l-.32.7c.44.21.87.44,1.3.66a19.6,19.6,0,0,0,5.29,2l-.12-.81a19.09,19.09,0,0,1-4.81-1.93C70,103.86,69.58,103.63,69.12,103.41Z"/><path class="e3f4fea8-50bf-4324-806f-efc0a9e7f602" d="M73.58,94.6l-.38-.16-.32.71.83.31Z"/><path class="e3f4fea8-50bf-4324-806f-efc0a9e7f602" d="M62,91.55l.55-.75c-.46,0-.94,0-1.46,0a17.93,17.93,0,0,0-9.49,2.45,17.13,17.13,0,0,1-9.14,2.36,17.08,17.08,0,0,1-9.14-2.36,18,18,0,0,0-9.5-2.45v.77A17.07,17.07,0,0,1,33,93.9a18,18,0,0,0,9.5,2.45A18,18,0,0,0,52,93.9a17.1,17.1,0,0,1,9.14-2.37Z"/><path class="e3f4fea8-50bf-4324-806f-efc0a9e7f602" d="M71,94.29l.68-.52-1.11-.56a24.29,24.29,0,0,0-3.39-1.53l-.61.61a21.39,21.39,0,0,1,3.65,1.61Z"/><path class="e3f4fea8-50bf-4324-806f-efc0a9e7f602" d="M42.39,101.78a18,18,0,0,0,9.5-2.45,17.89,17.89,0,0,1,5.88-2.13l.65-.86a18,18,0,0,0-6.89,2.31A17.17,17.17,0,0,1,42.39,101a17.23,17.23,0,0,1-9.14-2.36,17.92,17.92,0,0,0-9.49-2.46v.27c.06.17.11.34.17.51a17.11,17.11,0,0,1,9,2.36A17.93,17.93,0,0,0,42.39,101.78Z"/><path class="e3f4fea8-50bf-4324-806f-efc0a9e7f602" d="M67.51,98.08l0-.81a16.72,16.72,0,0,0-5-1l-.73.73A16.42,16.42,0,0,1,67.51,98.08Z"/><path class="e3f4fea8-50bf-4324-806f-efc0a9e7f602" d="M67.2,103.42l0-.8a18,18,0,0,0-6.29-1,20.92,20.92,0,0,0-4.11.38l-1.05,1A18.14,18.14,0,0,1,61,102.4,17,17,0,0,1,67.2,103.42Z"/><path class="e3f4fea8-50bf-4324-806f-efc0a9e7f602" d="M32.84,104.77a18,18,0,0,0,9.49,2.45,18,18,0,0,0,9.49-2.45l.48-.25,1-1.35c-.64.29-1.25.6-1.84.91a17.1,17.1,0,0,1-9.14,2.37,17.07,17.07,0,0,1-9.14-2.37,18.14,18.14,0,0,0-7.42-2.36c.12.27.24.54.37.81A17.22,17.22,0,0,1,32.84,104.77Z"/><path class="e3f4fea8-50bf-4324-806f-efc0a9e7f602" d="M42.27,112.66a19.84,19.84,0,0,0,4.26-.42l.73-1a18.48,18.48,0,0,1-5,.6,17.08,17.08,0,0,1-9.14-2.36,21,21,0,0,0-4.31-1.81c.19.32.36.65.56,1a24,24,0,0,1,3.39,1.53A18,18,0,0,0,42.27,112.66Z"/><path class="e3f4fea8-50bf-4324-806f-efc0a9e7f602" d="M67,108l-.12.27,0-.3a18.25,18.25,0,0,0-6-.9,18,18,0,0,0-9.5,2.45,22.08,22.08,0,0,1-3.67,1.62l-1.09,1.08a19.88,19.88,0,0,0,5.12-2,17.07,17.07,0,0,1,9.14-2.37A17.13,17.13,0,0,1,70,110.21a18.73,18.73,0,0,0,6.18,2.21l-.12-.8a18.16,18.16,0,0,1-5.71-2.1A23.86,23.86,0,0,0,67,108Z"/><path class="e3f4fea8-50bf-4324-806f-efc0a9e7f602" d="M66.2,85.92l-.46-.12-1.39.52c.48.07.92.17,1.35.27Z"/><path class="e3f4fea8-50bf-4324-806f-efc0a9e7f602" d="M72.73,88.79c-.62-.27-1.2-.57-1.79-.87l-.57.58c.79.4,1.59.81,2.49,1.18Z"/><path class="e3f4fea8-50bf-4324-806f-efc0a9e7f602" d="M86,94.54a16.88,16.88,0,0,1-6.22,1v.78a18.39,18.39,0,0,0,6.09-.94Z"/><path class="e3f4fea8-50bf-4324-806f-efc0a9e7f602" d="M87.52,99.29A16.33,16.33,0,0,1,79.79,101v.77A17.3,17.3,0,0,0,88,99.92Z"/><path class="e3f4fea8-50bf-4324-806f-efc0a9e7f602" d="M90.88,103.88l-.47-.63c-.58.27-1.13.55-1.67.83a17.09,17.09,0,0,1-8.95,2.36v.78a18,18,0,0,0,9.3-2.45C89.68,104.46,90.26,104.16,90.88,103.88Z"/><path class="e3f4fea8-50bf-4324-806f-efc0a9e7f602" d="M86.87,88.78a16.63,16.63,0,0,1-7.08,1.36v.77a17.75,17.75,0,0,0,6.95-1.24Z"/><path class="e3f4fea8-50bf-4324-806f-efc0a9e7f602" d="M116.8,111.88a20.52,20.52,0,0,1-3.57-.28l.84.84-1.16-.9a18.61,18.61,0,0,1-5.25-2,19.62,19.62,0,0,0-19,0,17.09,17.09,0,0,1-8.88,2.36v.77A18,18,0,0,0,89,110.21a18.81,18.81,0,0,1,18.28,0,19.62,19.62,0,0,0,19,0,20.52,20.52,0,0,1,4-1.72l.53-.94a20,20,0,0,0-4.91,2A17.08,17.08,0,0,1,116.8,111.88Z"/><path class="e3f4fea8-50bf-4324-806f-efc0a9e7f602" d="M117,95.57a17.13,17.13,0,0,1-9.14-2.36,17.93,17.93,0,0,0-9.49-2.45,19.07,19.07,0,0,0-5.28.66l.63.63a18.65,18.65,0,0,1,4.65-.52,17.13,17.13,0,0,1,9.14,2.37,19.62,19.62,0,0,0,19,0,17.1,17.1,0,0,1,9.14-2.37v-.77a18,18,0,0,0-9.5,2.45A17.08,17.08,0,0,1,117,95.57Z"/><path class="e3f4fea8-50bf-4324-806f-efc0a9e7f602" d="M89.22,93.9l.54-.29-.67-.52-.23.12-.79.4.28.73Z"/><path class="e3f4fea8-50bf-4324-806f-efc0a9e7f602" d="M89.77,98.15l.28.72a16.71,16.71,0,0,1,4.46-1.58l-.78-.61A17.83,17.83,0,0,0,89.77,98.15Z"/><path class="e3f4fea8-50bf-4324-806f-efc0a9e7f602" d="M116.93,101a17.17,17.17,0,0,1-9.14-2.36,17.94,17.94,0,0,0-9.5-2.46l-.43,0,.77.76a17.17,17.17,0,0,1,8.8,2.36,19.62,19.62,0,0,0,19,0A17.24,17.24,0,0,1,135.57,97v-.78a17.94,17.94,0,0,0-9.5,2.46A17.2,17.2,0,0,1,116.93,101Z"/><path class="e3f4fea8-50bf-4324-806f-efc0a9e7f602" d="M98.23,101.63a17.8,17.8,0,0,0-6.72,1.15l.27.72a16.93,16.93,0,0,1,6.45-1.1,20.9,20.9,0,0,1,3.17.23l-1.18-.92C99.61,101.66,99,101.63,98.23,101.63Z"/><path class="e3f4fea8-50bf-4324-806f-efc0a9e7f602" d="M116.87,106.45a17.14,17.14,0,0,1-9.15-2.37,22.63,22.63,0,0,0-3.59-1.59l1.35,1.35c.65.29,1.27.61,1.89.93a19.62,19.62,0,0,0,19,0,17.15,17.15,0,0,1,7.1-2.28c.13-.27.25-.53.37-.8a17.88,17.88,0,0,0-7.82,2.39A17.13,17.13,0,0,1,116.87,106.45Z"/><path class="e3f4fea8-50bf-4324-806f-efc0a9e7f602" d="M107.56,88.46a19.62,19.62,0,0,0,19,0,17.13,17.13,0,0,1,9.14-2.37v-.77a18,18,0,0,0-9.49,2.45,18.81,18.81,0,0,1-18.28,0,18.07,18.07,0,0,0-9.5-2.45H98l1.71.8A17,17,0,0,1,107.56,88.46Z"/><path class="e3f4fea8-50bf-4324-806f-efc0a9e7f602" d="M95,86.36l-.5-.69a18.43,18.43,0,0,0-5.2,1.93l.58.57A16.93,16.93,0,0,1,95,86.36Z"/><path class="e3f4fea8-50bf-4324-806f-efc0a9e7f602" d="M33.45,115.16l-.39-.2-.35-.18c.39.49.77,1,1.16,1.45l.77.36C34.23,116.12,33.84,115.64,33.45,115.16Z"/><path class="e3f4fea8-50bf-4324-806f-efc0a9e7f602" d="M34.28,115.57l-.83-.41c.39.48.78,1,1.19,1.43l.82.35C35.07,116.49,34.67,116,34.28,115.57Z"/><path class="e3f4fea8-50bf-4324-806f-efc0a9e7f602" d="M125.4,116.07l.76-.39c.38-.47.75-1,1.12-1.43l-.71.35C126.18,115.1,125.8,115.59,125.4,116.07Z"/><path class="e3f4fea8-50bf-4324-806f-efc0a9e7f602" d="M125.72,115l-1.22,1.47.9-.44c.4-.48.78-1,1.17-1.47l-.69.36Z"/><path class="e3f4fea8-50bf-4324-806f-efc0a9e7f602" d="M118,123.49l.57,0,1-.88-.61.08Z"/><path class="e3f4fea8-50bf-4324-806f-efc0a9e7f602" d="M117.37,123.52l.64,0,1-.84-.68,0Z"/><path class="e3f4fea8-50bf-4324-806f-efc0a9e7f602" d="M40.67,122.71l-.57,0,1,.84h.55C41.29,123.26,41,123,40.67,122.71Z"/><path class="e3f4fea8-50bf-4324-806f-efc0a9e7f602" d="M42.22,123.53l-.9-.78-.65,0c.31.28.62.55.94.81h.61Z"/><path class="e3f4fea8-50bf-4324-806f-efc0a9e7f602" d="M111.4,128.32l.46.12.91-.58-.48-.1Z"/><path class="e3f4fea8-50bf-4324-806f-efc0a9e7f602" d="M110.9,128.18l.5.14.89-.56-.53-.13Z"/><path class="e3f4fea8-50bf-4324-806f-efc0a9e7f602" d="M47,127.59l-.46.12.88.56.43-.13Z"/><path class="e3f4fea8-50bf-4324-806f-efc0a9e7f602" d="M47.54,127.45l-.5.14.85.55.48-.16Z"/><path class="e3f4fea8-50bf-4324-806f-efc0a9e7f602" d="M105.94,131.39l.39.19.84-.43-.38-.2Z"/><path class="e3f4fea8-50bf-4324-806f-efc0a9e7f602" d="M105.5,131.18l.44.21.85-.44-.43-.22Z"/><path class="e3f4fea8-50bf-4324-806f-efc0a9e7f602" d="M23.76,97h.17c-.06-.17-.11-.34-.17-.51Z"/><path class="e3f4fea8-50bf-4324-806f-efc0a9e7f602" d="M25.33,101.68l-.4,0,.36.79.4,0Z"/><path class="e3f4fea8-50bf-4324-806f-efc0a9e7f602" d="M25.77,101.72l-.44,0,.36.81.45,0C26,102.26,25.89,102,25.77,101.72Z"/><path class="e3f4fea8-50bf-4324-806f-efc0a9e7f602" d="M28.29,107.57l-.46-.1c.17.3.34.61.52.91l.48.13C28.64,108.2,28.47,107.88,28.29,107.57Z"/><path class="e3f4fea8-50bf-4324-806f-efc0a9e7f602" d="M28.82,107.71l-.53-.14c.18.31.35.63.54.94l.55.17C29.18,108.36,29,108,28.82,107.71Z"/><path class="e3f4fea8-50bf-4324-806f-efc0a9e7f602" d="M130.85,108.34l.46-.1.51-.88-.45.08C131.2,107.74,131,108.05,130.85,108.34Z"/><path class="e3f4fea8-50bf-4324-806f-efc0a9e7f602" d="M130.32,108.49l.53-.15c.18-.29.35-.6.52-.9l-.52.11Z"/><path class="e3f4fea8-50bf-4324-806f-efc0a9e7f602" d="M134.26,101.66c-.11.27-.24.53-.35.79h.39c.12-.27.25-.53.36-.79Z"/><path class="e3f4fea8-50bf-4324-806f-efc0a9e7f602" d="M133.46,102.49l.45,0c.11-.26.24-.52.35-.79l-.43,0C133.71,102,133.59,102.22,133.46,102.49Z"/></g></g></svg>