<svg xmlns="http://www.w3.org/2000/svg" viewBox="0 0 152 152"><defs><style>.b8271c3f-03ae-46aa-80b9-7da8b75b9c12{fill:#fff;}</style></defs><g id="e399975d-cebf-4b29-844f-672e80cb07a8" data-name="Capa 2"><g id="ea76ff15-eb5b-4d2c-8cb2-1ce393d27d0f" data-name="TYPO"><path class="b8271c3f-03ae-46aa-80b9-7da8b75b9c12" d="M55.05,40.32a.73.73,0,0,0-.68-.37H43.47c.12.18.19.3.27.41l29.74,43.2q11,16.05,22.07,32.09a.77.77,0,0,0,.71.38c3.46,0,6.92,0,10.38,0h.5c-.13-.21-.22-.33-.3-.45L75.91,70.64Q65.47,55.49,55.05,40.32Z"/><path class="b8271c3f-03ae-46aa-80b9-7da8b75b9c12" d="M123.9,0H28.1A28.1,28.1,0,0,0,0,28.1v95.8A28.1,28.1,0,0,0,28.1,152h95.8A28.1,28.1,0,0,0,152,123.9V28.1A28.1,28.1,0,0,0,123.9,0Zm-6.36,121.74H93.23a.68.68,0,0,1-.65-.33Q81.09,104.69,69.57,88c-.09-.15-.2-.29-.33-.48l-.32.35-8.53,9.93L40.05,121.44a.78.78,0,0,1-.68.3H32.62l0-.08Q49.28,102.22,66,82.77L32.65,34.31a1.86,1.86,0,0,1,.28,0,1.76,1.76,0,0,1,.23,0H57.35a.74.74,0,0,1,.71.37L79.7,66.09l.27.38c.1-.11.19-.19.27-.29l9.82-11.43q8.72-10.11,17.42-20.24a.58.58,0,0,1,.48-.25h6.89l0,0a.06.06,0,0,1,0,0L83.23,71.21,118,121.73Z"/></g></g></svg>